NotoSansTamil-Condensed.ufo
<glyph name="exclam.tamil" format="2">
  <advance width="248"/>
  <unicode hex="0021"/>
  <outline>
    <contour>
      <point x="94" y="201" type="line"/>
      <point x="152" y="201" type="line"/>
      <point x="172" y="714" type="line"/>
      <point x="74" y="714" type="line"/>
    </contour>
    <contour>
      <point x="124" y="-12" type="curve" smooth="yes"/>
      <point x="155" y="-12"/>
      <point x="178" y="8"/>
      <point x="178" y="52" type="curve" smooth="yes"/>
      <point x="178" y="97"/>
      <point x="157" y="116"/>
      <point x="124" y="116" type="curve" smooth="yes"/>
      <point x="88" y="116"/>
      <point x="70" y="94"/>
      <point x="70" y="52" type="curve" smooth="yes"/>
      <point x="70" y="10"/>
      <point x="89" y="-12"/>
    </contour>
  </outline>
</glyph>
<glyph name="numbersign.tamil" format="2">
  <advance width="497"/>
  <unicode hex="0023"/>
  <outline>
    <contour>
      <point x="63" y="0" type="line"/>
      <point x="125" y="0" type="line"/>
      <point x="166" y="214" type="line"/>
      <point x="277" y="214" type="line"/>
      <point x="236" y="0" type="line"/>
      <point x="298" y="0" type="line"/>
      <point x="339" y="214" type="line"/>
      <point x="450" y="214" type="line"/>
      <point x="450" y="277" type="line"/>
      <point x="351" y="277" type="line"/>
      <point x="382" y="444" type="line"/>
      <point x="473" y="444" type="line"/>
      <point x="473" y="507" type="line"/>
      <point x="394" y="507" type="line"/>
      <point x="434" y="714" type="line"/>
      <point x="372" y="714" type="line"/>
      <point x="332" y="507" type="line"/>
      <point x="221" y="507" type="line"/>
      <point x="261" y="714" type="line"/>
      <point x="199" y="714" type="line"/>
      <point x="159" y="507" type="line"/>
      <point x="47" y="507" type="line"/>
      <point x="47" y="444" type="line"/>
      <point x="147" y="444" type="line"/>
      <point x="116" y="277" type="line"/>
      <point x="24" y="277" type="line"/>
      <point x="24" y="214" type="line"/>
      <point x="104" y="214" type="line"/>
    </contour>
    <contour>
      <point x="178" y="277" type="line"/>
      <point x="209" y="444" type="line"/>
      <point x="320" y="444" type="line"/>
      <point x="289" y="277" type="line"/>
    </contour>
  </outline>
</glyph>
<glyph name="quotesingle.tamil" format="2">
  <advance width="218"/>
  <unicode hex="0027"/>
  <outline>
    <contour>
      <point x="79" y="542" type="line"/>
      <point x="140" y="542" type="line"/>
      <point x="156" y="800" type="line"/>
      <point x="62" y="800" type="line"/>
    </contour>
  </outline>
</glyph>
<glyph name="parenleft.tamil" format="2">
  <advance width="316"/>
  <unicode hex="0028"/>
  <outline>
    <contour>
      <point x="57" y="274" type="curve" smooth="yes"/>
      <point x="57" y="95"/>
      <point x="104" y="-104"/>
      <point x="206" y="-244" type="curve"/>
      <point x="286" y="-244" type="line"/>
      <point x="188" y="-95"/>
      <point x="137" y="78"/>
      <point x="137" y="275" type="curve" smooth="yes"/>
      <point x="137" y="471"/>
      <point x="188" y="651"/>
      <point x="287" y="800" type="curve"/>
      <point x="206" y="800" type="line"/>
      <point x="112" y="665"/>
      <point x="57" y="469"/>
    </contour>
  </outline>
</glyph>
<glyph name="parenright.tamil" format="2">
  <advance width="316"/>
  <unicode hex="0029"/>
  <outline>
    <contour>
      <point x="259" y="283" type="curve"/>
      <point x="259" y="462"/>
      <point x="212" y="660"/>
      <point x="110" y="800" type="curve"/>
      <point x="30" y="800" type="line"/>
      <point x="128" y="651"/>
      <point x="179" y="479"/>
      <point x="179" y="282" type="curve" smooth="yes"/>
      <point x="179" y="85"/>
      <point x="128" y="-95"/>
      <point x="29" y="-244" type="curve"/>
      <point x="110" y="-244" type="line"/>
      <point x="204" y="-109"/>
      <point x="259" y="87"/>
    </contour>
  </outline>
</glyph>
<glyph name="asterisk.tamil" format="2">
  <advance width="513"/>
  <unicode hex="002A"/>
  <outline>
    <contour>
      <point x="298" y="800" type="line"/>
      <point x="212" y="800" type="line"/>
      <point x="228" y="624" type="line"/>
      <point x="53" y="672" type="line"/>
      <point x="39" y="588" type="line"/>
      <point x="212" y="574" type="line"/>
      <point x="102" y="426" type="line"/>
      <point x="180" y="382" type="line"/>
      <point x="254" y="549" type="line"/>
      <point x="335" y="382" type="line"/>
      <point x="411" y="426" type="line"/>
      <point x="299" y="574" type="line"/>
      <point x="474" y="588" type="line"/>
      <point x="459" y="672" type="line"/>
      <point x="283" y="623" type="line"/>
    </contour>
  </outline>
</glyph>
<glyph name="hyphen.tamil" format="2">
  <advance width="308"/>
  <unicode hex="002D"/>
  <outline>
    <contour>
      <point x="38" y="268" type="line"/>
      <point x="270" y="268" type="line"/>
      <point x="270" y="339" type="line"/>
      <point x="38" y="339" type="line"/>
    </contour>
  </outline>
</glyph>
<glyph name="slash.tamil" format="2">
  <advance width="382"/>
  <unicode hex="002F"/>
  <outline>
    <contour>
      <point x="20" y="-244" type="line"/>
      <point x="99" y="-244" type="line"/>
      <point x="362" y="800" type="line"/>
      <point x="283" y="800" type="line"/>
    </contour>
  </outline>
</glyph>
<glyph name="two.tamil" format="2">
  <advance width="429"/>
  <unicode hex="0032"/>
  <outline>
    <contour>
      <point x="33" y="0" type="line"/>
      <point x="382" y="0" type="line"/>
      <point x="382" y="75" type="line"/>
      <point x="131" y="75" type="line"/>
      <point x="131" y="79" type="line"/>
      <point x="248" y="244" type="line" smooth="yes"/>
      <point x="324" y="351"/>
      <point x="368" y="431"/>
      <point x="368" y="545" type="curve" smooth="yes"/>
      <point x="368" y="651"/>
      <point x="304" y="725"/>
      <point x="197" y="725" type="curve" smooth="yes"/>
      <point x="133" y="725"/>
      <point x="83" y="700"/>
      <point x="37" y="668" type="curve"/>
      <point x="76" y="607" type="line"/>
      <point x="109" y="634"/>
      <point x="149" y="650"/>
      <point x="190" y="650" type="curve" smooth="yes"/>
      <point x="251" y="650"/>
      <point x="284" y="606"/>
      <point x="284" y="542" type="curve" smooth="yes"/>
      <point x="284" y="450"/>
      <point x="259" y="393"/>
      <point x="174" y="269" type="curve" smooth="yes"/>
      <point x="33" y="62" type="line"/>
    </contour>
  </outline>
</glyph>
<glyph name="three.tamil" format="2">
  <advance width="429"/>
  <unicode hex="0033"/>
  <outline>
    <contour>
      <point x="181" y="-12" type="curve" smooth="yes"/>
      <point x="305" y="-12"/>
      <point x="377" y="71"/>
      <point x="377" y="196" type="curve" smooth="yes"/>
      <point x="377" y="290"/>
      <point x="331" y="353"/>
      <point x="247" y="371" type="curve"/>
      <point x="247" y="375" type="line"/>
      <point x="325" y="403"/>
      <point x="365" y="466"/>
      <point x="365" y="550" type="curve" smooth="yes"/>
      <point x="365" y="657"/>
      <point x="302" y="725"/>
      <point x="196" y="725" type="curve" smooth="yes"/>
      <point x="133" y="725"/>
      <point x="85" y="708"/>
      <point x="29" y="669" type="curve"/>
      <point x="69" y="609" type="line"/>
      <point x="106" y="635"/>
      <point x="143" y="652"/>
      <point x="187" y="652" type="curve" smooth="yes"/>
      <point x="248" y="652"/>
      <point x="282" y="611"/>
      <point x="282" y="541" type="curve" smooth="yes"/>
      <point x="282" y="460"/>
      <point x="232" y="405"/>
      <point x="148" y="405" type="curve" smooth="yes"/>
      <point x="109" y="405" type="line"/>
      <point x="109" y="332" type="line"/>
      <point x="145" y="332" type="line" smooth="yes"/>
      <point x="243" y="332"/>
      <point x="290" y="285"/>
      <point x="290" y="200" type="curve" smooth="yes"/>
      <point x="290" y="117"/>
      <point x="253" y="61"/>
      <point x="173" y="61" type="curve" smooth="yes"/>
      <point x="115" y="61"/>
      <point x="77" y="70"/>
      <point x="34" y="89" type="curve"/>
      <point x="34" y="10" type="line"/>
      <point x="73" y="-5"/>
      <point x="120" y="-12"/>
    </contour>
  </outline>
</glyph>
<glyph name="five.tamil" format="2">
  <advance width="429"/>
  <unicode hex="0035"/>
  <outline>
    <contour>
      <point x="180" y="-12" type="curve" smooth="yes"/>
      <point x="313" y="-12"/>
      <point x="385" y="85"/>
      <point x="385" y="230" type="curve" smooth="yes"/>
      <point x="385" y="354"/>
      <point x="319" y="439"/>
      <point x="205" y="439" type="curve" smooth="yes"/>
      <point x="187" y="439"/>
      <point x="159" y="437"/>
      <point x="131" y="431" type="curve"/>
      <point x="146" y="638" type="line"/>
      <point x="346" y="638" type="line"/>
      <point x="346" y="714" type="line"/>
      <point x="76" y="714" type="line"/>
      <point x="55" y="384" type="line"/>
      <point x="88" y="352" type="line"/>
      <point x="120" y="362"/>
      <point x="151" y="368"/>
      <point x="182" y="368" type="curve" smooth="yes"/>
      <point x="256" y="368"/>
      <point x="300" y="320"/>
      <point x="300" y="227" type="curve" smooth="yes"/>
      <point x="300" y="136"/>
      <point x="259" y="61"/>
      <point x="175" y="61" type="curve" smooth="yes"/>
      <point x="125" y="61"/>
      <point x="85" y="71"/>
      <point x="49" y="92" type="curve"/>
      <point x="49" y="11" type="line"/>
      <point x="81" y="-2"/>
      <point x="127" y="-12"/>
    </contour>
  </outline>
</glyph>
<glyph name="six.tamil" format="2">
  <advance width="429"/>
  <unicode hex="0036"/>
  <outline>
    <contour>
      <point x="224" y="-12" type="curve" smooth="yes"/>
      <point x="336" y="-12"/>
      <point x="391" y="91"/>
      <point x="391" y="226" type="curve" smooth="yes"/>
      <point x="391" y="352"/>
      <point x="343" y="452"/>
      <point x="243" y="452" type="curve" smooth="yes"/>
      <point x="192" y="452"/>
      <point x="153" y="422"/>
      <point x="131" y="372" type="curve"/>
      <point x="127" y="372" type="line"/>
      <point x="133" y="557"/>
      <point x="186" y="651"/>
      <point x="283" y="651" type="curve" smooth="yes"/>
      <point x="309" y="651"/>
      <point x="333" y="647"/>
      <point x="354" y="640" type="curve"/>
      <point x="354" y="715" type="line"/>
      <point x="333" y="721"/>
      <point x="308" y="725"/>
      <point x="280" y="725" type="curve" smooth="yes"/>
      <point x="113" y="725"/>
      <point x="47" y="569"/>
      <point x="47" y="303" type="curve" smooth="yes"/>
      <point x="47" y="100"/>
      <point x="110" y="-12"/>
    </contour>
    <contour>
      <point x="223" y="63" type="curve" smooth="yes"/>
      <point x="156" y="63"/>
      <point x="132" y="171"/>
      <point x="132" y="255" type="curve" smooth="yes"/>
      <point x="132" y="319"/>
      <point x="163" y="378"/>
      <point x="223" y="378" type="curve" smooth="yes"/>
      <point x="279" y="378"/>
      <point x="308" y="325"/>
      <point x="308" y="224" type="curve" smooth="yes"/>
      <point x="308" y="115"/>
      <point x="276" y="63"/>
    </contour>
  </outline>
</glyph>
<glyph name="eight.tamil" format="2">
  <advance width="429"/>
  <unicode hex="0038"/>
  <outline>
    <contour>
      <point x="219" y="-12" type="curve" smooth="yes"/>
      <point x="326" y="-12"/>
      <point x="396" y="66"/>
      <point x="396" y="180" type="curve" smooth="yes"/>
      <point x="396" y="268"/>
      <point x="344" y="322"/>
      <point x="269" y="373" type="curve"/>
      <point x="344" y="418"/>
      <point x="380" y="479"/>
      <point x="380" y="557" type="curve" smooth="yes"/>
      <point x="380" y="660"/>
      <point x="319" y="725"/>
      <point x="216" y="725" type="curve" smooth="yes"/>
      <point x="116" y="725"/>
      <point x="51" y="659"/>
      <point x="51" y="556" type="curve" smooth="yes"/>
      <point x="51" y="485"/>
      <point x="83" y="425"/>
      <point x="151" y="372" type="curve"/>
      <point x="71" y="321"/>
      <point x="34" y="260"/>
      <point x="34" y="175" type="curve" smooth="yes"/>
      <point x="34" y="62"/>
      <point x="101" y="-12"/>
    </contour>
    <contour>
      <point x="215" y="58" type="curve" smooth="yes"/>
      <point x="151" y="58"/>
      <point x="116" y="107"/>
      <point x="116" y="175" type="curve" smooth="yes"/>
      <point x="116" y="244"/>
      <point x="140" y="290"/>
      <point x="207" y="334" type="curve"/>
      <point x="227" y="320" type="line" smooth="yes"/>
      <point x="287" y="277"/>
      <point x="313" y="232"/>
      <point x="313" y="180" type="curve" smooth="yes"/>
      <point x="313" y="108"/>
      <point x="280" y="58"/>
    </contour>
    <contour>
      <point x="214" y="413" type="curve"/>
      <point x="159" y="451"/>
      <point x="132" y="490"/>
      <point x="132" y="551" type="curve" smooth="yes"/>
      <point x="132" y="616"/>
      <point x="166" y="655"/>
      <point x="215" y="655" type="curve" smooth="yes"/>
      <point x="268" y="655"/>
      <point x="298" y="620"/>
      <point x="298" y="554" type="curve" smooth="yes"/>
      <point x="298" y="494"/>
      <point x="274" y="452"/>
    </contour>
  </outline>
</glyph>
<glyph name="semicolon.tamil" format="2">
  <advance width="252"/>
  <unicode hex="003B"/>
  <outline>
    <contour>
      <point x="176" y="114" type="line"/>
      <point x="91" y="114" type="line"/>
      <point x="83" y="42"/>
      <point x="67" y="-50"/>
      <point x="45" y="-132" type="curve"/>
      <point x="107" y="-132" type="line"/>
      <point x="139" y="-60"/>
      <point x="164" y="19"/>
      <point x="183" y="103" type="curve"/>
    </contour>
    <contour>
      <point x="126" y="405" type="curve" smooth="yes"/>
      <point x="157" y="405"/>
      <point x="180" y="426"/>
      <point x="180" y="470" type="curve" smooth="yes"/>
      <point x="180" y="512"/>
      <point x="161" y="534"/>
      <point x="126" y="534" type="curve" smooth="yes"/>
      <point x="90" y="534"/>
      <point x="72" y="512"/>
      <point x="72" y="470" type="curve" smooth="yes"/>
      <point x="72" y="427"/>
      <point x="91" y="405"/>
    </contour>
  </outline>
</glyph>
<glyph name="less.tamil" format="2">
  <advance width="429"/>
  <unicode hex="003C"/>
  <outline>
    <contour>
      <point x="400" y="132" type="line"/>
      <point x="400" y="210" type="line"/>
      <point x="121" y="355" type="line"/>
      <point x="400" y="500" type="line"/>
      <point x="400" y="578" type="line"/>
      <point x="29" y="380" type="line"/>
      <point x="29" y="332" type="line"/>
    </contour>
  </outline>
</glyph>
<glyph name="equal.tamil" format="2">
  <advance width="429"/>
  <unicode hex="003D"/>
  <outline>
    <contour>
      <point x="30" y="211" type="line"/>
      <point x="398" y="211" type="line"/>
      <point x="398" y="279" type="line"/>
      <point x="30" y="279" type="line"/>
    </contour>
    <contour>
      <point x="30" y="425" type="line"/>
      <point x="398" y="425" type="line"/>
      <point x="398" y="493" type="line"/>
      <point x="30" y="493" type="line"/>
    </contour>
  </outline>
</glyph>
<glyph name="question.tamil" format="2">
  <advance width="349"/>
  <unicode hex="003F"/>
  <outline>
    <contour>
      <point x="165" y="724" type="curve" smooth="yes"/>
      <point x="114" y="724"/>
      <point x="71" y="708"/>
      <point x="32" y="687" type="curve"/>
      <point x="63" y="624" type="line"/>
      <point x="91" y="639"/>
      <point x="121" y="652"/>
      <point x="156" y="652" type="curve" smooth="yes"/>
      <point x="212" y="652"/>
      <point x="239" y="618"/>
      <point x="239" y="554" type="curve" smooth="yes"/>
      <point x="239" y="496"/>
      <point x="218" y="455"/>
      <point x="171" y="394" type="curve" smooth="yes"/>
      <point x="130" y="342"/>
      <point x="118" y="298"/>
      <point x="118" y="230" type="curve" smooth="yes"/>
      <point x="118" y="201" type="line"/>
      <point x="183" y="201" type="line"/>
      <point x="183" y="221" type="line" smooth="yes"/>
      <point x="183" y="275"/>
      <point x="194" y="307"/>
      <point x="234" y="359" type="curve" smooth="yes"/>
      <point x="291" y="434"/>
      <point x="317" y="474"/>
      <point x="317" y="563" type="curve" smooth="yes"/>
      <point x="317" y="660"/>
      <point x="263" y="724"/>
    </contour>
    <contour>
      <point x="152" y="-12" type="curve" smooth="yes"/>
      <point x="184" y="-12"/>
      <point x="206" y="8"/>
      <point x="206" y="52" type="curve" smooth="yes"/>
      <point x="206" y="97"/>
      <point x="185" y="116"/>
      <point x="152" y="116" type="curve" smooth="yes"/>
      <point x="117" y="116"/>
      <point x="98" y="94"/>
      <point x="98" y="52" type="curve" smooth="yes"/>
      <point x="98" y="10"/>
      <point x="118" y="-12"/>
    </contour>
  </outline>
</glyph>
<glyph name="bracketleft.tamil" format="2">
  <advance width="326"/>
  <unicode hex="005B"/>
  <outline>
    <contour>
      <point x="78" y="-244" type="line"/>
      <point x="287" y="-244" type="line"/>
      <point x="287" y="-176" type="line"/>
      <point x="157" y="-176" type="line"/>
      <point x="157" y="732" type="line"/>
      <point x="287" y="732" type="line"/>
      <point x="287" y="800" type="line"/>
      <point x="78" y="800" type="line"/>
    </contour>
  </outline>
</glyph>
<glyph name="bracketright.tamil" format="2">
  <advance width="326"/>
  <unicode hex="005D"/>
  <outline>
    <contour>
      <point x="39" y="-244" type="line"/>
      <point x="248" y="-244" type="line"/>
      <point x="248" y="800" type="line"/>
      <point x="39" y="800" type="line"/>
      <point x="39" y="732" type="line"/>
      <point x="169" y="732" type="line"/>
      <point x="169" y="-176" type="line"/>
      <point x="39" y="-176" type="line"/>
    </contour>
  </outline>
</glyph>
<glyph name="braceleft.tamil" format="2">
  <advance width="362"/>
  <unicode hex="007B"/>
  <outline>
    <contour>
      <point x="323" y="-244" type="curve"/>
      <point x="323" y="-179" type="line"/>
      <point x="258" y="-177"/>
      <point x="231" y="-151"/>
      <point x="231" y="-86" type="curve" smooth="yes"/>
      <point x="231" y="153" type="line" smooth="yes"/>
      <point x="231" y="221"/>
      <point x="200" y="262"/>
      <point x="129" y="275" type="curve"/>
      <point x="129" y="281" type="line"/>
      <point x="199" y="294"/>
      <point x="231" y="335"/>
      <point x="231" y="403" type="curve" smooth="yes"/>
      <point x="231" y="641" type="line" smooth="yes"/>
      <point x="231" y="706"/>
      <point x="258" y="733"/>
      <point x="323" y="735" type="curve"/>
      <point x="323" y="800" type="line"/>
      <point x="219" y="800"/>
      <point x="152" y="749"/>
      <point x="152" y="643" type="curve" smooth="yes"/>
      <point x="152" y="403" type="line" smooth="yes"/>
      <point x="152" y="336"/>
      <point x="111" y="311"/>
      <point x="30" y="310" type="curve"/>
      <point x="30" y="245" type="line"/>
      <point x="111" y="245"/>
      <point x="152" y="219"/>
      <point x="152" y="151" type="curve" smooth="yes"/>
      <point x="152" y="-85" type="line" smooth="yes"/>
      <point x="152" y="-192"/>
      <point x="218" y="-243"/>
    </contour>
  </outline>
</glyph>
<glyph name="bar.tamil" format="2">
  <advance width="551"/>
  <unicode hex="007C"/>
  <outline>
    <contour>
      <point x="238" y="-244" type="line"/>
      <point x="313" y="-244" type="line"/>
      <point x="313" y="800" type="line"/>
      <point x="238" y="800" type="line"/>
    </contour>
  </outline>
</glyph>
<glyph name="uni00B2" format="2">
  <advance width="274"/>
  <unicode hex="00B2"/>
  <outline>
    <contour>
      <point x="15" y="369" type="line"/>
      <point x="260" y="369" type="line"/>
      <point x="260" y="426" type="line"/>
      <point x="88" y="426" type="line"/>
      <point x="141" y="485" type="line" smooth="yes"/>
      <point x="226" y="577"/>
      <point x="259" y="627"/>
      <point x="259" y="688" type="curve" smooth="yes"/>
      <point x="259" y="762"/>
      <point x="208" y="807"/>
      <point x="136" y="807" type="curve" smooth="yes"/>
      <point x="90" y="807"/>
      <point x="56" y="791"/>
      <point x="21" y="768" type="curve"/>
      <point x="52" y="721" type="line"/>
      <point x="78" y="739"/>
      <point x="99" y="748"/>
      <point x="130" y="748" type="curve" smooth="yes"/>
      <point x="165" y="748"/>
      <point x="191" y="724"/>
      <point x="191" y="683" type="curve" smooth="yes"/>
      <point x="191" y="630"/>
      <point x="164" y="594"/>
      <point x="107" y="529" type="curve" smooth="yes"/>
      <point x="15" y="425" type="line"/>
    </contour>
  </outline>
</glyph>
<glyph name="uni00B3" format="2">
  <advance width="277"/>
  <unicode hex="00B3"/>
  <outline>
    <contour>
      <point x="118" y="361" type="curve" smooth="yes"/>
      <point x="202" y="361"/>
      <point x="260" y="408"/>
      <point x="260" y="483" type="curve" smooth="yes"/>
      <point x="260" y="541"/>
      <point x="233" y="576"/>
      <point x="180" y="592" type="curve"/>
      <point x="180" y="596" type="line"/>
      <point x="223" y="613"/>
      <point x="247" y="649"/>
      <point x="247" y="697" type="curve" smooth="yes"/>
      <point x="247" y="766"/>
      <point x="201" y="807"/>
      <point x="127" y="807" type="curve" smooth="yes"/>
      <point x="81" y="807"/>
      <point x="46" y="791"/>
      <point x="12" y="768" type="curve"/>
      <point x="44" y="721" type="line"/>
      <point x="69" y="738"/>
      <point x="93" y="748"/>
      <point x="121" y="748" type="curve" smooth="yes"/>
      <point x="161" y="748"/>
      <point x="184" y="726"/>
      <point x="184" y="689" type="curve" smooth="yes"/>
      <point x="184" y="645"/>
      <point x="156" y="617"/>
      <point x="105" y="617" type="curve" smooth="yes"/>
      <point x="73" y="617" type="line"/>
      <point x="73" y="562" type="line"/>
      <point x="107" y="562" type="line" smooth="yes"/>
      <point x="165" y="562"/>
      <point x="194" y="537"/>
      <point x="194" y="487" type="curve" smooth="yes"/>
      <point x="194" y="447"/>
      <point x="171" y="421"/>
      <point x="118" y="421" type="curve" smooth="yes"/>
      <point x="72" y="421"/>
      <point x="44" y="430"/>
      <point x="15" y="443" type="curve"/>
      <point x="15" y="379" type="line"/>
      <point x="47" y="368"/>
      <point x="75" y="361"/>
    </contour>
  </outline>
</glyph>
<glyph name="uni0951" format="2">
  <unicode hex="0951"/>
  <outline>
    <contour>
      <point x="-312" y="870" type="line"/>
      <point x="-312" y="659" type="line"/>
      <point x="-244" y="659" type="line"/>
      <point x="-244" y="870" type="line"/>
    </contour>
  </outline>
</glyph>
<glyph name="uni0952" format="2">
  <unicode hex="0952"/>
  <outline>
    <contour>
      <point x="-80" y="-179" type="line"/>
      <point x="-80" y="-113" type="line"/>
      <point x="-476" y="-113" type="line"/>
      <point x="-476" y="-179" type="line"/>
    </contour>
  </outline>
</glyph>
<glyph name="danda.tamil" format="2">
  <advance width="282"/>
  <unicode hex="0964"/>
  <outline>
    <contour>
      <point x="135" y="-49" type="line"/>
      <point x="214" y="-49" type="line"/>
      <point x="214" y="603" type="line"/>
      <point x="135" y="603" type="line"/>
    </contour>
  </outline>
</glyph>
<glyph name="dbldanda.tamil" format="2">
  <advance width="472"/>
  <unicode hex="0965"/>
  <outline>
    <contour>
      <point x="325" y="-49" type="line"/>
      <point x="404" y="-49" type="line"/>
      <point x="404" y="603" type="line"/>
      <point x="325" y="603" type="line"/>
    </contour>
    <contour>
      <point x="135" y="-49" type="line"/>
      <point x="214" y="-49" type="line"/>
      <point x="214" y="603" type="line"/>
      <point x="135" y="603" type="line"/>
    </contour>
  </outline>
</glyph>
<glyph name="anusvaratamil" format="2">
  <advance width="260"/>
  <unicode hex="0B82"/>
  <outline>
    <contour>
      <point x="37" y="722" type="curve" smooth="yes"/>
      <point x="37" y="643"/>
      <point x="75" y="602"/>
      <point x="130" y="602" type="curve" smooth="yes"/>
      <point x="185" y="602"/>
      <point x="223" y="643"/>
      <point x="223" y="722" type="curve" smooth="yes"/>
      <point x="223" y="801"/>
      <point x="185" y="843"/>
      <point x="130" y="843" type="curve" smooth="yes"/>
      <point x="75" y="843"/>
      <point x="37" y="801"/>
    </contour>
    <contour>
      <point x="89" y="722" type="curve" smooth="yes"/>
      <point x="89" y="766"/>
      <point x="106" y="785"/>
      <point x="130" y="785" type="curve" smooth="yes"/>
      <point x="154" y="785"/>
      <point x="171" y="766"/>
      <point x="171" y="722" type="curve" smooth="yes"/>
      <point x="171" y="678"/>
      <point x="154" y="660"/>
      <point x="130" y="660" type="curve" smooth="yes"/>
      <point x="106" y="660"/>
      <point x="89" y="678"/>
    </contour>
  </outline>
</glyph>
<glyph name="visargatamil" format="2">
  <advance width="683"/>
  <unicode hex="0B83"/>
  <outline>
    <contour>
      <point x="174" y="-12" type="curve" smooth="yes"/>
      <point x="258" y="-12"/>
      <point x="311" y="51"/>
      <point x="311" y="172" type="curve" smooth="yes"/>
      <point x="311" y="292"/>
      <point x="261" y="355"/>
      <point x="174" y="355" type="curve" smooth="yes"/>
      <point x="89" y="355"/>
      <point x="36" y="291"/>
      <point x="36" y="172" type="curve" smooth="yes"/>
      <point x="36" y="52"/>
      <point x="84" y="-12"/>
    </contour>
    <contour>
      <point x="174" y="55" type="curve" smooth="yes"/>
      <point x="137" y="55"/>
      <point x="111" y="89"/>
      <point x="111" y="171" type="curve" smooth="yes"/>
      <point x="111" y="252"/>
      <point x="137" y="288"/>
      <point x="173" y="288" type="curve" smooth="yes"/>
      <point x="209" y="288"/>
      <point x="236" y="256"/>
      <point x="236" y="173" type="curve" smooth="yes"/>
      <point x="236" y="89"/>
      <point x="210" y="55"/>
    </contour>
    <contour>
      <point x="509" y="-12" type="curve" smooth="yes"/>
      <point x="595" y="-12"/>
      <point x="646" y="51"/>
      <point x="646" y="172" type="curve" smooth="yes"/>
      <point x="646" y="292"/>
      <point x="596" y="355"/>
      <point x="509" y="355" type="curve" smooth="yes"/>
      <point x="424" y="355"/>
      <point x="371" y="291"/>
      <point x="371" y="172" type="curve" smooth="yes"/>
      <point x="371" y="52"/>
      <point x="419" y="-12"/>
    </contour>
    <contour>
      <point x="509" y="55" type="curve" smooth="yes"/>
      <point x="472" y="55"/>
      <point x="446" y="89"/>
      <point x="446" y="171" type="curve" smooth="yes"/>
      <point x="446" y="252"/>
      <point x="472" y="288"/>
      <point x="508" y="288" type="curve" smooth="yes"/>
      <point x="544" y="288"/>
      <point x="571" y="256"/>
      <point x="571" y="173" type="curve" smooth="yes"/>
      <point x="571" y="89"/>
      <point x="545" y="55"/>
    </contour>
    <contour>
      <point x="340" y="476" type="curve" smooth="yes"/>
      <point x="427" y="476"/>
      <point x="478" y="540"/>
      <point x="478" y="659" type="curve" smooth="yes"/>
      <point x="478" y="779"/>
      <point x="430" y="843"/>
      <point x="340" y="843" type="curve" smooth="yes"/>
      <point x="256" y="843"/>
      <point x="203" y="780"/>
      <point x="203" y="659" type="curve" smooth="yes"/>
      <point x="203" y="541"/>
      <point x="253" y="476"/>
    </contour>
    <contour>
      <point x="341" y="543" type="curve" smooth="yes"/>
      <point x="305" y="543"/>
      <point x="278" y="575"/>
      <point x="278" y="658" type="curve" smooth="yes"/>
      <point x="278" y="742"/>
      <point x="304" y="776"/>
      <point x="340" y="776" type="curve" smooth="yes"/>
      <point x="377" y="776"/>
      <point x="403" y="741"/>
      <point x="403" y="660" type="curve" smooth="yes"/>
      <point x="403" y="579"/>
      <point x="377" y="543"/>
    </contour>
  </outline>
</glyph>
<glyph name="atamil" format="2">
  <advance width="843"/>
  <unicode hex="0B85"/>
  <outline>
    <contour>
      <point x="258" y="-120" type="curve" smooth="yes"/>
      <point x="269" y="-120" type="line" smooth="yes"/>
      <point x="439" y="-120"/>
      <point x="560" y="-24"/>
      <point x="595" y="130" type="curve"/>
      <point x="599" y="152" type="line"/>
      <point x="604" y="184"/>
      <point x="607" y="218"/>
      <point x="607" y="253" type="curve" smooth="yes"/>
      <point x="607" y="421"/>
      <point x="531" y="566"/>
      <point x="382" y="566" type="curve" smooth="yes"/>
      <point x="285" y="566"/>
      <point x="212" y="511"/>
      <point x="212" y="395" type="curve" smooth="yes"/>
      <point x="212" y="292"/>
      <point x="270" y="245"/>
      <point x="340" y="245" type="curve" smooth="yes"/>
      <point x="423" y="245"/>
      <point x="466" y="300"/>
      <point x="466" y="388" type="curve" smooth="yes"/>
      <point x="466" y="451"/>
      <point x="442" y="487"/>
      <point x="409" y="527" type="curve"/>
      <point x="358" y="511" type="line"/>
      <point x="380" y="487"/>
      <point x="398" y="447"/>
      <point x="398" y="396" type="curve" smooth="yes"/>
      <point x="398" y="328"/>
      <point x="374" y="309"/>
      <point x="344" y="309" type="curve" smooth="yes"/>
      <point x="306" y="309"/>
      <point x="284" y="339"/>
      <point x="284" y="398" type="curve" smooth="yes"/>
      <point x="284" y="469"/>
      <point x="322" y="502"/>
      <point x="367" y="502" type="curve" smooth="yes"/>
      <point x="379" y="502"/>
      <point x="395" y="501"/>
      <point x="406" y="499" type="curve"/>
      <point x="495" y="478"/>
      <point x="531" y="378"/>
      <point x="531" y="253" type="curve" smooth="yes"/>
      <point x="531" y="217"/>
      <point x="528" y="183"/>
      <point x="521" y="150" type="curve"/>
      <point x="520" y="131" type="line"/>
      <point x="491" y="29"/>
      <point x="413" y="-52"/>
      <point x="265" y="-52" type="curve" smooth="yes"/>
      <point x="258" y="-52" type="line" smooth="yes"/>
      <point x="157" y="-52"/>
      <point x="101" y="-8"/>
      <point x="101" y="56" type="curve" smooth="yes"/>
      <point x="101" y="74"/>
      <point x="106" y="87"/>
      <point x="117" y="96" type="curve" smooth="yes"/>
      <point x="127" y="104"/>
      <point x="137" y="108"/>
      <point x="184" y="108" type="curve" smooth="yes"/>
      <point x="700" y="108" type="line"/>
      <point x="700" y="175" type="line"/>
      <point x="187" y="175" type="line" smooth="yes"/>
      <point x="120" y="175"/>
      <point x="92" y="168"/>
      <point x="66" y="151" type="curve" smooth="yes"/>
      <point x="39" y="133"/>
      <point x="23" y="104"/>
      <point x="23" y="60" type="curve" smooth="yes"/>
      <point x="23" y="-46"/>
      <point x="104" y="-120"/>
    </contour>
    <contour>
      <point x="696" y="-154" type="line"/>
      <point x="775" y="-154" type="line"/>
      <point x="775" y="554" type="line"/>
      <point x="696" y="554" type="line"/>
    </contour>
  </outline>
</glyph>
<glyph name="aatamil" format="2">
  <advance width="987"/>
  <unicode hex="0B86"/>
  <outline>
    <contour>
      <point x="258" y="-120" type="curve" smooth="yes"/>
      <point x="269" y="-120" type="line" smooth="yes"/>
      <point x="439" y="-120"/>
      <point x="560" y="-24"/>
      <point x="595" y="130" type="curve"/>
      <point x="599" y="152" type="line"/>
      <point x="604" y="184"/>
      <point x="607" y="218"/>
      <point x="607" y="253" type="curve" smooth="yes"/>
      <point x="607" y="421"/>
      <point x="531" y="566"/>
      <point x="382" y="566" type="curve" smooth="yes"/>
      <point x="285" y="566"/>
      <point x="212" y="511"/>
      <point x="212" y="395" type="curve" smooth="yes"/>
      <point x="212" y="292"/>
      <point x="270" y="245"/>
      <point x="340" y="245" type="curve" smooth="yes"/>
      <point x="423" y="245"/>
      <point x="466" y="300"/>
      <point x="466" y="388" type="curve" smooth="yes"/>
      <point x="466" y="451"/>
      <point x="442" y="487"/>
      <point x="409" y="527" type="curve"/>
      <point x="358" y="511" type="line"/>
      <point x="380" y="487"/>
      <point x="398" y="447"/>
      <point x="398" y="396" type="curve" smooth="yes"/>
      <point x="398" y="328"/>
      <point x="374" y="309"/>
      <point x="344" y="309" type="curve" smooth="yes"/>
      <point x="306" y="309"/>
      <point x="284" y="339"/>
      <point x="284" y="398" type="curve" smooth="yes"/>
      <point x="284" y="469"/>
      <point x="322" y="502"/>
      <point x="367" y="502" type="curve" smooth="yes"/>
      <point x="379" y="502"/>
      <point x="395" y="501"/>
      <point x="406" y="499" type="curve"/>
      <point x="495" y="478"/>
      <point x="531" y="378"/>
      <point x="531" y="253" type="curve" smooth="yes"/>
      <point x="531" y="217"/>
      <point x="528" y="183"/>
      <point x="521" y="150" type="curve"/>
      <point x="520" y="131" type="line"/>
      <point x="491" y="29"/>
      <point x="413" y="-52"/>
      <point x="265" y="-52" type="curve" smooth="yes"/>
      <point x="258" y="-52" type="line" smooth="yes"/>
      <point x="157" y="-52"/>
      <point x="101" y="-8"/>
      <point x="101" y="56" type="curve" smooth="yes"/>
      <point x="101" y="74"/>
      <point x="106" y="87"/>
      <point x="117" y="96" type="curve" smooth="yes"/>
      <point x="127" y="104"/>
      <point x="137" y="108"/>
      <point x="184" y="108" type="curve" smooth="yes"/>
      <point x="700" y="108" type="line"/>
      <point x="700" y="175" type="line"/>
      <point x="187" y="175" type="line" smooth="yes"/>
      <point x="120" y="175"/>
      <point x="92" y="168"/>
      <point x="66" y="151" type="curve" smooth="yes"/>
      <point x="39" y="133"/>
      <point x="23" y="104"/>
      <point x="23" y="60" type="curve" smooth="yes"/>
      <point x="23" y="-46"/>
      <point x="104" y="-120"/>
    </contour>
    <contour>
      <point x="672" y="-321" type="curve" smooth="yes"/>
      <point x="692" y="-321" type="line" smooth="yes"/>
      <point x="867" y="-321"/>
      <point x="984" y="-226"/>
      <point x="984" y="-59" type="curve" smooth="yes"/>
      <point x="984" y="53"/>
      <point x="919" y="99"/>
      <point x="843" y="99" type="curve" smooth="yes"/>
      <point x="804" y="99"/>
      <point x="777" y="84"/>
      <point x="756" y="69" type="curve"/>
      <point x="761" y="4" type="line"/>
      <point x="780" y="20"/>
      <point x="803" y="32"/>
      <point x="831" y="32" type="curve" smooth="yes"/>
      <point x="880" y="32"/>
      <point x="906" y="-2"/>
      <point x="906" y="-67" type="curve" smooth="yes"/>
      <point x="906" y="-188"/>
      <point x="826" y="-254"/>
      <point x="680" y="-254" type="curve" smooth="yes"/>
      <point x="673" y="-254" type="line" smooth="yes"/>
      <point x="577" y="-254"/>
      <point x="544" y="-210"/>
      <point x="544" y="-167" type="curve" smooth="yes"/>
      <point x="544" y="-131"/>
      <point x="570" y="-110"/>
      <point x="599" y="-110" type="curve" smooth="yes"/>
      <point x="618" y="-110"/>
      <point x="638" y="-113"/>
      <point x="653" y="-118" type="curve"/>
      <point x="669" y="-53" type="line"/>
      <point x="649" y="-46"/>
      <point x="618" y="-43"/>
      <point x="599" y="-43" type="curve" smooth="yes"/>
      <point x="509" y="-43"/>
      <point x="470" y="-102"/>
      <point x="470" y="-168" type="curve" smooth="yes"/>
      <point x="470" y="-263"/>
      <point x="546" y="-321"/>
    </contour>
    <contour>
      <point x="696" y="-121" type="line"/>
      <point x="775" y="-121" type="line"/>
      <point x="775" y="554" type="line"/>
      <point x="696" y="554" type="line"/>
    </contour>
  </outline>
</glyph>
<glyph name="itamil" format="2">
  <advance width="844"/>
  <unicode hex="0B87"/>
  <outline>
    <contour>
      <point x="213" y="-321" type="curve" smooth="yes"/>
      <point x="282" y="-321"/>
      <point x="335" y="-298"/>
      <point x="384" y="-267" type="curve"/>
      <point x="488" y="-207"/>
      <point x="549" y="-85"/>
      <point x="568" y="36" type="curve"/>
      <point x="590" y="105"/>
      <point x="597" y="176"/>
      <point x="597" y="244" type="curve" smooth="yes"/>
      <point x="597" y="444"/>
      <point x="523" y="566"/>
      <point x="380" y="566" type="curve" smooth="yes"/>
      <point x="288" y="566"/>
      <point x="211" y="511"/>
      <point x="211" y="397" type="curve" smooth="yes"/>
      <point x="211" y="291"/>
      <point x="268" y="248"/>
      <point x="341" y="248" type="curve" smooth="yes"/>
      <point x="424" y="248"/>
      <point x="465" y="300"/>
      <point x="465" y="387" type="curve" smooth="yes"/>
      <point x="465" y="458"/>
      <point x="441" y="491"/>
      <point x="414" y="527" type="curve"/>
      <point x="357" y="512" type="line"/>
      <point x="385" y="476"/>
      <point x="397" y="441"/>
      <point x="397" y="399" type="curve" smooth="yes"/>
      <point x="397" y="328"/>
      <point x="374" y="312"/>
      <point x="342" y="312" type="curve" smooth="yes"/>
      <point x="305" y="312"/>
      <point x="283" y="339"/>
      <point x="283" y="400" type="curve" smooth="yes"/>
      <point x="283" y="466"/>
      <point x="319" y="502"/>
      <point x="368" y="502" type="curve" smooth="yes"/>
      <point x="381" y="502"/>
      <point x="388" y="501"/>
      <point x="397" y="500" type="curve"/>
      <point x="423" y="498" type="line"/>
      <point x="479" y="476"/>
      <point x="518" y="401"/>
      <point x="518" y="240" type="curve" smooth="yes"/>
      <point x="518" y="193"/>
      <point x="515" y="142"/>
      <point x="506" y="90" type="curve" smooth="yes"/>
      <point x="483" y="-45"/>
      <point x="424" y="-179"/>
      <point x="319" y="-231" type="curve"/>
      <point x="289" y="-247"/>
      <point x="266" y="-254"/>
      <point x="223" y="-254" type="curve" smooth="yes"/>
      <point x="149" y="-254"/>
      <point x="102" y="-209"/>
      <point x="102" y="-128" type="curve" smooth="yes"/>
      <point x="102" y="-67"/>
      <point x="120" y="-16"/>
      <point x="159" y="17" type="curve"/>
      <point x="202" y="61"/>
      <point x="270" y="84"/>
      <point x="354" y="84" type="curve" smooth="yes"/>
      <point x="427" y="84"/>
      <point x="488" y="66"/>
      <point x="531" y="31" type="curve"/>
      <point x="580" y="-2"/>
      <point x="604" y="-58"/>
      <point x="604" y="-128" type="curve" smooth="yes"/>
      <point x="604" y="-209"/>
      <point x="556" y="-254"/>
      <point x="482" y="-254" type="curve" smooth="yes"/>
      <point x="436" y="-254"/>
      <point x="410" y="-243"/>
      <point x="379" y="-226" type="curve"/>
      <point x="292" y="-171"/>
      <point x="218" y="-53"/>
      <point x="180" y="83" type="curve"/>
      <point x="150" y="181"/>
      <point x="132" y="269"/>
      <point x="132" y="387" type="curve" smooth="yes"/>
      <point x="132" y="634"/>
      <point x="249" y="773"/>
      <point x="425" y="773" type="curve" smooth="yes"/>
      <point x="514" y="773"/>
      <point x="576" y="739"/>
      <point x="617" y="687" type="curve" smooth="yes"/>
      <point x="687" y="599"/>
      <point x="697" y="459"/>
      <point x="697" y="317" type="curve" smooth="yes"/>
      <point x="697" y="0" type="line"/>
      <point x="776" y="0" type="line"/>
      <point x="776" y="355" type="line" smooth="yes"/>
      <point x="776" y="517"/>
      <point x="757" y="643"/>
      <point x="677" y="737" type="curve" smooth="yes"/>
      <point x="623" y="801"/>
      <point x="536" y="843"/>
      <point x="432" y="843" type="curve" smooth="yes"/>
      <point x="178" y="843"/>
      <point x="53" y="639"/>
      <point x="53" y="396" type="curve" smooth="yes"/>
      <point x="53" y="269"/>
      <point x="76" y="128"/>
      <point x="124" y="26" type="curve"/>
      <point x="159" y="-85"/>
      <point x="232" y="-212"/>
      <point x="321" y="-266" type="curve"/>
      <point x="370" y="-300"/>
      <point x="423" y="-321"/>
      <point x="489" y="-321" type="curve" smooth="yes"/>
      <point x="614" y="-321"/>
      <point x="680" y="-250"/>
      <point x="680" y="-125" type="curve" smooth="yes"/>
      <point x="680" y="-24"/>
      <point x="633" y="57"/>
      <point x="547" y="104" type="curve"/>
      <point x="495" y="134"/>
      <point x="429" y="151"/>
      <point x="353" y="151" type="curve" smooth="yes"/>
      <point x="262" y="151"/>
      <point x="184" y="126"/>
      <point x="128" y="83" type="curve"/>
      <point x="60" y="33"/>
      <point x="26" y="-40"/>
      <point x="26" y="-124" type="curve" smooth="yes"/>
      <point x="26" y="-250"/>
      <point x="92" y="-321"/>
    </contour>
  </outline>
</glyph>
<glyph name="iitamil" format="2">
  <advance width="563"/>
  <unicode hex="0B88"/>
  <outline>
    <contour>
      <point x="67" y="0" type="line"/>
      <point x="146" y="0" type="line"/>
      <point x="146" y="487" type="line"/>
      <point x="309" y="487" type="line"/>
      <point x="309" y="0" type="line"/>
      <point x="388" y="0" type="line"/>
      <point x="388" y="487" type="line"/>
      <point x="541" y="487" type="line"/>
      <point x="541" y="554" type="line"/>
      <point x="67" y="554" type="line"/>
    </contour>
    <contour>
      <point x="227" y="219" type="curve" smooth="yes"/>
      <point x="259" y="219"/>
      <point x="280" y="242"/>
      <point x="280" y="278" type="curve" smooth="yes"/>
      <point x="280" y="314"/>
      <point x="259" y="337"/>
      <point x="227" y="337" type="curve" smooth="yes"/>
      <point x="195" y="337"/>
      <point x="174" y="314"/>
      <point x="174" y="278" type="curve" smooth="yes"/>
      <point x="174" y="242"/>
      <point x="195" y="219"/>
    </contour>
    <contour>
      <point x="469" y="219" type="curve" smooth="yes"/>
      <point x="501" y="219"/>
      <point x="522" y="241"/>
      <point x="522" y="278" type="curve" smooth="yes"/>
      <point x="522" y="314"/>
      <point x="501" y="337"/>
      <point x="469" y="337" type="curve" smooth="yes"/>
      <point x="437" y="337"/>
      <point x="416" y="314"/>
      <point x="416" y="278" type="curve" smooth="yes"/>
      <point x="416" y="241"/>
      <point x="437" y="219"/>
    </contour>
  </outline>
</glyph>
<glyph name="utamil" format="2">
  <advance width="770"/>
  <unicode hex="0B89"/>
  <outline>
    <contour>
      <point x="218" y="566" type="curve" smooth="yes"/>
      <point x="110" y="566"/>
      <point x="33" y="512"/>
      <point x="33" y="397" type="curve" smooth="yes"/>
      <point x="33" y="292"/>
      <point x="90" y="248"/>
      <point x="163" y="248" type="curve" smooth="yes"/>
      <point x="246" y="248"/>
      <point x="287" y="300"/>
      <point x="287" y="388" type="curve" smooth="yes"/>
      <point x="287" y="456"/>
      <point x="263" y="495"/>
      <point x="235" y="527" type="curve"/>
      <point x="179" y="512" type="line"/>
      <point x="206" y="479"/>
      <point x="219" y="437"/>
      <point x="219" y="391" type="curve" smooth="yes"/>
      <point x="219" y="328"/>
      <point x="196" y="312"/>
      <point x="164" y="312" type="curve" smooth="yes"/>
      <point x="127" y="312"/>
      <point x="105" y="339"/>
      <point x="105" y="400" type="curve" smooth="yes"/>
      <point x="105" y="464"/>
      <point x="142" y="502"/>
      <point x="192" y="502" type="curve" smooth="yes"/>
      <point x="198" y="502"/>
      <point x="205" y="502"/>
      <point x="216" y="501" type="curve"/>
      <point x="239" y="502" type="line"/>
      <point x="316" y="496"/>
      <point x="369" y="440"/>
      <point x="369" y="349" type="curve" smooth="yes"/>
      <point x="369" y="281"/>
      <point x="348" y="224"/>
      <point x="221" y="203" type="curve" smooth="yes"/>
      <point x="163" y="194" type="line" smooth="yes"/>
      <point x="81" y="181"/>
      <point x="38" y="152"/>
      <point x="38" y="96" type="curve" smooth="yes"/>
      <point x="38" y="38"/>
      <point x="73" y="0"/>
      <point x="169" y="0" type="curve" smooth="yes"/>
      <point x="754" y="0" type="line"/>
      <point x="754" y="67" type="line"/>
      <point x="158" y="67" type="line" smooth="yes"/>
      <point x="126" y="67"/>
      <point x="115" y="76"/>
      <point x="115" y="92" type="curve" smooth="yes"/>
      <point x="115" y="111"/>
      <point x="130" y="119"/>
      <point x="171" y="126" type="curve" smooth="yes"/>
      <point x="235" y="136" type="line" smooth="yes"/>
      <point x="351" y="154"/>
      <point x="448" y="208"/>
      <point x="448" y="349" type="curve" smooth="yes"/>
      <point x="448" y="455"/>
      <point x="376" y="566"/>
    </contour>
  </outline>
</glyph>
<glyph name="uutamil" format="2">
  <advance width="1143"/>
  <unicode hex="0B8A"/>
  <outline>
    <contour>
      <point x="218" y="566" type="curve" smooth="yes"/>
      <point x="110" y="566"/>
      <point x="33" y="512"/>
      <point x="33" y="397" type="curve" smooth="yes"/>
      <point x="33" y="292"/>
      <point x="90" y="248"/>
      <point x="163" y="248" type="curve" smooth="yes"/>
      <point x="246" y="248"/>
      <point x="287" y="300"/>
      <point x="287" y="388" type="curve" smooth="yes"/>
      <point x="287" y="457"/>
      <point x="263" y="495"/>
      <point x="235" y="527" type="curve"/>
      <point x="179" y="512" type="line"/>
      <point x="206" y="479"/>
      <point x="219" y="438"/>
      <point x="219" y="391" type="curve" smooth="yes"/>
      <point x="219" y="328"/>
      <point x="196" y="312"/>
      <point x="164" y="312" type="curve" smooth="yes"/>
      <point x="127" y="312"/>
      <point x="105" y="339"/>
      <point x="105" y="400" type="curve" smooth="yes"/>
      <point x="105" y="464"/>
      <point x="142" y="502"/>
      <point x="192" y="502" type="curve" smooth="yes"/>
      <point x="198" y="502"/>
      <point x="205" y="502"/>
      <point x="216" y="501" type="curve"/>
      <point x="239" y="502" type="line"/>
      <point x="316" y="496"/>
      <point x="369" y="440"/>
      <point x="369" y="349" type="curve" smooth="yes"/>
      <point x="369" y="281"/>
      <point x="348" y="224"/>
      <point x="221" y="203" type="curve" smooth="yes"/>
      <point x="163" y="194" type="line" smooth="yes"/>
      <point x="81" y="181"/>
      <point x="38" y="152"/>
      <point x="38" y="96" type="curve" smooth="yes"/>
      <point x="38" y="38"/>
      <point x="73" y="0"/>
      <point x="169" y="0" type="curve" smooth="yes"/>
      <point x="1110" y="0" type="line"/>
      <point x="1110" y="67" type="line"/>
      <point x="158" y="67" type="line" smooth="yes"/>
      <point x="126" y="67"/>
      <point x="115" y="76"/>
      <point x="115" y="92" type="curve" smooth="yes"/>
      <point x="115" y="111"/>
      <point x="130" y="119"/>
      <point x="171" y="126" type="curve" smooth="yes"/>
      <point x="235" y="136" type="line" smooth="yes"/>
      <point x="351" y="154"/>
      <point x="448" y="208"/>
      <point x="448" y="349" type="curve" smooth="yes"/>
      <point x="448" y="455"/>
      <point x="377" y="566"/>
    </contour>
    <contour>
      <point x="635" y="135" type="curve" smooth="yes"/>
      <point x="704" y="135"/>
      <point x="744" y="185"/>
      <point x="744" y="267" type="curve" smooth="yes"/>
      <point x="744" y="346"/>
      <point x="704" y="395"/>
      <point x="642" y="395" type="curve" smooth="yes"/>
      <point x="606" y="395"/>
      <point x="576" y="376"/>
      <point x="547" y="339" type="curve"/>
      <point x="554" y="284" type="line"/>
      <point x="578" y="316"/>
      <point x="605" y="336"/>
      <point x="630" y="336" type="curve" smooth="yes"/>
      <point x="658" y="336"/>
      <point x="677" y="313"/>
      <point x="677" y="262" type="curve" smooth="yes"/>
      <point x="677" y="213"/>
      <point x="660" y="192"/>
      <point x="635" y="192" type="curve" smooth="yes"/>
      <point x="599" y="192"/>
      <point x="576" y="220"/>
      <point x="576" y="321" type="curve"/>
      <point x="578" y="346" type="line" smooth="yes"/>
      <point x="586" y="436"/>
      <point x="625" y="500"/>
      <point x="698" y="500" type="curve" smooth="yes"/>
      <point x="737" y="500"/>
      <point x="774" y="477"/>
      <point x="805" y="439" type="curve"/>
      <point x="817" y="514" type="line"/>
      <point x="781" y="547"/>
      <point x="745" y="564"/>
      <point x="697" y="564" type="curve" smooth="yes"/>
      <point x="599" y="564"/>
      <point x="512" y="492"/>
      <point x="512" y="325" type="curve" smooth="yes"/>
      <point x="512" y="187"/>
      <point x="567" y="135"/>
    </contour>
    <contour>
      <point x="796" y="144" type="line"/>
      <point x="869" y="144" type="line"/>
      <point x="869" y="491" type="line"/>
      <point x="957" y="491" type="line"/>
      <point x="957" y="144" type="line"/>
      <point x="1029" y="144" type="line"/>
      <point x="1029" y="491" type="line"/>
      <point x="1110" y="491" type="line"/>
      <point x="1110" y="554" type="line"/>
      <point x="807" y="554" type="line"/>
      <point x="807" y="495" type="line"/>
      <point x="796" y="465" type="line"/>
    </contour>
  </outline>
</glyph>
<glyph name="eetamil" format="2">
  <advance width="609"/>
  <unicode hex="0B8F"/>
  <outline>
    <contour>
      <point x="308" y="-212" type="line"/>
      <point x="479" y="0" type="line"/>
      <point x="479" y="487" type="line"/>
      <point x="593" y="487" type="line"/>
      <point x="593" y="554" type="line"/>
      <point x="393" y="554" type="line"/>
      <point x="380" y="487" type="line"/>
      <point x="400" y="487" type="line"/>
      <point x="400" y="20" type="line"/>
      <point x="249" y="-165" type="line"/>
    </contour>
    <contour>
      <point x="196" y="-12" type="curve" smooth="yes"/>
      <point x="282" y="-12"/>
      <point x="330" y="46"/>
      <point x="330" y="160" type="curve" smooth="yes"/>
      <point x="330" y="265"/>
      <point x="281" y="328"/>
      <point x="203" y="328" type="curve" smooth="yes"/>
      <point x="149" y="328"/>
      <point x="106" y="295"/>
      <point x="75" y="257" type="curve"/>
      <point x="90" y="202" type="line"/>
      <point x="110" y="231"/>
      <point x="147" y="262"/>
      <point x="187" y="262" type="curve" smooth="yes"/>
      <point x="228" y="262"/>
      <point x="253" y="226"/>
      <point x="253" y="154" type="curve" smooth="yes"/>
      <point x="253" y="84"/>
      <point x="231" y="52"/>
      <point x="196" y="52" type="curve" smooth="yes"/>
      <point x="151" y="52"/>
      <point x="118" y="94"/>
      <point x="118" y="228" type="curve" smooth="yes"/>
      <point x="118" y="319"/>
      <point x="140" y="383"/>
      <point x="188" y="430" type="curve" smooth="yes"/>
      <point x="224" y="466"/>
      <point x="281" y="487"/>
      <point x="363" y="487" type="curve" smooth="yes"/>
      <point x="386" y="487" type="line"/>
      <point x="401" y="554" type="line"/>
      <point x="383" y="554" type="line" smooth="yes"/>
      <point x="255" y="554"/>
      <point x="183" y="524"/>
      <point x="130" y="472" type="curve" smooth="yes"/>
      <point x="74" y="416"/>
      <point x="46" y="335"/>
      <point x="46" y="235" type="curve" smooth="yes"/>
      <point x="46" y="54"/>
      <point x="110" y="-12"/>
    </contour>
  </outline>
</glyph>
<glyph name="aitamil" format="2">
  <advance width="770"/>
  <unicode hex="0B90"/>
  <outline>
    <contour>
      <point x="247" y="-321" type="curve" smooth="yes"/>
      <point x="346" y="-321"/>
      <point x="399" y="-267"/>
      <point x="431" y="-188" type="curve"/>
      <point x="405" y="-189" type="line"/>
      <point x="425" y="-250"/>
      <point x="462" y="-321"/>
      <point x="555" y="-321" type="curve" smooth="yes"/>
      <point x="658" y="-321"/>
      <point x="724" y="-246"/>
      <point x="724" y="-126" type="curve" smooth="yes"/>
      <point x="724" y="-52"/>
      <point x="711" y="2"/>
      <point x="694" y="46" type="curve"/>
      <point x="619" y="24" type="line"/>
      <point x="634" y="-12"/>
      <point x="645" y="-68"/>
      <point x="645" y="-121" type="curve" smooth="yes"/>
      <point x="645" y="-223"/>
      <point x="602" y="-253"/>
      <point x="557" y="-253" type="curve" smooth="yes"/>
      <point x="517" y="-253"/>
      <point x="492" y="-231"/>
      <point x="478" y="-202" type="curve" smooth="yes"/>
      <point x="459" y="-164"/>
      <point x="457" y="-122"/>
      <point x="457" y="-53" type="curve" smooth="yes"/>
      <point x="457" y="-11" type="line"/>
      <point x="378" y="-11" type="line"/>
      <point x="378" y="-76" type="line" smooth="yes"/>
      <point x="378" y="-144"/>
      <point x="373" y="-178"/>
      <point x="354" y="-207" type="curve" smooth="yes"/>
      <point x="336" y="-235"/>
      <point x="306" y="-253"/>
      <point x="254" y="-253" type="curve" smooth="yes"/>
      <point x="171" y="-253"/>
      <point x="124" y="-208"/>
      <point x="124" y="-106" type="curve" smooth="yes"/>
      <point x="124" y="-41"/>
      <point x="139" y="2"/>
      <point x="177" y="30" type="curve" smooth="yes"/>
      <point x="211" y="54"/>
      <point x="251" y="67"/>
      <point x="365" y="67" type="curve" smooth="yes"/>
      <point x="398" y="67" type="line" smooth="yes"/>
      <point x="512" y="67"/>
      <point x="581" y="82"/>
      <point x="633" y="119" type="curve" smooth="yes"/>
      <point x="691" y="161"/>
      <point x="724" y="231"/>
      <point x="724" y="335" type="curve" smooth="yes"/>
      <point x="724" y="470"/>
      <point x="664" y="566"/>
      <point x="549" y="566" type="curve" smooth="yes"/>
      <point x="474" y="566"/>
      <point x="422" y="518"/>
      <point x="401" y="428" type="curve"/>
      <point x="423" y="439" type="line"/>
      <point x="403" y="508"/>
      <point x="352" y="566"/>
      <point x="249" y="566" type="curve" smooth="yes"/>
      <point x="124" y="566"/>
      <point x="45" y="475"/>
      <point x="45" y="352" type="curve" smooth="yes"/>
      <point x="45" y="251"/>
      <point x="95" y="188"/>
      <point x="176" y="188" type="curve" smooth="yes"/>
      <point x="261" y="188"/>
      <point x="306" y="239"/>
      <point x="306" y="331" type="curve" smooth="yes"/>
      <point x="306" y="421"/>
      <point x="253" y="480"/>
      <point x="186" y="500" type="curve"/>
      <point x="128" y="459" type="line"/>
      <point x="183" y="447"/>
      <point x="237" y="403"/>
      <point x="237" y="328" type="curve" smooth="yes"/>
      <point x="237" y="277"/>
      <point x="218" y="251"/>
      <point x="178" y="251" type="curve" smooth="yes"/>
      <point x="133" y="251"/>
      <point x="117" y="291"/>
      <point x="117" y="343" type="curve" smooth="yes"/>
      <point x="117" y="406"/>
      <point x="134" y="445"/>
      <point x="168" y="475" type="curve"/>
      <point x="185" y="486" type="line"/>
      <point x="206" y="497"/>
      <point x="226" y="501"/>
      <point x="252" y="501" type="curve" smooth="yes"/>
      <point x="353" y="501"/>
      <point x="378" y="423"/>
      <point x="378" y="335" type="curve" smooth="yes"/>
      <point x="378" y="205" type="line"/>
      <point x="457" y="205" type="line"/>
      <point x="457" y="349" type="line" smooth="yes"/>
      <point x="457" y="411"/>
      <point x="463" y="442"/>
      <point x="480" y="467" type="curve" smooth="yes"/>
      <point x="494" y="487"/>
      <point x="514" y="498"/>
      <point x="544" y="498" type="curve" smooth="yes"/>
      <point x="599" y="498"/>
      <point x="644" y="451"/>
      <point x="644" y="339" type="curve" smooth="yes"/>
      <point x="644" y="263"/>
      <point x="626" y="213"/>
      <point x="592" y="182" type="curve" smooth="yes"/>
      <point x="553" y="147"/>
      <point x="508" y="134"/>
      <point x="406" y="134" type="curve" smooth="yes"/>
      <point x="360" y="134" type="line" smooth="yes"/>
      <point x="235" y="134"/>
      <point x="176" y="119"/>
      <point x="129" y="85" type="curve" smooth="yes"/>
      <point x="74" y="46"/>
      <point x="45" y="-16"/>
      <point x="45" y="-103" type="curve" smooth="yes"/>
      <point x="45" y="-227"/>
      <point x="101" y="-321"/>
    </contour>
  </outline>
</glyph>
<glyph name="otamil" format="2">
  <advance width="770"/>
  <unicode hex="0B92"/>
  <outline>
    <contour>
      <point x="593" y="64" type="curve" smooth="yes"/>
      <point x="702" y="64"/>
      <point x="728" y="167"/>
      <point x="728" y="246" type="curve" smooth="yes"/>
      <point x="728" y="325"/>
      <point x="702" y="400"/>
      <point x="657" y="453" type="curve" smooth="yes"/>
      <point x="595" y="526"/>
      <point x="506" y="566"/>
      <point x="385" y="566" type="curve" smooth="yes"/>
      <point x="278" y="566"/>
      <point x="204" y="541"/>
      <point x="145" y="495" type="curve" smooth="yes"/>
      <point x="80" y="444"/>
      <point x="42" y="368"/>
      <point x="42" y="275" type="curve" smooth="yes"/>
      <point x="42" y="140"/>
      <point x="101" y="64"/>
      <point x="184" y="64" type="curve" smooth="yes"/>
      <point x="260" y="64"/>
      <point x="312" y="110"/>
      <point x="312" y="229" type="curve" smooth="yes"/>
      <point x="312" y="333"/>
      <point x="264" y="391"/>
      <point x="197" y="391" type="curve" smooth="yes"/>
      <point x="158" y="391"/>
      <point x="123" y="375"/>
      <point x="99" y="350" type="curve"/>
      <point x="99" y="287" type="line"/>
      <point x="123" y="313"/>
      <point x="148" y="326"/>
      <point x="177" y="326" type="curve" smooth="yes"/>
      <point x="214" y="326"/>
      <point x="237" y="291"/>
      <point x="237" y="224" type="curve" smooth="yes"/>
      <point x="237" y="156"/>
      <point x="217" y="128"/>
      <point x="185" y="128" type="curve" smooth="yes"/>
      <point x="141" y="128"/>
      <point x="113" y="175"/>
      <point x="113" y="272" type="curve" smooth="yes"/>
      <point x="113" y="294"/>
      <point x="115" y="315"/>
      <point x="120" y="333" type="curve"/>
      <point x="124" y="355" type="line"/>
      <point x="168" y="456"/>
      <point x="267" y="495"/>
      <point x="385" y="495" type="curve" smooth="yes"/>
      <point x="547" y="495"/>
      <point x="650" y="408"/>
      <point x="650" y="240" type="curve" smooth="yes"/>
      <point x="650" y="176"/>
      <point x="634" y="131"/>
      <point x="592" y="131" type="curve" smooth="yes"/>
      <point x="550" y="131"/>
      <point x="538" y="170"/>
      <point x="538" y="211" type="curve" smooth="yes"/>
      <point x="538" y="254"/>
      <point x="548" y="288"/>
      <point x="564" y="326" type="curve"/>
      <point x="489" y="363" type="line"/>
      <point x="402" y="313"/>
      <point x="350" y="226"/>
      <point x="350" y="131" type="curve" smooth="yes"/>
      <point x="350" y="24"/>
      <point x="404" y="-70"/>
      <point x="537" y="-94" type="curve" smooth="yes"/>
      <point x="561" y="-98"/>
      <point x="595" y="-103"/>
      <point x="629" y="-103" type="curve" smooth="yes"/>
      <point x="684" y="-103" type="line"/>
      <point x="684" y="-37" type="line"/>
      <point x="647" y="-37" type="line" smooth="yes"/>
      <point x="549" y="-37"/>
      <point x="500" y="-22"/>
      <point x="464" y="13" type="curve" smooth="yes"/>
      <point x="436" y="41"/>
      <point x="421" y="81"/>
      <point x="421" y="134" type="curve" smooth="yes"/>
      <point x="421" y="198"/>
      <point x="447" y="260"/>
      <point x="494" y="297" type="curve"/>
      <point x="496" y="304" type="line"/>
      <point x="482" y="275"/>
      <point x="471" y="245"/>
      <point x="471" y="195" type="curve" smooth="yes"/>
      <point x="471" y="106"/>
      <point x="523" y="64"/>
    </contour>
    <contour>
      <point x="308" y="-321" type="curve" smooth="yes"/>
      <point x="428" y="-321"/>
      <point x="492" y="-262"/>
      <point x="544" y="-165" type="curve" smooth="yes"/>
      <point x="562" y="-132"/>
      <point x="582" y="-100"/>
      <point x="600" y="-78" type="curve"/>
      <point x="520" y="-61" type="line"/>
      <point x="507" y="-75"/>
      <point x="488" y="-105"/>
      <point x="477" y="-125" type="curve" smooth="yes"/>
      <point x="428" y="-217"/>
      <point x="381" y="-254"/>
      <point x="314" y="-254" type="curve" smooth="yes"/>
      <point x="263" y="-254"/>
      <point x="221" y="-227"/>
      <point x="221" y="-156" type="curve" smooth="yes"/>
      <point x="221" y="-104"/>
      <point x="242" y="-63"/>
      <point x="275" y="-17" type="curve"/>
      <point x="208" y="19" type="line"/>
      <point x="164" y="-40"/>
      <point x="143" y="-89"/>
      <point x="143" y="-156" type="curve" smooth="yes"/>
      <point x="143" y="-254"/>
      <point x="202" y="-321"/>
    </contour>
  </outline>
</glyph>
<glyph name="ootamil" format="2">
  <advance width="770"/>
  <unicode hex="0B93"/>
  <outline>
    <contour>
      <point x="593" y="64" type="curve" smooth="yes"/>
      <point x="702" y="64"/>
      <point x="728" y="167"/>
      <point x="728" y="246" type="curve" smooth="yes"/>
      <point x="728" y="325"/>
      <point x="702" y="400"/>
      <point x="657" y="453" type="curve" smooth="yes"/>
      <point x="595" y="526"/>
      <point x="506" y="566"/>
      <point x="385" y="566" type="curve" smooth="yes"/>
      <point x="278" y="566"/>
      <point x="204" y="541"/>
      <point x="145" y="495" type="curve" smooth="yes"/>
      <point x="80" y="444"/>
      <point x="42" y="368"/>
      <point x="42" y="275" type="curve" smooth="yes"/>
      <point x="42" y="140"/>
      <point x="101" y="64"/>
      <point x="184" y="64" type="curve" smooth="yes"/>
      <point x="260" y="64"/>
      <point x="312" y="110"/>
      <point x="312" y="229" type="curve" smooth="yes"/>
      <point x="312" y="333"/>
      <point x="264" y="391"/>
      <point x="197" y="391" type="curve" smooth="yes"/>
      <point x="158" y="391"/>
      <point x="123" y="375"/>
      <point x="99" y="350" type="curve"/>
      <point x="99" y="287" type="line"/>
      <point x="123" y="313"/>
      <point x="148" y="326"/>
      <point x="177" y="326" type="curve" smooth="yes"/>
      <point x="214" y="326"/>
      <point x="237" y="291"/>
      <point x="237" y="224" type="curve" smooth="yes"/>
      <point x="237" y="156"/>
      <point x="217" y="128"/>
      <point x="185" y="128" type="curve" smooth="yes"/>
      <point x="141" y="128"/>
      <point x="113" y="175"/>
      <point x="113" y="272" type="curve" smooth="yes"/>
      <point x="113" y="294"/>
      <point x="115" y="315"/>
      <point x="120" y="333" type="curve"/>
      <point x="124" y="355" type="line"/>
      <point x="168" y="456"/>
      <point x="267" y="495"/>
      <point x="385" y="495" type="curve" smooth="yes"/>
      <point x="547" y="495"/>
      <point x="650" y="408"/>
      <point x="650" y="240" type="curve" smooth="yes"/>
      <point x="650" y="176"/>
      <point x="634" y="131"/>
      <point x="592" y="131" type="curve" smooth="yes"/>
      <point x="550" y="131"/>
      <point x="538" y="170"/>
      <point x="538" y="211" type="curve" smooth="yes"/>
      <point x="538" y="254"/>
      <point x="548" y="288"/>
      <point x="564" y="326" type="curve"/>
      <point x="489" y="363" type="line"/>
      <point x="402" y="313"/>
      <point x="350" y="226"/>
      <point x="350" y="131" type="curve" smooth="yes"/>
      <point x="350" y="24"/>
      <point x="404" y="-70"/>
      <point x="537" y="-94" type="curve" smooth="yes"/>
      <point x="561" y="-98"/>
      <point x="595" y="-103"/>
      <point x="629" y="-103" type="curve" smooth="yes"/>
      <point x="684" y="-103" type="line"/>
      <point x="684" y="-37" type="line"/>
      <point x="647" y="-37" type="line" smooth="yes"/>
      <point x="549" y="-37"/>
      <point x="500" y="-22"/>
      <point x="464" y="13" type="curve" smooth="yes"/>
      <point x="436" y="41"/>
      <point x="421" y="81"/>
      <point x="421" y="134" type="curve" smooth="yes"/>
      <point x="421" y="198"/>
      <point x="447" y="260"/>
      <point x="494" y="297" type="curve"/>
      <point x="496" y="304" type="line"/>
      <point x="482" y="275"/>
      <point x="471" y="245"/>
      <point x="471" y="195" type="curve" smooth="yes"/>
      <point x="471" y="106"/>
      <point x="523" y="64"/>
    </contour>
    <contour>
      <point x="242" y="-7" type="curve" smooth="yes"/>
      <point x="162" y="-7"/>
      <point x="117" y="-67"/>
      <point x="117" y="-148" type="curve" smooth="yes"/>
      <point x="117" y="-201"/>
      <point x="134" y="-244"/>
      <point x="166" y="-274" type="curve" smooth="yes"/>
      <point x="197" y="-304"/>
      <point x="241" y="-321"/>
      <point x="302" y="-321" type="curve" smooth="yes"/>
      <point x="312" y="-321" type="line" smooth="yes"/>
      <point x="428" y="-321"/>
      <point x="492" y="-262"/>
      <point x="544" y="-165" type="curve" smooth="yes"/>
      <point x="562" y="-132"/>
      <point x="582" y="-100"/>
      <point x="600" y="-78" type="curve"/>
      <point x="520" y="-61" type="line"/>
      <point x="507" y="-75"/>
      <point x="488" y="-104"/>
      <point x="477" y="-125" type="curve" smooth="yes"/>
      <point x="435" y="-207"/>
      <point x="387" y="-254"/>
      <point x="330" y="-257" type="curve"/>
      <point x="279" y="-257" type="line"/>
      <point x="244" y="-256"/>
      <point x="190" y="-228"/>
      <point x="190" y="-152" type="curve" smooth="yes"/>
      <point x="190" y="-98"/>
      <point x="212" y="-71"/>
      <point x="243" y="-71" type="curve" smooth="yes"/>
      <point x="276" y="-71"/>
      <point x="292" y="-99"/>
      <point x="292" y="-148" type="curve" smooth="yes"/>
      <point x="292" y="-193"/>
      <point x="280" y="-233"/>
      <point x="258" y="-269" type="curve"/>
      <point x="331" y="-277" type="line"/>
      <point x="351" y="-242"/>
      <point x="367" y="-196"/>
      <point x="367" y="-142" type="curve" smooth="yes"/>
      <point x="367" y="-70"/>
      <point x="329" y="-7"/>
    </contour>
  </outline>
</glyph>
<glyph name="katamil" format="2">
  <advance width="631"/>
  <unicode hex="0B95"/>
  <outline>
    <contour>
      <point x="203" y="-12" type="curve" smooth="yes"/>
      <point x="269" y="-12"/>
      <point x="320" y="6"/>
      <point x="351" y="57" type="curve" smooth="yes"/>
      <point x="372" y="92"/>
      <point x="384" y="137"/>
      <point x="384" y="227" type="curve" smooth="yes"/>
      <point x="384" y="487" type="line"/>
      <point x="519" y="487" type="line"/>
      <point x="519" y="554" type="line"/>
      <point x="117" y="554" type="line"/>
      <point x="117" y="286" type="line"/>
      <point x="189" y="302" type="line"/>
      <point x="189" y="487" type="line"/>
      <point x="307" y="487" type="line"/>
      <point x="307" y="204" type="line" smooth="yes"/>
      <point x="307" y="88"/>
      <point x="269" y="55"/>
      <point x="210" y="55" type="curve" smooth="yes"/>
      <point x="152" y="55"/>
      <point x="118" y="87"/>
      <point x="118" y="153" type="curve" smooth="yes"/>
      <point x="118" y="193"/>
      <point x="129" y="220"/>
      <point x="149" y="237" type="curve" smooth="yes"/>
      <point x="172" y="256"/>
      <point x="206" y="262"/>
      <point x="257" y="262" type="curve" smooth="yes"/>
      <point x="369" y="262" type="line" smooth="yes"/>
      <point x="463" y="262"/>
      <point x="515" y="238"/>
      <point x="515" y="155" type="curve" smooth="yes"/>
      <point x="515" y="79"/>
      <point x="485" y="58"/>
      <point x="436" y="58" type="curve" smooth="yes"/>
      <point x="421" y="58"/>
      <point x="405" y="61"/>
      <point x="391" y="65" type="curve"/>
      <point x="380" y="2" type="line"/>
      <point x="401" y="-4"/>
      <point x="425" y="-8"/>
      <point x="447" y="-8" type="curve" smooth="yes"/>
      <point x="541" y="-8"/>
      <point x="591" y="57"/>
      <point x="591" y="152" type="curve" smooth="yes"/>
      <point x="591" y="217"/>
      <point x="571" y="264"/>
      <point x="527" y="293" type="curve" smooth="yes"/>
      <point x="483" y="322"/>
      <point x="432" y="328"/>
      <point x="358" y="328" type="curve" smooth="yes"/>
      <point x="265" y="328" type="line" smooth="yes"/>
      <point x="113" y="328"/>
      <point x="39" y="265"/>
      <point x="39" y="152" type="curve" smooth="yes"/>
      <point x="39" y="47"/>
      <point x="108" y="-12"/>
    </contour>
  </outline>
</glyph>
<glyph name="jatamil" format="2">
  <advance width="770"/>
  <unicode hex="0B9C"/>
  <outline>
    <contour>
      <point x="249" y="566" type="curve" smooth="yes"/>
      <point x="124" y="566"/>
      <point x="45" y="475"/>
      <point x="45" y="352" type="curve" smooth="yes"/>
      <point x="45" y="251"/>
      <point x="95" y="188"/>
      <point x="176" y="188" type="curve" smooth="yes"/>
      <point x="261" y="188"/>
      <point x="306" y="239"/>
      <point x="306" y="331" type="curve" smooth="yes"/>
      <point x="306" y="421"/>
      <point x="253" y="480"/>
      <point x="186" y="500" type="curve"/>
      <point x="128" y="459" type="line"/>
      <point x="183" y="447"/>
      <point x="237" y="403"/>
      <point x="237" y="328" type="curve" smooth="yes"/>
      <point x="237" y="277"/>
      <point x="218" y="251"/>
      <point x="178" y="251" type="curve" smooth="yes"/>
      <point x="133" y="251"/>
      <point x="117" y="291"/>
      <point x="117" y="343" type="curve" smooth="yes"/>
      <point x="117" y="406"/>
      <point x="134" y="445"/>
      <point x="168" y="475" type="curve"/>
      <point x="185" y="486" type="line"/>
      <point x="206" y="497"/>
      <point x="226" y="501"/>
      <point x="252" y="501" type="curve" smooth="yes"/>
      <point x="353" y="501"/>
      <point x="378" y="423"/>
      <point x="378" y="335" type="curve" smooth="yes"/>
      <point x="378" y="205" type="line"/>
      <point x="457" y="205" type="line"/>
      <point x="457" y="349" type="line" smooth="yes"/>
      <point x="457" y="411"/>
      <point x="463" y="442"/>
      <point x="480" y="467" type="curve" smooth="yes"/>
      <point x="494" y="487"/>
      <point x="514" y="498"/>
      <point x="544" y="498" type="curve" smooth="yes"/>
      <point x="599" y="498"/>
      <point x="644" y="451"/>
      <point x="644" y="339" type="curve" smooth="yes"/>
      <point x="644" y="263"/>
      <point x="626" y="213"/>
      <point x="592" y="182" type="curve" smooth="yes"/>
      <point x="553" y="147"/>
      <point x="508" y="134"/>
      <point x="406" y="134" type="curve" smooth="yes"/>
      <point x="360" y="134" type="line" smooth="yes"/>
      <point x="235" y="134"/>
      <point x="176" y="119"/>
      <point x="129" y="85" type="curve" smooth="yes"/>
      <point x="74" y="46"/>
      <point x="45" y="-16"/>
      <point x="45" y="-109" type="curve" smooth="yes"/>
      <point x="45" y="-227"/>
      <point x="107" y="-321"/>
      <point x="224" y="-321" type="curve" smooth="yes"/>
      <point x="314" y="-321"/>
      <point x="374" y="-275"/>
      <point x="428" y="-170" type="curve" smooth="yes"/>
      <point x="455" y="-117"/>
      <point x="478" y="-79"/>
      <point x="514" y="-73" type="curve"/>
      <point x="523" y="-70"/>
      <point x="535" y="-69"/>
      <point x="547" y="-69" type="curve" smooth="yes"/>
      <point x="603" y="-69"/>
      <point x="644" y="-111"/>
      <point x="644" y="-178" type="curve" smooth="yes"/>
      <point x="644" y="-234"/>
      <point x="623" y="-257"/>
      <point x="592" y="-257" type="curve" smooth="yes"/>
      <point x="555" y="-257"/>
      <point x="534" y="-227"/>
      <point x="534" y="-182" type="curve" smooth="yes"/>
      <point x="534" y="-134"/>
      <point x="550" y="-99"/>
      <point x="586" y="-56" type="curve"/>
      <point x="528" y="-43" type="line"/>
      <point x="495" y="-81"/>
      <point x="465" y="-123"/>
      <point x="465" y="-182" type="curve" smooth="yes"/>
      <point x="465" y="-249"/>
      <point x="498" y="-321"/>
      <point x="591" y="-321" type="curve" smooth="yes"/>
      <point x="669" y="-321"/>
      <point x="715" y="-263"/>
      <point x="715" y="-178" type="curve" smooth="yes"/>
      <point x="715" y="-72"/>
      <point x="645" y="-7"/>
      <point x="551" y="-7" type="curve" smooth="yes"/>
      <point x="474" y="-7"/>
      <point x="423" y="-35"/>
      <point x="360" y="-148" type="curve" smooth="yes"/>
      <point x="314" y="-230"/>
      <point x="282" y="-253"/>
      <point x="228" y="-253" type="curve" smooth="yes"/>
      <point x="170" y="-253"/>
      <point x="124" y="-213"/>
      <point x="124" y="-108" type="curve" smooth="yes"/>
      <point x="124" y="-41"/>
      <point x="139" y="2"/>
      <point x="177" y="30" type="curve" smooth="yes"/>
      <point x="211" y="54"/>
      <point x="251" y="67"/>
      <point x="365" y="67" type="curve" smooth="yes"/>
      <point x="398" y="67" type="line" smooth="yes"/>
      <point x="512" y="67"/>
      <point x="581" y="82"/>
      <point x="633" y="119" type="curve" smooth="yes"/>
      <point x="691" y="161"/>
      <point x="724" y="231"/>
      <point x="724" y="335" type="curve" smooth="yes"/>
      <point x="724" y="470"/>
      <point x="664" y="566"/>
      <point x="549" y="566" type="curve" smooth="yes"/>
      <point x="474" y="566"/>
      <point x="422" y="518"/>
      <point x="401" y="428" type="curve"/>
      <point x="423" y="439" type="line"/>
      <point x="403" y="508"/>
      <point x="352" y="566"/>
    </contour>
  </outline>
</glyph>
<glyph name="nyatamil" format="2">
  <advance width="922"/>
  <unicode hex="0B9E"/>
  <outline>
    <contour>
      <point x="733" y="319" type="curve" smooth="yes"/>
      <point x="696" y="319"/>
      <point x="665" y="305"/>
      <point x="643" y="289" type="curve"/>
      <point x="647" y="221" type="line"/>
      <point x="664" y="238"/>
      <point x="688" y="251"/>
      <point x="715" y="251" type="curve" smooth="yes"/>
      <point x="765" y="251"/>
      <point x="803" y="210"/>
      <point x="803" y="72" type="curve" smooth="yes"/>
      <point x="803" y="-153"/>
      <point x="673" y="-250"/>
      <point x="490" y="-250" type="curve" smooth="yes"/>
      <point x="478" y="-250" type="line" smooth="yes"/>
      <point x="230" y="-250"/>
      <point x="128" y="-79"/>
      <point x="128" y="141" type="curve" smooth="yes"/>
      <point x="128" y="155" type="line" smooth="yes"/>
      <point x="128" y="284"/>
      <point x="164" y="403"/>
      <point x="231" y="517" type="curve"/>
      <point x="160" y="554" type="line"/>
      <point x="97" y="441"/>
      <point x="49" y="311"/>
      <point x="49" y="160" type="curve" smooth="yes"/>
      <point x="49" y="142" type="line" smooth="yes"/>
      <point x="49" y="-108"/>
      <point x="172" y="-321"/>
      <point x="474" y="-321" type="curve" smooth="yes"/>
      <point x="490" y="-321" type="line" smooth="yes"/>
      <point x="694" y="-321"/>
      <point x="883" y="-213"/>
      <point x="883" y="75" type="curve" smooth="yes"/>
      <point x="883" y="247"/>
      <point x="818" y="319"/>
    </contour>
    <contour>
      <point x="384" y="-12" type="curve" smooth="yes"/>
      <point x="470" y="-12"/>
      <point x="518" y="46"/>
      <point x="518" y="160" type="curve" smooth="yes"/>
      <point x="518" y="265"/>
      <point x="469" y="328"/>
      <point x="391" y="328" type="curve" smooth="yes"/>
      <point x="337" y="328"/>
      <point x="294" y="295"/>
      <point x="263" y="257" type="curve"/>
      <point x="278" y="202" type="line"/>
      <point x="298" y="231"/>
      <point x="335" y="262"/>
      <point x="375" y="262" type="curve" smooth="yes"/>
      <point x="416" y="262"/>
      <point x="441" y="226"/>
      <point x="441" y="154" type="curve" smooth="yes"/>
      <point x="441" y="84"/>
      <point x="419" y="52"/>
      <point x="384" y="52" type="curve" smooth="yes"/>
      <point x="339" y="52"/>
      <point x="306" y="94"/>
      <point x="306" y="228" type="curve" smooth="yes"/>
      <point x="306" y="319"/>
      <point x="328" y="383"/>
      <point x="376" y="430" type="curve" smooth="yes"/>
      <point x="412" y="466"/>
      <point x="469" y="487"/>
      <point x="551" y="487" type="curve" smooth="yes"/>
      <point x="574" y="487" type="line"/>
      <point x="589" y="554" type="line"/>
      <point x="571" y="554" type="line" smooth="yes"/>
      <point x="443" y="554"/>
      <point x="371" y="524"/>
      <point x="318" y="472" type="curve" smooth="yes"/>
      <point x="262" y="416"/>
      <point x="234" y="335"/>
      <point x="234" y="235" type="curve" smooth="yes"/>
      <point x="234" y="54"/>
      <point x="298" y="-12"/>
    </contour>
    <contour>
      <point x="588" y="0" type="line"/>
      <point x="667" y="0" type="line"/>
      <point x="667" y="487" type="line"/>
      <point x="781" y="487" type="line"/>
      <point x="781" y="554" type="line"/>
      <point x="581" y="554" type="line"/>
      <point x="568" y="487" type="line"/>
      <point x="588" y="487" type="line"/>
    </contour>
  </outline>
</glyph>
<glyph name="ttatamil" format="2">
  <advance width="521"/>
  <unicode hex="0B9F"/>
  <outline>
    <contour>
      <point x="67" y="0" type="line"/>
      <point x="505" y="0" type="line"/>
      <point x="505" y="67" type="line"/>
      <point x="146" y="67" type="line"/>
      <point x="146" y="554" type="line"/>
      <point x="67" y="554" type="line"/>
    </contour>
  </outline>
</glyph>
<glyph name="nnatamil" format="2">
  <advance width="1249"/>
  <unicode hex="0BA3"/>
  <outline>
    <contour>
      <point x="195" y="-12" type="curve" smooth="yes"/>
      <point x="282" y="-12"/>
      <point x="330" y="46"/>
      <point x="330" y="160" type="curve" smooth="yes"/>
      <point x="330" y="265"/>
      <point x="281" y="328"/>
      <point x="203" y="328" type="curve" smooth="yes"/>
      <point x="149" y="328"/>
      <point x="106" y="295"/>
      <point x="75" y="257" type="curve"/>
      <point x="90" y="202" type="line"/>
      <point x="110" y="231"/>
      <point x="147" y="262"/>
      <point x="187" y="262" type="curve" smooth="yes"/>
      <point x="228" y="262"/>
      <point x="253" y="226"/>
      <point x="253" y="154" type="curve" smooth="yes"/>
      <point x="253" y="84"/>
      <point x="232" y="52"/>
      <point x="196" y="52" type="curve" smooth="yes"/>
      <point x="151" y="52"/>
      <point x="118" y="94"/>
      <point x="118" y="232" type="curve" smooth="yes"/>
      <point x="118" y="244"/>
      <point x="119" y="263"/>
      <point x="120" y="283" type="curve"/>
      <point x="134" y="407"/>
      <point x="199" y="497"/>
      <point x="317" y="497" type="curve" smooth="yes"/>
      <point x="375" y="497"/>
      <point x="426" y="483"/>
      <point x="472" y="439" type="curve"/>
      <point x="529" y="378"/>
      <point x="559" y="290"/>
      <point x="559" y="181" type="curve" smooth="yes"/>
      <point x="559" y="104"/>
      <point x="549" y="53"/>
      <point x="507" y="53" type="curve" smooth="yes"/>
      <point x="476" y="53"/>
      <point x="454" y="84"/>
      <point x="454" y="188" type="curve" smooth="yes"/>
      <point x="454" y="286"/>
      <point x="473" y="375"/>
      <point x="518" y="432" type="curve"/>
      <point x="551" y="474"/>
      <point x="600" y="498"/>
      <point x="664" y="498" type="curve" smooth="yes"/>
      <point x="721" y="498"/>
      <point x="768" y="474"/>
      <point x="801" y="433" type="curve"/>
      <point x="851" y="371"/>
      <point x="875" y="272"/>
      <point x="875" y="181" type="curve" smooth="yes"/>
      <point x="875" y="104"/>
      <point x="863" y="53"/>
      <point x="823" y="53" type="curve" smooth="yes"/>
      <point x="792" y="53"/>
      <point x="770" y="84"/>
      <point x="770" y="188" type="curve" smooth="yes"/>
      <point x="770" y="290"/>
      <point x="794" y="392"/>
      <point x="841" y="434" type="curve"/>
      <point x="886" y="473"/>
      <point x="918" y="487"/>
      <point x="1019" y="487" type="curve" smooth="yes"/>
      <point x="1039" y="487" type="line"/>
      <point x="1039" y="0" type="line"/>
      <point x="1118" y="0" type="line"/>
      <point x="1118" y="487" type="line"/>
      <point x="1233" y="487" type="line"/>
      <point x="1233" y="554" type="line"/>
      <point x="1049" y="554" type="line" smooth="yes"/>
      <point x="901" y="554"/>
      <point x="857" y="527"/>
      <point x="810" y="492" type="curve"/>
      <point x="779" y="454" type="line"/>
      <point x="722" y="382"/>
      <point x="695" y="291"/>
      <point x="695" y="182" type="curve" smooth="yes"/>
      <point x="695" y="58"/>
      <point x="732" y="-12"/>
      <point x="824" y="-12" type="curve" smooth="yes"/>
      <point x="904" y="-12"/>
      <point x="951" y="44"/>
      <point x="951" y="183" type="curve" smooth="yes"/>
      <point x="951" y="284"/>
      <point x="924" y="385"/>
      <point x="856" y="468" type="curve"/>
      <point x="834" y="494" type="line"/>
      <point x="785" y="543"/>
      <point x="732" y="566"/>
      <point x="664" y="566" type="curve" smooth="yes"/>
      <point x="590" y="566"/>
      <point x="531" y="539"/>
      <point x="486" y="494" type="curve"/>
      <point x="466" y="471" type="line"/>
      <point x="408" y="398"/>
      <point x="379" y="291"/>
      <point x="379" y="182" type="curve" smooth="yes"/>
      <point x="379" y="58"/>
      <point x="416" y="-12"/>
      <point x="510" y="-12" type="curve" smooth="yes"/>
      <point x="588" y="-12"/>
      <point x="635" y="44"/>
      <point x="635" y="183" type="curve" smooth="yes"/>
      <point x="635" y="298"/>
      <point x="598" y="394"/>
      <point x="541" y="457" type="curve"/>
      <point x="510" y="493" type="line"/>
      <point x="449" y="546"/>
      <point x="392" y="566"/>
      <point x="322" y="566" type="curve" smooth="yes"/>
      <point x="150" y="566"/>
      <point x="46" y="435"/>
      <point x="46" y="240" type="curve" smooth="yes"/>
      <point x="46" y="54"/>
      <point x="110" y="-12"/>
    </contour>
  </outline>
</glyph>
<glyph name="tatamil" format="2">
  <advance width="630"/>
  <unicode hex="0BA4"/>
  <outline>
    <contour>
      <point x="203" y="-12" type="curve" smooth="yes"/>
      <point x="268" y="-12"/>
      <point x="320" y="6"/>
      <point x="351" y="57" type="curve" smooth="yes"/>
      <point x="373" y="92"/>
      <point x="384" y="137"/>
      <point x="384" y="227" type="curve" smooth="yes"/>
      <point x="384" y="487" type="line"/>
      <point x="519" y="487" type="line"/>
      <point x="519" y="554" type="line"/>
      <point x="117" y="554" type="line"/>
      <point x="117" y="286" type="line"/>
      <point x="189" y="302" type="line"/>
      <point x="189" y="487" type="line"/>
      <point x="307" y="487" type="line"/>
      <point x="307" y="204" type="line" smooth="yes"/>
      <point x="307" y="88"/>
      <point x="269" y="55"/>
      <point x="210" y="55" type="curve" smooth="yes"/>
      <point x="152" y="55"/>
      <point x="118" y="87"/>
      <point x="118" y="153" type="curve" smooth="yes"/>
      <point x="118" y="193"/>
      <point x="129" y="220"/>
      <point x="149" y="237" type="curve" smooth="yes"/>
      <point x="172" y="256"/>
      <point x="206" y="262"/>
      <point x="257" y="262" type="curve" smooth="yes"/>
      <point x="349" y="262" type="line" smooth="yes"/>
      <point x="434" y="262"/>
      <point x="512" y="228"/>
      <point x="512" y="106" type="curve" smooth="yes"/>
      <point x="512" y="49"/>
      <point x="502" y="6"/>
      <point x="476" y="-24" type="curve" smooth="yes"/>
      <point x="440" y="-67"/>
      <point x="389" y="-85"/>
      <point x="286" y="-85" type="curve"/>
      <point x="238" y="-85" type="line" smooth="yes"/>
      <point x="167" y="-85"/>
      <point x="125" y="-95"/>
      <point x="91" y="-121" type="curve" smooth="yes"/>
      <point x="58" y="-146"/>
      <point x="37" y="-185"/>
      <point x="37" y="-243" type="curve" smooth="yes"/>
      <point x="37" y="-266"/>
      <point x="40" y="-297"/>
      <point x="44" y="-321" type="curve"/>
      <point x="120" y="-317" type="line"/>
      <point x="118" y="-301"/>
      <point x="117" y="-277"/>
      <point x="117" y="-261" type="curve" smooth="yes"/>
      <point x="117" y="-224"/>
      <point x="126" y="-197"/>
      <point x="146" y="-179" type="curve" smooth="yes"/>
      <point x="167" y="-160"/>
      <point x="191" y="-152"/>
      <point x="250" y="-152" type="curve" smooth="yes"/>
      <point x="290" y="-152" type="line" smooth="yes"/>
      <point x="396" y="-152"/>
      <point x="470" y="-137"/>
      <point x="518" y="-92" type="curve" smooth="yes"/>
      <point x="565" y="-47"/>
      <point x="590" y="11"/>
      <point x="590" y="98" type="curve" smooth="yes"/>
      <point x="590" y="262"/>
      <point x="495" y="328"/>
      <point x="347" y="328" type="curve" smooth="yes"/>
      <point x="265" y="328" type="line" smooth="yes"/>
      <point x="113" y="328"/>
      <point x="39" y="265"/>
      <point x="39" y="152" type="curve" smooth="yes"/>
      <point x="39" y="47"/>
      <point x="108" y="-12"/>
    </contour>
  </outline>
</glyph>
<glyph name="natamil" format="2">
  <advance width="613"/>
  <unicode hex="0BA8"/>
  <outline>
    <contour>
      <point x="422" y="362" type="curve" smooth="yes"/>
      <point x="386" y="362"/>
      <point x="357" y="350"/>
      <point x="322" y="327" type="curve"/>
      <point x="325" y="260" type="line"/>
      <point x="350" y="281"/>
      <point x="376" y="294"/>
      <point x="406" y="294" type="curve" smooth="yes"/>
      <point x="465" y="294"/>
      <point x="493" y="237"/>
      <point x="493" y="132" type="curve" smooth="yes"/>
      <point x="493" y="53"/>
      <point x="488" y="-11"/>
      <point x="446" y="-49" type="curve" smooth="yes"/>
      <point x="418" y="-74"/>
      <point x="381" y="-85"/>
      <point x="302" y="-85" type="curve" smooth="yes"/>
      <point x="238" y="-85" type="line" smooth="yes"/>
      <point x="167" y="-85"/>
      <point x="125" y="-95"/>
      <point x="91" y="-121" type="curve" smooth="yes"/>
      <point x="58" y="-146"/>
      <point x="37" y="-185"/>
      <point x="37" y="-243" type="curve" smooth="yes"/>
      <point x="37" y="-266"/>
      <point x="40" y="-297"/>
      <point x="44" y="-321" type="curve"/>
      <point x="120" y="-317" type="line"/>
      <point x="118" y="-301"/>
      <point x="117" y="-277"/>
      <point x="117" y="-261" type="curve" smooth="yes"/>
      <point x="117" y="-224"/>
      <point x="126" y="-197"/>
      <point x="146" y="-179" type="curve" smooth="yes"/>
      <point x="167" y="-160"/>
      <point x="191" y="-152"/>
      <point x="250" y="-152" type="curve" smooth="yes"/>
      <point x="309" y="-152" type="line" smooth="yes"/>
      <point x="403" y="-152"/>
      <point x="454" y="-139"/>
      <point x="497" y="-103" type="curve" smooth="yes"/>
      <point x="553" y="-56"/>
      <point x="572" y="18"/>
      <point x="572" y="135" type="curve" smooth="yes"/>
      <point x="572" y="284"/>
      <point x="518" y="362"/>
    </contour>
    <contour>
      <point x="67" y="0" type="line"/>
      <point x="146" y="0" type="line"/>
      <point x="146" y="487" type="line"/>
      <point x="264" y="487" type="line"/>
      <point x="264" y="0" type="line"/>
      <point x="343" y="0" type="line"/>
      <point x="343" y="487" type="line"/>
      <point x="458" y="487" type="line"/>
      <point x="458" y="554" type="line"/>
      <point x="67" y="554" type="line"/>
    </contour>
  </outline>
</glyph>
<glyph name="nnnatamil" format="2">
  <advance width="933"/>
  <unicode hex="0BA9"/>
  <outline>
    <contour>
      <point x="196" y="-12" type="curve" smooth="yes"/>
      <point x="282" y="-12"/>
      <point x="330" y="46"/>
      <point x="330" y="160" type="curve" smooth="yes"/>
      <point x="330" y="265"/>
      <point x="281" y="328"/>
      <point x="203" y="328" type="curve" smooth="yes"/>
      <point x="149" y="328"/>
      <point x="106" y="295"/>
      <point x="75" y="257" type="curve"/>
      <point x="90" y="202" type="line"/>
      <point x="110" y="231"/>
      <point x="147" y="262"/>
      <point x="187" y="262" type="curve" smooth="yes"/>
      <point x="228" y="262"/>
      <point x="253" y="226"/>
      <point x="253" y="154" type="curve" smooth="yes"/>
      <point x="253" y="84"/>
      <point x="232" y="52"/>
      <point x="196" y="52" type="curve" smooth="yes"/>
      <point x="151" y="52"/>
      <point x="118" y="94"/>
      <point x="118" y="232" type="curve" smooth="yes"/>
      <point x="118" y="244"/>
      <point x="119" y="263"/>
      <point x="120" y="283" type="curve"/>
      <point x="134" y="407"/>
      <point x="199" y="497"/>
      <point x="317" y="497" type="curve" smooth="yes"/>
      <point x="375" y="497"/>
      <point x="424" y="483"/>
      <point x="472" y="440" type="curve"/>
      <point x="529" y="379"/>
      <point x="559" y="290"/>
      <point x="559" y="181" type="curve" smooth="yes"/>
      <point x="559" y="104"/>
      <point x="547" y="53"/>
      <point x="507" y="53" type="curve" smooth="yes"/>
      <point x="476" y="53"/>
      <point x="454" y="84"/>
      <point x="454" y="188" type="curve" smooth="yes"/>
      <point x="454" y="285"/>
      <point x="478" y="392"/>
      <point x="525" y="434" type="curve"/>
      <point x="569" y="472"/>
      <point x="603" y="487"/>
      <point x="704" y="487" type="curve" smooth="yes"/>
      <point x="723" y="487" type="line"/>
      <point x="723" y="0" type="line"/>
      <point x="802" y="0" type="line"/>
      <point x="802" y="487" type="line"/>
      <point x="917" y="487" type="line"/>
      <point x="917" y="554" type="line"/>
      <point x="733" y="554" type="line" smooth="yes"/>
      <point x="585" y="554"/>
      <point x="541" y="527"/>
      <point x="494" y="492" type="curve"/>
      <point x="460" y="451" type="line"/>
      <point x="406" y="378"/>
      <point x="379" y="291"/>
      <point x="379" y="182" type="curve" smooth="yes"/>
      <point x="379" y="58"/>
      <point x="416" y="-12"/>
      <point x="508" y="-12" type="curve" smooth="yes"/>
      <point x="588" y="-12"/>
      <point x="635" y="44"/>
      <point x="635" y="183" type="curve" smooth="yes"/>
      <point x="635" y="298"/>
      <point x="598" y="394"/>
      <point x="541" y="457" type="curve"/>
      <point x="510" y="493" type="line"/>
      <point x="449" y="546"/>
      <point x="392" y="566"/>
      <point x="322" y="566" type="curve" smooth="yes"/>
      <point x="150" y="566"/>
      <point x="46" y="435"/>
      <point x="46" y="240" type="curve" smooth="yes"/>
      <point x="46" y="54"/>
      <point x="110" y="-12"/>
    </contour>
  </outline>
</glyph>
<glyph name="patamil" format="2">
  <advance width="586"/>
  <unicode hex="0BAA"/>
  <outline>
    <contour>
      <point x="67" y="0" type="line"/>
      <point x="518" y="0" type="line"/>
      <point x="518" y="554" type="line"/>
      <point x="439" y="554" type="line"/>
      <point x="439" y="67" type="line"/>
      <point x="146" y="67" type="line"/>
      <point x="146" y="554" type="line"/>
      <point x="67" y="554" type="line"/>
    </contour>
  </outline>
</glyph>
<glyph name="matamil" format="2">
  <advance width="650"/>
  <unicode hex="0BAE"/>
  <outline>
    <contour>
      <point x="434" y="566" type="curve" smooth="yes"/>
      <point x="392" y="566"/>
      <point x="362" y="553"/>
      <point x="341" y="532" type="curve" smooth="yes"/>
      <point x="309" y="499"/>
      <point x="297" y="454"/>
      <point x="297" y="387" type="curve" smooth="yes"/>
      <point x="297" y="67" type="line"/>
      <point x="146" y="67" type="line"/>
      <point x="146" y="554" type="line"/>
      <point x="67" y="554" type="line"/>
      <point x="67" y="0" type="line"/>
      <point x="383" y="0" type="line" smooth="yes"/>
      <point x="473" y="0"/>
      <point x="512" y="17"/>
      <point x="546" y="52" type="curve" smooth="yes"/>
      <point x="588" y="95"/>
      <point x="603" y="166"/>
      <point x="603" y="268" type="curve" smooth="yes"/>
      <point x="603" y="446"/>
      <point x="551" y="566"/>
    </contour>
    <contour>
      <point x="436" y="499" type="curve" smooth="yes"/>
      <point x="500" y="499"/>
      <point x="523" y="396"/>
      <point x="523" y="267" type="curve" smooth="yes"/>
      <point x="523" y="120"/>
      <point x="495" y="67"/>
      <point x="398" y="67" type="curve" smooth="yes"/>
      <point x="376" y="67" type="line"/>
      <point x="376" y="373" type="line" smooth="yes"/>
      <point x="376" y="435"/>
      <point x="383" y="465"/>
      <point x="399" y="483" type="curve" smooth="yes"/>
      <point x="408" y="493"/>
      <point x="420" y="499"/>
    </contour>
  </outline>
</glyph>
<glyph name="ratamil" format="2">
  <advance width="484"/>
  <unicode hex="0BB0"/>
  <outline>
    <contour>
      <point x="183" y="-212" type="line"/>
      <point x="354" y="0" type="line"/>
      <point x="354" y="487" type="line"/>
      <point x="468" y="487" type="line"/>
      <point x="468" y="554" type="line"/>
      <point x="67" y="554" type="line"/>
      <point x="67" y="0" type="line"/>
      <point x="146" y="0" type="line"/>
      <point x="146" y="487" type="line"/>
      <point x="275" y="487" type="line"/>
      <point x="275" y="20" type="line"/>
      <point x="124" y="-165" type="line"/>
    </contour>
  </outline>
</glyph>
<glyph name="rratamil" format="2">
  <advance width="665"/>
  <unicode hex="0BB1"/>
  <outline>
    <contour>
      <point x="436" y="566" type="curve" smooth="yes"/>
      <point x="355" y="566"/>
      <point x="318" y="514"/>
      <point x="295" y="450" type="curve"/>
      <point x="329" y="446" type="line"/>
      <point x="302" y="522"/>
      <point x="265" y="566"/>
      <point x="199" y="566" type="curve" smooth="yes"/>
      <point x="150" y="566"/>
      <point x="121" y="548"/>
      <point x="103" y="526" type="curve" smooth="yes"/>
      <point x="75" y="492"/>
      <point x="65" y="449"/>
      <point x="65" y="370" type="curve" smooth="yes"/>
      <point x="65" y="0" type="line"/>
      <point x="144" y="0" type="line"/>
      <point x="144" y="360" type="line" smooth="yes"/>
      <point x="144" y="414"/>
      <point x="146" y="455"/>
      <point x="164" y="478" type="curve" smooth="yes"/>
      <point x="173" y="490"/>
      <point x="187" y="498"/>
      <point x="206" y="498" type="curve" smooth="yes"/>
      <point x="230" y="498"/>
      <point x="244" y="486"/>
      <point x="253" y="467" type="curve" smooth="yes"/>
      <point x="265" y="442"/>
      <point x="267" y="404"/>
      <point x="267" y="357" type="curve" smooth="yes"/>
      <point x="267" y="0" type="line"/>
      <point x="346" y="0" type="line"/>
      <point x="346" y="348" type="line" smooth="yes"/>
      <point x="346" y="412"/>
      <point x="355" y="450"/>
      <point x="375" y="473" type="curve" smooth="yes"/>
      <point x="389" y="489"/>
      <point x="407" y="498"/>
      <point x="431" y="498" type="curve" smooth="yes"/>
      <point x="494" y="498"/>
      <point x="536" y="435"/>
      <point x="536" y="247" type="curve" smooth="yes"/>
      <point x="536" y="-33"/>
      <point x="461" y="-85"/>
      <point x="270" y="-85" type="curve" smooth="yes"/>
      <point x="236" y="-85" type="line" smooth="yes"/>
      <point x="165" y="-85"/>
      <point x="123" y="-95"/>
      <point x="89" y="-121" type="curve" smooth="yes"/>
      <point x="56" y="-146"/>
      <point x="35" y="-185"/>
      <point x="35" y="-243" type="curve" smooth="yes"/>
      <point x="35" y="-266"/>
      <point x="38" y="-297"/>
      <point x="42" y="-321" type="curve"/>
      <point x="118" y="-317" type="line"/>
      <point x="116" y="-301"/>
      <point x="115" y="-277"/>
      <point x="115" y="-261" type="curve" smooth="yes"/>
      <point x="115" y="-224"/>
      <point x="124" y="-197"/>
      <point x="144" y="-179" type="curve" smooth="yes"/>
      <point x="165" y="-160"/>
      <point x="189" y="-152"/>
      <point x="248" y="-152" type="curve" smooth="yes"/>
      <point x="284" y="-152" type="line" smooth="yes"/>
      <point x="409" y="-152"/>
      <point x="481" y="-124"/>
      <point x="531" y="-72" type="curve" smooth="yes"/>
      <point x="594" y="-6"/>
      <point x="616" y="99"/>
      <point x="616" y="249" type="curve" smooth="yes"/>
      <point x="616" y="453"/>
      <point x="554" y="566"/>
    </contour>
  </outline>
</glyph>
<glyph name="latamil" format="2">
  <advance width="772"/>
  <unicode hex="0BB2"/>
  <outline>
    <contour>
      <point x="196" y="-12" type="curve" smooth="yes"/>
      <point x="282" y="-12"/>
      <point x="330" y="46"/>
      <point x="330" y="160" type="curve" smooth="yes"/>
      <point x="330" y="265"/>
      <point x="280" y="328"/>
      <point x="203" y="328" type="curve" smooth="yes"/>
      <point x="149" y="328"/>
      <point x="106" y="295"/>
      <point x="75" y="257" type="curve"/>
      <point x="90" y="202" type="line"/>
      <point x="110" y="231"/>
      <point x="147" y="262"/>
      <point x="187" y="262" type="curve" smooth="yes"/>
      <point x="228" y="262"/>
      <point x="253" y="226"/>
      <point x="253" y="154" type="curve" smooth="yes"/>
      <point x="253" y="84"/>
      <point x="232" y="52"/>
      <point x="196" y="52" type="curve" smooth="yes"/>
      <point x="151" y="52"/>
      <point x="118" y="94"/>
      <point x="118" y="237" type="curve" smooth="yes"/>
      <point x="118" y="384"/>
      <point x="176" y="497"/>
      <point x="279" y="497" type="curve" smooth="yes"/>
      <point x="317" y="497"/>
      <point x="344" y="484"/>
      <point x="362" y="459" type="curve" smooth="yes"/>
      <point x="393" y="417"/>
      <point x="397" y="351"/>
      <point x="400" y="247" type="curve" smooth="yes"/>
      <point x="403" y="136"/>
      <point x="419" y="77"/>
      <point x="448" y="39" type="curve" smooth="yes"/>
      <point x="477" y="2"/>
      <point x="509" y="-12"/>
      <point x="561" y="-12" type="curve" smooth="yes"/>
      <point x="669" y="-12"/>
      <point x="723" y="67"/>
      <point x="723" y="244" type="curve" smooth="yes"/>
      <point x="723" y="376"/>
      <point x="685" y="498"/>
      <point x="624" y="596" type="curve"/>
      <point x="549" y="556" type="line"/>
      <point x="604" y="477"/>
      <point x="644" y="359"/>
      <point x="644" y="235" type="curve" smooth="yes"/>
      <point x="644" y="94"/>
      <point x="608" y="57"/>
      <point x="562" y="57" type="curve" smooth="yes"/>
      <point x="538" y="57"/>
      <point x="524" y="66"/>
      <point x="512" y="81" type="curve" smooth="yes"/>
      <point x="486" y="115"/>
      <point x="480" y="181"/>
      <point x="479" y="266" type="curve" smooth="yes"/>
      <point x="478" y="378"/>
      <point x="470" y="459"/>
      <point x="415" y="516" type="curve" smooth="yes"/>
      <point x="378" y="555"/>
      <point x="332" y="566"/>
      <point x="286" y="566" type="curve" smooth="yes"/>
      <point x="153" y="566"/>
      <point x="46" y="458"/>
      <point x="46" y="243" type="curve" smooth="yes"/>
      <point x="46" y="54"/>
      <point x="110" y="-12"/>
    </contour>
  </outline>
</glyph>
<glyph name="llatamil" format="2">
  <advance width="810"/>
  <unicode hex="0BB3"/>
  <outline>
    <contour>
      <point x="196" y="-12" type="curve" smooth="yes"/>
      <point x="282" y="-12"/>
      <point x="330" y="46"/>
      <point x="330" y="160" type="curve" smooth="yes"/>
      <point x="330" y="265"/>
      <point x="281" y="328"/>
      <point x="203" y="328" type="curve" smooth="yes"/>
      <point x="149" y="328"/>
      <point x="106" y="295"/>
      <point x="75" y="257" type="curve"/>
      <point x="90" y="202" type="line"/>
      <point x="110" y="231"/>
      <point x="147" y="262"/>
      <point x="187" y="262" type="curve" smooth="yes"/>
      <point x="228" y="262"/>
      <point x="253" y="226"/>
      <point x="253" y="155" type="curve" smooth="yes"/>
      <point x="253" y="84"/>
      <point x="232" y="52"/>
      <point x="196" y="52" type="curve" smooth="yes"/>
      <point x="151" y="52"/>
      <point x="118" y="91"/>
      <point x="118" y="237" type="curve" smooth="yes"/>
      <point x="118" y="380"/>
      <point x="173" y="497"/>
      <point x="277" y="497" type="curve" smooth="yes"/>
      <point x="336" y="497"/>
      <point x="375" y="469"/>
      <point x="421" y="417" type="curve"/>
      <point x="433" y="499" type="line"/>
      <point x="388" y="540"/>
      <point x="343" y="566"/>
      <point x="275" y="566" type="curve" smooth="yes"/>
      <point x="153" y="566"/>
      <point x="46" y="461"/>
      <point x="46" y="243" type="curve" smooth="yes"/>
      <point x="46" y="54"/>
      <point x="110" y="-12"/>
    </contour>
    <contour>
      <point x="403" y="0" type="line"/>
      <point x="482" y="0" type="line"/>
      <point x="482" y="487" type="line"/>
      <point x="600" y="487" type="line"/>
      <point x="600" y="0" type="line"/>
      <point x="679" y="0" type="line"/>
      <point x="679" y="487" type="line"/>
      <point x="794" y="487" type="line"/>
      <point x="794" y="554" type="line"/>
      <point x="415" y="554" type="line"/>
      <point x="415" y="494" type="line"/>
      <point x="403" y="447" type="line"/>
    </contour>
  </outline>
</glyph>
<glyph name="lllatamil" format="2">
  <advance width="650"/>
  <unicode hex="0BB4"/>
  <outline>
    <contour>
      <point x="434" y="566" type="curve" smooth="yes"/>
      <point x="392" y="566"/>
      <point x="362" y="553"/>
      <point x="341" y="532" type="curve" smooth="yes"/>
      <point x="309" y="499"/>
      <point x="297" y="454"/>
      <point x="297" y="387" type="curve" smooth="yes"/>
      <point x="297" y="67" type="line"/>
      <point x="146" y="67" type="line"/>
      <point x="146" y="554" type="line"/>
      <point x="67" y="554" type="line"/>
      <point x="67" y="0" type="line"/>
      <point x="383" y="0" type="line" smooth="yes"/>
      <point x="473" y="0"/>
      <point x="512" y="17"/>
      <point x="546" y="52" type="curve" smooth="yes"/>
      <point x="588" y="95"/>
      <point x="603" y="166"/>
      <point x="603" y="268" type="curve" smooth="yes"/>
      <point x="603" y="446"/>
      <point x="551" y="566"/>
    </contour>
    <contour>
      <point x="436" y="499" type="curve" smooth="yes"/>
      <point x="499" y="499"/>
      <point x="523" y="396"/>
      <point x="523" y="267" type="curve" smooth="yes"/>
      <point x="523" y="120"/>
      <point x="494" y="67"/>
      <point x="397" y="67" type="curve" smooth="yes"/>
      <point x="376" y="67" type="line"/>
      <point x="376" y="373" type="line" smooth="yes"/>
      <point x="376" y="435"/>
      <point x="383" y="465"/>
      <point x="399" y="483" type="curve" smooth="yes"/>
      <point x="408" y="493"/>
      <point x="420" y="499"/>
    </contour>
    <contour>
      <point x="176" y="-62" type="curve" smooth="yes"/>
      <point x="94" y="-62"/>
      <point x="47" y="-109"/>
      <point x="47" y="-186" type="curve" smooth="yes"/>
      <point x="47" y="-226"/>
      <point x="61" y="-256"/>
      <point x="82" y="-278" type="curve" smooth="yes"/>
      <point x="109" y="-306"/>
      <point x="156" y="-321"/>
      <point x="210" y="-321" type="curve" smooth="yes"/>
      <point x="216" y="-321" type="line" smooth="yes"/>
      <point x="332" y="-321"/>
      <point x="384" y="-269"/>
      <point x="416" y="-185" type="curve"/>
      <point x="426" y="-152"/>
      <point x="441" y="-128"/>
      <point x="482" y="-116" type="curve"/>
      <point x="424" y="-105" type="line"/>
      <point x="374" y="-109"/>
      <point x="360" y="-121"/>
      <point x="347" y="-155" type="curve"/>
      <point x="325" y="-217"/>
      <point x="290" y="-255"/>
      <point x="214" y="-255" type="curve" smooth="yes"/>
      <point x="210" y="-255" type="line" smooth="yes"/>
      <point x="167" y="-255"/>
      <point x="125" y="-241"/>
      <point x="125" y="-188" type="curve" smooth="yes"/>
      <point x="125" y="-143"/>
      <point x="151" y="-127"/>
      <point x="186" y="-127" type="curve" smooth="yes"/>
      <point x="196" y="-127"/>
      <point x="205" y="-128"/>
      <point x="215" y="-130" type="curve"/>
      <point x="220" y="-67" type="line"/>
      <point x="206" y="-64"/>
      <point x="191" y="-62"/>
    </contour>
    <contour>
      <point x="403" y="-162" type="line"/>
      <point x="547" y="-162" type="line"/>
      <point x="547" y="-95" type="line"/>
      <point x="462" y="-95" type="line" smooth="yes"/>
      <point x="433" y="-95"/>
      <point x="415" y="-90"/>
      <point x="402" y="-82" type="curve"/>
      <point x="382" y="-67"/>
      <point x="374" y="-39"/>
      <point x="374" y="0" type="curve"/>
      <point x="297" y="0" type="line"/>
      <point x="299" y="-97"/>
      <point x="340" y="-138"/>
      <point x="395" y="-154" type="curve"/>
    </contour>
  </outline>
</glyph>
<glyph name="vatamil" format="2">
  <advance width="798"/>
  <unicode hex="0BB5"/>
  <outline>
    <contour>
      <point x="196" y="-12" type="curve" smooth="yes"/>
      <point x="282" y="-12"/>
      <point x="330" y="46"/>
      <point x="330" y="160" type="curve" smooth="yes"/>
      <point x="330" y="265"/>
      <point x="281" y="328"/>
      <point x="203" y="328" type="curve" smooth="yes"/>
      <point x="149" y="328"/>
      <point x="106" y="295"/>
      <point x="75" y="257" type="curve"/>
      <point x="90" y="202" type="line"/>
      <point x="110" y="231"/>
      <point x="147" y="262"/>
      <point x="187" y="262" type="curve" smooth="yes"/>
      <point x="228" y="262"/>
      <point x="253" y="226"/>
      <point x="253" y="155" type="curve" smooth="yes"/>
      <point x="253" y="84"/>
      <point x="232" y="52"/>
      <point x="196" y="52" type="curve" smooth="yes"/>
      <point x="151" y="52"/>
      <point x="118" y="94"/>
      <point x="118" y="240" type="curve" smooth="yes"/>
      <point x="118" y="381"/>
      <point x="173" y="497"/>
      <point x="280" y="497" type="curve" smooth="yes"/>
      <point x="368" y="497"/>
      <point x="423" y="421"/>
      <point x="423" y="279" type="curve" smooth="yes"/>
      <point x="423" y="176"/>
      <point x="402" y="110"/>
      <point x="386" y="63" type="curve"/>
      <point x="394" y="0" type="line"/>
      <point x="730" y="0" type="line"/>
      <point x="730" y="554" type="line"/>
      <point x="651" y="554" type="line"/>
      <point x="651" y="67" type="line"/>
      <point x="465" y="67" type="line"/>
      <point x="484" y="124"/>
      <point x="504" y="199"/>
      <point x="504" y="289" type="curve" smooth="yes"/>
      <point x="504" y="442"/>
      <point x="435" y="566"/>
      <point x="282" y="566" type="curve" smooth="yes"/>
      <point x="149" y="566"/>
      <point x="46" y="458"/>
      <point x="46" y="243" type="curve" smooth="yes"/>
      <point x="46" y="54"/>
      <point x="110" y="-12"/>
    </contour>
  </outline>
</glyph>
<glyph name="shatamil" format="2">
  <advance width="900"/>
  <unicode hex="0BB6"/>
  <outline>
    <contour>
      <point x="233" y="-12" type="curve" smooth="yes"/>
      <point x="282" y="-12"/>
      <point x="318" y="1"/>
      <point x="344" y="23" type="curve" smooth="yes"/>
      <point x="387" y="61"/>
      <point x="400" y="117"/>
      <point x="400" y="220" type="curve" smooth="yes"/>
      <point x="400" y="487" type="line"/>
      <point x="499" y="487" type="line"/>
      <point x="499" y="218" type="line" smooth="yes"/>
      <point x="499" y="117"/>
      <point x="513" y="61"/>
      <point x="556" y="23" type="curve" smooth="yes"/>
      <point x="582" y="1"/>
      <point x="617" y="-12"/>
      <point x="667" y="-12" type="curve" smooth="yes"/>
      <point x="716" y="-12"/>
      <point x="752" y="1"/>
      <point x="778" y="23" type="curve" smooth="yes"/>
      <point x="821" y="61"/>
      <point x="834" y="117"/>
      <point x="834" y="218" type="curve" smooth="yes"/>
      <point x="834" y="554" type="line"/>
      <point x="321" y="554" type="line"/>
      <point x="321" y="221" type="line" smooth="yes"/>
      <point x="321" y="143"/>
      <point x="314" y="100"/>
      <point x="289" y="76" type="curve" smooth="yes"/>
      <point x="275" y="63"/>
      <point x="256" y="56"/>
      <point x="232" y="56" type="curve" smooth="yes"/>
      <point x="209" y="56"/>
      <point x="190" y="63"/>
      <point x="176" y="76" type="curve" smooth="yes"/>
      <point x="151" y="100"/>
      <point x="144" y="143"/>
      <point x="144" y="221" type="curve" smooth="yes"/>
      <point x="144" y="554" type="line"/>
      <point x="65" y="554" type="line"/>
      <point x="65" y="217" type="line" smooth="yes"/>
      <point x="65" y="117"/>
      <point x="79" y="61"/>
      <point x="122" y="23" type="curve" smooth="yes"/>
      <point x="148" y="1"/>
      <point x="183" y="-12"/>
    </contour>
    <contour>
      <point x="666" y="56" type="curve" smooth="yes"/>
      <point x="643" y="56"/>
      <point x="624" y="63"/>
      <point x="610" y="76" type="curve" smooth="yes"/>
      <point x="585" y="100"/>
      <point x="578" y="143"/>
      <point x="578" y="221" type="curve" smooth="yes"/>
      <point x="578" y="487" type="line"/>
      <point x="755" y="487" type="line"/>
      <point x="755" y="221" type="line" smooth="yes"/>
      <point x="755" y="143"/>
      <point x="748" y="100"/>
      <point x="723" y="76" type="curve" smooth="yes"/>
      <point x="709" y="63"/>
      <point x="690" y="56"/>
    </contour>
  </outline>
</glyph>
<glyph name="ssatamil" format="2">
  <advance width="1040"/>
  <unicode hex="0BB7"/>
  <outline>
    <contour>
      <point x="707" y="566" type="curve" smooth="yes"/>
      <point x="616" y="566"/>
      <point x="562" y="487"/>
      <point x="562" y="386" type="curve" smooth="yes"/>
      <point x="562" y="246"/>
      <point x="643" y="185"/>
      <point x="750" y="185" type="curve" smooth="yes"/>
      <point x="772" y="185" type="line" smooth="yes"/>
      <point x="830" y="185"/>
      <point x="878" y="215"/>
      <point x="907" y="244" type="curve"/>
      <point x="905" y="216"/>
      <point x="905" y="187"/>
      <point x="905" y="156" type="curve" smooth="yes"/>
      <point x="905" y="67" type="line"/>
      <point x="586" y="67" type="line"/>
      <point x="579" y="0" type="line"/>
      <point x="980" y="0" type="line"/>
      <point x="980" y="328" type="line"/>
      <point x="905" y="328" type="line"/>
      <point x="877" y="288"/>
      <point x="834" y="250"/>
      <point x="775" y="250" type="curve" smooth="yes"/>
      <point x="748" y="250" type="line" smooth="yes"/>
      <point x="680" y="250"/>
      <point x="639" y="291"/>
      <point x="639" y="382" type="curve" smooth="yes"/>
      <point x="639" y="450"/>
      <point x="660" y="499"/>
      <point x="705" y="499" type="curve" smooth="yes"/>
      <point x="739" y="499"/>
      <point x="754" y="468"/>
      <point x="754" y="422" type="curve" smooth="yes"/>
      <point x="754" y="382"/>
      <point x="747" y="335"/>
      <point x="740" y="300" type="curve" smooth="yes"/>
      <point x="689" y="49" type="line"/>
      <point x="687" y="28" type="line"/>
      <point x="622" y="-271" type="line"/>
      <point x="697" y="-284" type="line"/>
      <point x="801" y="210" type="line"/>
      <point x="816" y="286" type="line" smooth="yes"/>
      <point x="823" y="321"/>
      <point x="833" y="377"/>
      <point x="833" y="427" type="curve" smooth="yes"/>
      <point x="833" y="497"/>
      <point x="800" y="566"/>
    </contour>
    <contour>
      <point x="197" y="-12" type="curve" smooth="yes"/>
      <point x="282" y="-12"/>
      <point x="330" y="46"/>
      <point x="330" y="160" type="curve" smooth="yes"/>
      <point x="330" y="265"/>
      <point x="281" y="328"/>
      <point x="203" y="328" type="curve" smooth="yes"/>
      <point x="149" y="328"/>
      <point x="106" y="295"/>
      <point x="75" y="257" type="curve"/>
      <point x="90" y="202" type="line"/>
      <point x="110" y="231"/>
      <point x="147" y="262"/>
      <point x="187" y="262" type="curve" smooth="yes"/>
      <point x="228" y="262"/>
      <point x="253" y="226"/>
      <point x="253" y="155" type="curve" smooth="yes"/>
      <point x="253" y="84"/>
      <point x="232" y="52"/>
      <point x="196" y="52" type="curve" smooth="yes"/>
      <point x="151" y="52"/>
      <point x="118" y="94"/>
      <point x="118" y="240" type="curve" smooth="yes"/>
      <point x="118" y="381"/>
      <point x="173" y="497"/>
      <point x="280" y="497" type="curve" smooth="yes"/>
      <point x="368" y="497"/>
      <point x="423" y="421"/>
      <point x="423" y="279" type="curve" smooth="yes"/>
      <point x="423" y="176"/>
      <point x="402" y="110"/>
      <point x="386" y="63" type="curve"/>
      <point x="394" y="0" type="line"/>
      <point x="635" y="0" type="line"/>
      <point x="645" y="67" type="line"/>
      <point x="465" y="67" type="line"/>
      <point x="484" y="124"/>
      <point x="504" y="199"/>
      <point x="504" y="289" type="curve" smooth="yes"/>
      <point x="504" y="442"/>
      <point x="435" y="566"/>
      <point x="282" y="566" type="curve" smooth="yes"/>
      <point x="149" y="566"/>
      <point x="46" y="458"/>
      <point x="46" y="243" type="curve" smooth="yes"/>
      <point x="46" y="53"/>
      <point x="110" y="-12"/>
    </contour>
  </outline>
</glyph>
<glyph name="satamil" format="2">
  <advance width="978"/>
  <unicode hex="0BB8"/>
  <outline>
    <contour>
      <point x="196" y="-12" type="curve" smooth="yes"/>
      <point x="282" y="-12"/>
      <point x="330" y="46"/>
      <point x="330" y="160" type="curve" smooth="yes"/>
      <point x="330" y="265"/>
      <point x="281" y="328"/>
      <point x="203" y="328" type="curve" smooth="yes"/>
      <point x="149" y="328"/>
      <point x="106" y="295"/>
      <point x="75" y="257" type="curve"/>
      <point x="90" y="202" type="line"/>
      <point x="110" y="231"/>
      <point x="147" y="262"/>
      <point x="187" y="262" type="curve" smooth="yes"/>
      <point x="228" y="262"/>
      <point x="253" y="226"/>
      <point x="253" y="154" type="curve" smooth="yes"/>
      <point x="253" y="84"/>
      <point x="232" y="52"/>
      <point x="196" y="52" type="curve" smooth="yes"/>
      <point x="151" y="52"/>
      <point x="118" y="94"/>
      <point x="118" y="240" type="curve" smooth="yes"/>
      <point x="118" y="380"/>
      <point x="173" y="497"/>
      <point x="279" y="497" type="curve" smooth="yes"/>
      <point x="316" y="497"/>
      <point x="342" y="484"/>
      <point x="361" y="462" type="curve" smooth="yes"/>
      <point x="395" y="422"/>
      <point x="403" y="366"/>
      <point x="403" y="279" type="curve" smooth="yes"/>
      <point x="403" y="0" type="line"/>
      <point x="482" y="0" type="line"/>
      <point x="482" y="367" type="line" smooth="yes"/>
      <point x="482" y="426"/>
      <point x="487" y="452"/>
      <point x="503" y="475" type="curve" smooth="yes"/>
      <point x="513" y="489"/>
      <point x="526" y="498"/>
      <point x="545" y="498" type="curve" smooth="yes"/>
      <point x="567" y="498"/>
      <point x="581" y="487"/>
      <point x="590" y="469" type="curve" smooth="yes"/>
      <point x="603" y="443"/>
      <point x="606" y="404"/>
      <point x="606" y="335" type="curve" smooth="yes"/>
      <point x="606" y="255" type="line" smooth="yes"/>
      <point x="606" y="135"/>
      <point x="620" y="88"/>
      <point x="647" y="48" type="curve" smooth="yes"/>
      <point x="674" y="8"/>
      <point x="712" y="-12"/>
      <point x="767" y="-12" type="curve" smooth="yes"/>
      <point x="875" y="-12"/>
      <point x="929" y="67"/>
      <point x="929" y="244" type="curve" smooth="yes"/>
      <point x="929" y="376"/>
      <point x="891" y="498"/>
      <point x="830" y="596" type="curve"/>
      <point x="755" y="556" type="line"/>
      <point x="810" y="477"/>
      <point x="850" y="359"/>
      <point x="850" y="235" type="curve" smooth="yes"/>
      <point x="850" y="94"/>
      <point x="814" y="57"/>
      <point x="768" y="57" type="curve" smooth="yes"/>
      <point x="743" y="57"/>
      <point x="728" y="67"/>
      <point x="716" y="82" type="curve" smooth="yes"/>
      <point x="690" y="116"/>
      <point x="685" y="168"/>
      <point x="685" y="251" type="curve" smooth="yes"/>
      <point x="685" y="334" type="line" smooth="yes"/>
      <point x="685" y="437"/>
      <point x="674" y="502"/>
      <point x="632" y="539" type="curve" smooth="yes"/>
      <point x="613" y="556"/>
      <point x="589" y="566"/>
      <point x="551" y="566" type="curve" smooth="yes"/>
      <point x="479" y="566"/>
      <point x="437" y="506"/>
      <point x="419" y="435" type="curve"/>
      <point x="452" y="426" type="line"/>
      <point x="416" y="526"/>
      <point x="365" y="566"/>
      <point x="279" y="566" type="curve" smooth="yes"/>
      <point x="153" y="566"/>
      <point x="46" y="461"/>
      <point x="46" y="243" type="curve" smooth="yes"/>
      <point x="46" y="54"/>
      <point x="110" y="-12"/>
    </contour>
  </outline>
</glyph>
<glyph name="hatamil" format="2">
  <advance width="1224"/>
  <unicode hex="0BB9"/>
  <outline>
    <contour>
      <point x="995" y="566" type="curve" smooth="yes"/>
      <point x="914" y="566"/>
      <point x="877" y="514"/>
      <point x="854" y="450" type="curve"/>
      <point x="888" y="446" type="line"/>
      <point x="861" y="522"/>
      <point x="824" y="566"/>
      <point x="758" y="566" type="curve" smooth="yes"/>
      <point x="709" y="566"/>
      <point x="680" y="548"/>
      <point x="662" y="526" type="curve" smooth="yes"/>
      <point x="634" y="492"/>
      <point x="624" y="449"/>
      <point x="624" y="370" type="curve" smooth="yes"/>
      <point x="624" y="0" type="line"/>
      <point x="703" y="0" type="line"/>
      <point x="703" y="360" type="line" smooth="yes"/>
      <point x="703" y="414"/>
      <point x="705" y="455"/>
      <point x="723" y="478" type="curve" smooth="yes"/>
      <point x="732" y="490"/>
      <point x="746" y="498"/>
      <point x="765" y="498" type="curve" smooth="yes"/>
      <point x="789" y="498"/>
      <point x="803" y="486"/>
      <point x="812" y="467" type="curve" smooth="yes"/>
      <point x="824" y="442"/>
      <point x="826" y="404"/>
      <point x="826" y="357" type="curve" smooth="yes"/>
      <point x="826" y="0" type="line"/>
      <point x="905" y="0" type="line"/>
      <point x="905" y="348" type="line" smooth="yes"/>
      <point x="905" y="412"/>
      <point x="914" y="450"/>
      <point x="934" y="473" type="curve" smooth="yes"/>
      <point x="948" y="489"/>
      <point x="966" y="498"/>
      <point x="990" y="498" type="curve" smooth="yes"/>
      <point x="1053" y="498"/>
      <point x="1095" y="435"/>
      <point x="1095" y="247" type="curve" smooth="yes"/>
      <point x="1095" y="-33"/>
      <point x="1020" y="-85"/>
      <point x="829" y="-85" type="curve" smooth="yes"/>
      <point x="238" y="-85" type="line" smooth="yes"/>
      <point x="167" y="-85"/>
      <point x="125" y="-95"/>
      <point x="91" y="-121" type="curve" smooth="yes"/>
      <point x="58" y="-146"/>
      <point x="37" y="-185"/>
      <point x="37" y="-243" type="curve" smooth="yes"/>
      <point x="37" y="-266"/>
      <point x="40" y="-297"/>
      <point x="44" y="-321" type="curve"/>
      <point x="120" y="-317" type="line"/>
      <point x="118" y="-301"/>
      <point x="117" y="-277"/>
      <point x="117" y="-261" type="curve" smooth="yes"/>
      <point x="117" y="-224"/>
      <point x="126" y="-197"/>
      <point x="146" y="-179" type="curve" smooth="yes"/>
      <point x="167" y="-160"/>
      <point x="191" y="-152"/>
      <point x="250" y="-152" type="curve" smooth="yes"/>
      <point x="843" y="-152" type="line" smooth="yes"/>
      <point x="968" y="-152"/>
      <point x="1040" y="-124"/>
      <point x="1090" y="-72" type="curve" smooth="yes"/>
      <point x="1153" y="-6"/>
      <point x="1175" y="99"/>
      <point x="1175" y="249" type="curve" smooth="yes"/>
      <point x="1175" y="453"/>
      <point x="1113" y="566"/>
    </contour>
    <contour>
      <point x="196" y="-12" type="curve" smooth="yes"/>
      <point x="282" y="-12"/>
      <point x="330" y="46"/>
      <point x="330" y="160" type="curve" smooth="yes"/>
      <point x="330" y="265"/>
      <point x="281" y="328"/>
      <point x="203" y="328" type="curve" smooth="yes"/>
      <point x="149" y="328"/>
      <point x="106" y="295"/>
      <point x="75" y="257" type="curve"/>
      <point x="90" y="202" type="line"/>
      <point x="110" y="231"/>
      <point x="147" y="262"/>
      <point x="187" y="262" type="curve" smooth="yes"/>
      <point x="228" y="262"/>
      <point x="253" y="226"/>
      <point x="253" y="155" type="curve" smooth="yes"/>
      <point x="253" y="84"/>
      <point x="232" y="52"/>
      <point x="196" y="52" type="curve" smooth="yes"/>
      <point x="151" y="52"/>
      <point x="118" y="94"/>
      <point x="118" y="240" type="curve" smooth="yes"/>
      <point x="118" y="381"/>
      <point x="173" y="497"/>
      <point x="280" y="497" type="curve" smooth="yes"/>
      <point x="368" y="497"/>
      <point x="423" y="421"/>
      <point x="423" y="279" type="curve" smooth="yes"/>
      <point x="423" y="176"/>
      <point x="402" y="110"/>
      <point x="386" y="63" type="curve"/>
      <point x="394" y="0" type="line"/>
      <point x="663" y="0" type="line"/>
      <point x="651" y="67" type="line"/>
      <point x="465" y="67" type="line"/>
      <point x="484" y="124"/>
      <point x="504" y="199"/>
      <point x="504" y="289" type="curve" smooth="yes"/>
      <point x="504" y="442"/>
      <point x="435" y="566"/>
      <point x="282" y="566" type="curve" smooth="yes"/>
      <point x="149" y="566"/>
      <point x="46" y="458"/>
      <point x="46" y="243" type="curve" smooth="yes"/>
      <point x="46" y="54"/>
      <point x="110" y="-12"/>
    </contour>
  </outline>
</glyph>
<glyph name="aavowelsigntamil" format="2">
  <advance width="484"/>
  <unicode hex="0BBE"/>
  <outline>
    <contour>
      <point x="67" y="0" type="line"/>
      <point x="146" y="0" type="line"/>
      <point x="146" y="487" type="line"/>
      <point x="275" y="487" type="line"/>
      <point x="275" y="0" type="line"/>
      <point x="354" y="0" type="line"/>
      <point x="354" y="487" type="line"/>
      <point x="468" y="487" type="line"/>
      <point x="468" y="554" type="line"/>
      <point x="67" y="554" type="line"/>
    </contour>
  </outline>
</glyph>
<glyph name="ivowelsigntamil" format="2">
  <advance width="214"/>
  <unicode hex="0BBF"/>
  <outline>
    <contour>
      <point x="-49" y="843" type="curve" smooth="yes"/>
      <point x="-145" y="843"/>
      <point x="-229" y="779"/>
      <point x="-229" y="647" type="curve" smooth="yes"/>
      <point x="-229" y="594"/>
      <point x="-217" y="549"/>
      <point x="-204" y="515" type="curve"/>
      <point x="-125" y="515" type="line"/>
      <point x="-143" y="556"/>
      <point x="-153" y="602"/>
      <point x="-153" y="646" type="curve" smooth="yes"/>
      <point x="-153" y="717"/>
      <point x="-121" y="773"/>
      <point x="-51" y="773" type="curve" smooth="yes"/>
      <point x="-21" y="773"/>
      <point x="5" y="761"/>
      <point x="24" y="737" type="curve" smooth="yes"/>
      <point x="57" y="695"/>
      <point x="67" y="627"/>
      <point x="67" y="495" type="curve" smooth="yes"/>
      <point x="67" y="0" type="line"/>
      <point x="146" y="0" type="line"/>
      <point x="146" y="493" type="line" smooth="yes"/>
      <point x="146" y="635"/>
      <point x="139" y="722"/>
      <point x="85" y="785" type="curve" smooth="yes"/>
      <point x="55" y="820"/>
      <point x="10" y="843"/>
    </contour>
  </outline>
</glyph>
<glyph name="iivowelsigntamil" format="2">
  <unicode hex="0BC0"/>
  <outline>
    <contour>
      <point x="-138" y="843" type="curve" smooth="yes"/>
      <point x="-264" y="843"/>
      <point x="-334" y="749"/>
      <point x="-334" y="627" type="curve" smooth="yes"/>
      <point x="-334" y="594"/>
      <point x="-327" y="552"/>
      <point x="-317" y="525" type="curve"/>
      <point x="-249" y="532" type="line"/>
      <point x="-261" y="559"/>
      <point x="-266" y="591"/>
      <point x="-266" y="623" type="curve" smooth="yes"/>
      <point x="-266" y="702"/>
      <point x="-232" y="764"/>
      <point x="-172" y="780" type="curve"/>
      <point x="-157" y="782"/>
      <point x="-143" y="782"/>
      <point x="-135" y="782" type="curve" smooth="yes"/>
      <point x="-91" y="782"/>
      <point x="-60" y="759"/>
      <point x="-60" y="707" type="curve" smooth="yes"/>
      <point x="-60" y="673"/>
      <point x="-73" y="653"/>
      <point x="-101" y="653" type="curve" smooth="yes"/>
      <point x="-126" y="653"/>
      <point x="-144" y="669"/>
      <point x="-144" y="709" type="curve" smooth="yes"/>
      <point x="-144" y="741"/>
      <point x="-131" y="768"/>
      <point x="-114" y="793" type="curve"/>
      <point x="-163" y="811" type="line"/>
      <point x="-194" y="773"/>
      <point x="-206" y="733"/>
      <point x="-206" y="702" type="curve" smooth="yes"/>
      <point x="-206" y="634"/>
      <point x="-170" y="594"/>
      <point x="-99" y="594" type="curve" smooth="yes"/>
      <point x="-36" y="594"/>
      <point x="6" y="634"/>
      <point x="6" y="710" type="curve" smooth="yes"/>
      <point x="6" y="788"/>
      <point x="-43" y="843"/>
    </contour>
  </outline>
</glyph>
<glyph name="uvowelsigntamil" format="2">
  <advance width="385"/>
  <unicode hex="0BC1"/>
  <outline>
    <contour>
      <point x="222" y="217" type="curve" smooth="yes"/>
      <point x="303" y="217"/>
      <point x="352" y="278"/>
      <point x="352" y="373" type="curve" smooth="yes"/>
      <point x="352" y="431"/>
      <point x="335" y="480"/>
      <point x="293" y="513" type="curve" smooth="yes"/>
      <point x="260" y="539"/>
      <point x="216" y="554"/>
      <point x="133" y="554" type="curve" smooth="yes"/>
      <point x="-168" y="554" type="line"/>
      <point x="-167" y="487" type="line"/>
      <point x="136" y="487" type="line" smooth="yes"/>
      <point x="192" y="487"/>
      <point x="227" y="476"/>
      <point x="248" y="452" type="curve" smooth="yes"/>
      <point x="265" y="433"/>
      <point x="274" y="405"/>
      <point x="274" y="372" type="curve" smooth="yes"/>
      <point x="274" y="321"/>
      <point x="260" y="284"/>
      <point x="219" y="284" type="curve" smooth="yes"/>
      <point x="173" y="284"/>
      <point x="147" y="318"/>
      <point x="147" y="408" type="curve" smooth="yes"/>
      <point x="147" y="454"/>
      <point x="156" y="494"/>
      <point x="165" y="522" type="curve"/>
      <point x="91" y="534" type="line"/>
      <point x="82" y="503"/>
      <point x="72" y="462"/>
      <point x="72" y="413" type="curve" smooth="yes"/>
      <point x="72" y="293"/>
      <point x="115" y="217"/>
    </contour>
  </outline>
</glyph>
<glyph name="evowelsigntamil" format="2">
  <advance width="684"/>
  <unicode hex="0BC6"/>
  <outline>
    <contour>
      <point x="292" y="-12" type="curve" smooth="yes"/>
      <point x="394" y="-12"/>
      <point x="457" y="45"/>
      <point x="457" y="173" type="curve" smooth="yes"/>
      <point x="457" y="287"/>
      <point x="409" y="348"/>
      <point x="323" y="348" type="curve" smooth="yes"/>
      <point x="230" y="348"/>
      <point x="188" y="279"/>
      <point x="188" y="192" type="curve" smooth="yes"/>
      <point x="188" y="112"/>
      <point x="214" y="64"/>
      <point x="240" y="25" type="curve"/>
      <point x="295" y="43" type="line"/>
      <point x="272" y="74"/>
      <point x="257" y="117"/>
      <point x="257" y="173" type="curve" smooth="yes"/>
      <point x="257" y="247"/>
      <point x="283" y="281"/>
      <point x="321" y="281" type="curve" smooth="yes"/>
      <point x="362" y="281"/>
      <point x="384" y="244"/>
      <point x="384" y="173" type="curve" smooth="yes"/>
      <point x="384" y="91"/>
      <point x="358" y="52"/>
      <point x="299" y="52" type="curve" smooth="yes"/>
      <point x="287" y="52"/>
      <point x="269" y="56"/>
      <point x="252" y="65" type="curve"/>
      <point x="231" y="65" type="line"/>
      <point x="168" y="104"/>
      <point x="125" y="203"/>
      <point x="125" y="375" type="curve" smooth="yes"/>
      <point x="125" y="660"/>
      <point x="251" y="773"/>
      <point x="370" y="773" type="curve" smooth="yes"/>
      <point x="424" y="773"/>
      <point x="461" y="754"/>
      <point x="487" y="719" type="curve" smooth="yes"/>
      <point x="522" y="671"/>
      <point x="537" y="592"/>
      <point x="537" y="475" type="curve" smooth="yes"/>
      <point x="537" y="0" type="line"/>
      <point x="616" y="0" type="line"/>
      <point x="616" y="507" type="line" smooth="yes"/>
      <point x="616" y="663"/>
      <point x="588" y="729"/>
      <point x="539" y="780" type="curve" smooth="yes"/>
      <point x="497" y="823"/>
      <point x="440" y="843"/>
      <point x="373" y="843" type="curve" smooth="yes"/>
      <point x="195" y="843"/>
      <point x="46" y="681"/>
      <point x="46" y="383" type="curve" smooth="yes"/>
      <point x="46" y="149"/>
      <point x="140" y="-12"/>
    </contour>
  </outline>
</glyph>
<glyph name="eevowelsigntamil" format="2">
  <advance width="555"/>
  <unicode hex="0BC7"/>
  <outline>
    <contour>
      <point x="338" y="-12" type="curve" smooth="yes"/>
      <point x="443" y="-12"/>
      <point x="518" y="38"/>
      <point x="518" y="177" type="curve" smooth="yes"/>
      <point x="518" y="287"/>
      <point x="468" y="346"/>
      <point x="386" y="346" type="curve" smooth="yes"/>
      <point x="302" y="346"/>
      <point x="254" y="286"/>
      <point x="254" y="193" type="curve" smooth="yes"/>
      <point x="254" y="115"/>
      <point x="281" y="64"/>
      <point x="308" y="24" type="curve"/>
      <point x="363" y="45" type="line"/>
      <point x="340" y="84"/>
      <point x="326" y="126"/>
      <point x="326" y="181" type="curve" smooth="yes"/>
      <point x="326" y="243"/>
      <point x="349" y="279"/>
      <point x="387" y="279" type="curve" smooth="yes"/>
      <point x="424" y="279"/>
      <point x="445" y="236"/>
      <point x="445" y="179" type="curve" smooth="yes"/>
      <point x="445" y="90"/>
      <point x="411" y="52"/>
      <point x="351" y="52" type="curve" smooth="yes"/>
      <point x="337" y="52"/>
      <point x="316" y="52"/>
      <point x="299" y="55" type="curve"/>
      <point x="199" y="94"/>
      <point x="125" y="202"/>
      <point x="125" y="419" type="curve" smooth="yes"/>
      <point x="125" y="637"/>
      <point x="225" y="755"/>
      <point x="324" y="778" type="curve"/>
      <point x="340" y="780"/>
      <point x="361" y="779"/>
      <point x="371" y="779" type="curve" smooth="yes"/>
      <point x="427" y="779"/>
      <point x="457" y="741"/>
      <point x="457" y="663" type="curve" smooth="yes"/>
      <point x="457" y="606"/>
      <point x="439" y="569"/>
      <point x="402" y="569" type="curve" smooth="yes"/>
      <point x="370" y="569"/>
      <point x="346" y="598"/>
      <point x="346" y="658" type="curve" smooth="yes"/>
      <point x="346" y="705"/>
      <point x="359" y="752"/>
      <point x="379" y="786" type="curve"/>
      <point x="319" y="796" type="line"/>
      <point x="297" y="766"/>
      <point x="275" y="715"/>
      <point x="275" y="646" type="curve" smooth="yes"/>
      <point x="275" y="561"/>
      <point x="321" y="502"/>
      <point x="401" y="502" type="curve" smooth="yes"/>
      <point x="481" y="502"/>
      <point x="532" y="559"/>
      <point x="532" y="662" type="curve" smooth="yes"/>
      <point x="532" y="786"/>
      <point x="462" y="843"/>
      <point x="361" y="843" type="curve" smooth="yes"/>
      <point x="196" y="843"/>
      <point x="46" y="697"/>
      <point x="46" y="419" type="curve" smooth="yes"/>
      <point x="46" y="143"/>
      <point x="174" y="-12"/>
    </contour>
  </outline>
</glyph>
<glyph name="aivowelsigntamil" format="2">
  <advance width="895"/>
  <unicode hex="0BC8"/>
  <outline>
    <contour>
      <point x="196" y="-12" type="curve" smooth="yes"/>
      <point x="282" y="-12"/>
      <point x="330" y="46"/>
      <point x="330" y="160" type="curve" smooth="yes"/>
      <point x="330" y="265"/>
      <point x="281" y="328"/>
      <point x="203" y="328" type="curve" smooth="yes"/>
      <point x="149" y="328"/>
      <point x="106" y="295"/>
      <point x="75" y="257" type="curve"/>
      <point x="90" y="202" type="line"/>
      <point x="110" y="231"/>
      <point x="147" y="262"/>
      <point x="187" y="262" type="curve" smooth="yes"/>
      <point x="228" y="262"/>
      <point x="253" y="226"/>
      <point x="253" y="154" type="curve" smooth="yes"/>
      <point x="253" y="84"/>
      <point x="232" y="52"/>
      <point x="196" y="52" type="curve" smooth="yes"/>
      <point x="151" y="52"/>
      <point x="118" y="94"/>
      <point x="118" y="233" type="curve" smooth="yes"/>
      <point x="118" y="244"/>
      <point x="119" y="263"/>
      <point x="120" y="283" type="curve"/>
      <point x="134" y="407"/>
      <point x="199" y="497"/>
      <point x="317" y="497" type="curve" smooth="yes"/>
      <point x="380" y="497"/>
      <point x="426" y="482"/>
      <point x="474" y="438" type="curve"/>
      <point x="527" y="381"/>
      <point x="559" y="295"/>
      <point x="559" y="181" type="curve" smooth="yes"/>
      <point x="559" y="104"/>
      <point x="547" y="53"/>
      <point x="507" y="53" type="curve" smooth="yes"/>
      <point x="476" y="53"/>
      <point x="454" y="84"/>
      <point x="454" y="188" type="curve" smooth="yes"/>
      <point x="454" y="264"/>
      <point x="468" y="373"/>
      <point x="517" y="437" type="curve"/>
      <point x="543" y="471"/>
      <point x="584" y="497"/>
      <point x="631" y="497" type="curve" smooth="yes"/>
      <point x="722" y="497"/>
      <point x="765" y="415"/>
      <point x="765" y="279" type="curve" smooth="yes"/>
      <point x="765" y="186"/>
      <point x="744" y="101"/>
      <point x="707" y="24" type="curve"/>
      <point x="784" y="-12" type="line"/>
      <point x="821" y="83"/>
      <point x="846" y="175"/>
      <point x="846" y="289" type="curve" smooth="yes"/>
      <point x="846" y="444"/>
      <point x="782" y="566"/>
      <point x="638" y="566" type="curve" smooth="yes"/>
      <point x="575" y="566"/>
      <point x="519" y="543"/>
      <point x="480" y="499" type="curve"/>
      <point x="458" y="470" type="line"/>
      <point x="399" y="390"/>
      <point x="379" y="277"/>
      <point x="379" y="188" type="curve" smooth="yes"/>
      <point x="379" y="58"/>
      <point x="416" y="-12"/>
      <point x="508" y="-12" type="curve" smooth="yes"/>
      <point x="587" y="-12"/>
      <point x="635" y="44"/>
      <point x="635" y="183" type="curve" smooth="yes"/>
      <point x="635" y="307"/>
      <point x="594" y="401"/>
      <point x="534" y="466" type="curve"/>
      <point x="510" y="493" type="line"/>
      <point x="449" y="546"/>
      <point x="392" y="566"/>
      <point x="322" y="566" type="curve" smooth="yes"/>
      <point x="150" y="566"/>
      <point x="46" y="435"/>
      <point x="46" y="240" type="curve" smooth="yes"/>
      <point x="46" y="54"/>
      <point x="110" y="-12"/>
    </contour>
  </outline>
</glyph>
<glyph name="viramatamil" format="2">
  <unicode hex="0BCD"/>
  <outline>
    <contour>
      <point x="-274" y="682" type="curve" smooth="yes"/>
      <point x="-240" y="682"/>
      <point x="-217" y="707"/>
      <point x="-217" y="745" type="curve" smooth="yes"/>
      <point x="-217" y="783"/>
      <point x="-240" y="808"/>
      <point x="-274" y="808" type="curve" smooth="yes"/>
      <point x="-308" y="808"/>
      <point x="-331" y="783"/>
      <point x="-331" y="745" type="curve" smooth="yes"/>
      <point x="-331" y="707"/>
      <point x="-308" y="682"/>
    </contour>
  </outline>
</glyph>
<glyph name="ohmsigntamil" format="2">
  <advance width="873"/>
  <unicode hex="0BD0"/>
  <outline>
    <contour>
      <point x="437" y="566" type="curve" smooth="yes"/>
      <point x="313" y="566"/>
      <point x="202" y="540"/>
      <point x="129" y="480" type="curve" smooth="yes"/>
      <point x="75" y="435"/>
      <point x="42" y="372"/>
      <point x="42" y="287" type="curve" smooth="yes"/>
      <point x="42" y="160"/>
      <point x="101" y="84"/>
      <point x="184" y="84" type="curve" smooth="yes"/>
      <point x="260" y="84"/>
      <point x="312" y="130"/>
      <point x="312" y="249" type="curve" smooth="yes"/>
      <point x="312" y="353"/>
      <point x="264" y="411"/>
      <point x="197" y="411" type="curve" smooth="yes"/>
      <point x="158" y="411"/>
      <point x="123" y="395"/>
      <point x="99" y="370" type="curve"/>
      <point x="99" y="307" type="line"/>
      <point x="123" y="333"/>
      <point x="148" y="346"/>
      <point x="177" y="346" type="curve" smooth="yes"/>
      <point x="214" y="346"/>
      <point x="237" y="311"/>
      <point x="237" y="244" type="curve" smooth="yes"/>
      <point x="237" y="176"/>
      <point x="217" y="148"/>
      <point x="185" y="148" type="curve" smooth="yes"/>
      <point x="141" y="148"/>
      <point x="113" y="195"/>
      <point x="113" y="284" type="curve" smooth="yes"/>
      <point x="113" y="309"/>
      <point x="115" y="338"/>
      <point x="122" y="366" type="curve"/>
      <point x="156" y="434"/>
      <point x="247" y="495"/>
      <point x="437" y="495" type="curve" smooth="yes"/>
      <point x="635" y="495"/>
      <point x="753" y="407"/>
      <point x="753" y="240" type="curve" smooth="yes"/>
      <point x="753" y="176"/>
      <point x="737" y="131"/>
      <point x="695" y="131" type="curve" smooth="yes"/>
      <point x="653" y="131"/>
      <point x="641" y="170"/>
      <point x="641" y="211" type="curve" smooth="yes"/>
      <point x="641" y="254"/>
      <point x="651" y="288"/>
      <point x="667" y="326" type="curve"/>
      <point x="592" y="363" type="line"/>
      <point x="505" y="313"/>
      <point x="453" y="226"/>
      <point x="453" y="131" type="curve" smooth="yes"/>
      <point x="453" y="24"/>
      <point x="507" y="-70"/>
      <point x="640" y="-94" type="curve"/>
      <point x="664" y="-98"/>
      <point x="698" y="-103"/>
      <point x="732" y="-103" type="curve" smooth="yes"/>
      <point x="787" y="-103" type="line"/>
      <point x="787" y="-37" type="line"/>
      <point x="750" y="-37" type="line" smooth="yes"/>
      <point x="652" y="-37"/>
      <point x="603" y="-22"/>
      <point x="567" y="13" type="curve" smooth="yes"/>
      <point x="539" y="41"/>
      <point x="524" y="81"/>
      <point x="524" y="134" type="curve" smooth="yes"/>
      <point x="524" y="197"/>
      <point x="550" y="260"/>
      <point x="597" y="297" type="curve"/>
      <point x="599" y="304" type="line"/>
      <point x="585" y="275"/>
      <point x="574" y="245"/>
      <point x="574" y="195" type="curve" smooth="yes"/>
      <point x="574" y="106"/>
      <point x="627" y="64"/>
      <point x="696" y="64" type="curve" smooth="yes"/>
      <point x="805" y="64"/>
      <point x="831" y="167"/>
      <point x="831" y="246" type="curve" smooth="yes"/>
      <point x="831" y="331"/>
      <point x="802" y="401"/>
      <point x="751" y="454" type="curve" smooth="yes"/>
      <point x="681" y="527"/>
      <point x="579" y="566"/>
    </contour>
    <contour>
      <point x="49" y="-131" type="curve" smooth="yes"/>
      <point x="49" y="-267"/>
      <point x="144" y="-321"/>
      <point x="299" y="-321" type="curve" smooth="yes"/>
      <point x="303" y="-321" type="line" smooth="yes"/>
      <point x="468" y="-321"/>
      <point x="577" y="-266"/>
      <point x="650" y="-123" type="curve" smooth="yes"/>
      <point x="668" y="-88" type="line"/>
      <point x="593" y="-55" type="line"/>
      <point x="529" y="-196"/>
      <point x="448" y="-254"/>
      <point x="303" y="-254" type="curve" smooth="yes"/>
      <point x="204" y="-254"/>
      <point x="124" y="-227"/>
      <point x="124" y="-132" type="curve" smooth="yes"/>
      <point x="124" y="-99"/>
      <point x="133" y="-55"/>
      <point x="156" y="-13" type="curve"/>
      <point x="90" y="21" type="line"/>
      <point x="64" y="-29"/>
      <point x="49" y="-80"/>
    </contour>
    <contour>
      <point x="378" y="49" type="curve" smooth="yes"/>
      <point x="357" y="49"/>
      <point x="342" y="42"/>
      <point x="332" y="32" type="curve" smooth="yes"/>
      <point x="316" y="16"/>
      <point x="313" y="-3"/>
      <point x="313" y="-33" type="curve" smooth="yes"/>
      <point x="313" y="-143" type="line"/>
      <point x="261" y="-143" type="line"/>
      <point x="261" y="42" type="line"/>
      <point x="208" y="42" type="line"/>
      <point x="208" y="-186" type="line"/>
      <point x="361" y="-186" type="line" smooth="yes"/>
      <point x="404" y="-186"/>
      <point x="422" y="-178"/>
      <point x="437" y="-164" type="curve" smooth="yes"/>
      <point x="456" y="-146"/>
      <point x="463" y="-121"/>
      <point x="463" y="-79" type="curve" smooth="yes"/>
      <point x="463" y="-43"/>
      <point x="455" y="2"/>
      <point x="428" y="29" type="curve" smooth="yes"/>
      <point x="415" y="42"/>
      <point x="399" y="49"/>
    </contour>
    <contour>
      <point x="379" y="4" type="curve" smooth="yes"/>
      <point x="401" y="4"/>
      <point x="413" y="-33"/>
      <point x="413" y="-80" type="curve" smooth="yes"/>
      <point x="413" y="-122"/>
      <point x="405" y="-143"/>
      <point x="372" y="-143" type="curve" smooth="yes"/>
      <point x="364" y="-143" type="line"/>
      <point x="364" y="-19" type="line" smooth="yes"/>
      <point x="364" y="-3"/>
      <point x="370" y="4"/>
    </contour>
    <contour>
      <point x="368" y="84" type="curve" smooth="yes"/>
      <point x="394" y="84"/>
      <point x="405" y="100"/>
      <point x="405" y="125" type="curve" smooth="yes"/>
      <point x="405" y="151"/>
      <point x="391" y="167"/>
      <point x="369" y="167" type="curve" smooth="yes"/>
      <point x="346" y="167"/>
      <point x="332" y="151"/>
      <point x="332" y="125" type="curve" smooth="yes"/>
      <point x="332" y="100"/>
      <point x="343" y="84"/>
    </contour>
  </outline>
</glyph>
<glyph name="zerotamil" format="2">
  <advance width="490"/>
  <unicode hex="0BE6"/>
  <outline>
    <contour>
      <point x="246" y="-12" type="curve" smooth="yes"/>
      <point x="366" y="-12"/>
      <point x="442" y="91"/>
      <point x="442" y="279" type="curve" smooth="yes"/>
      <point x="442" y="446"/>
      <point x="377" y="566"/>
      <point x="245" y="566" type="curve" smooth="yes"/>
      <point x="127" y="566"/>
      <point x="47" y="468"/>
      <point x="47" y="279" type="curve" smooth="yes"/>
      <point x="47" y="86"/>
      <point x="125" y="-12"/>
    </contour>
    <contour>
      <point x="245" y="498" type="curve" smooth="yes"/>
      <point x="317" y="498"/>
      <point x="362" y="425"/>
      <point x="362" y="278" type="curve" smooth="yes"/>
      <point x="362" y="129"/>
      <point x="317" y="56"/>
      <point x="245" y="56" type="curve" smooth="yes"/>
      <point x="171" y="56"/>
      <point x="127" y="131"/>
      <point x="127" y="278" type="curve" smooth="yes"/>
      <point x="127" y="423"/>
      <point x="171" y="498"/>
    </contour>
  </outline>
</glyph>
<glyph name="twotamil" format="2">
  <advance width="770"/>
  <unicode hex="0BE8"/>
  <outline>
    <contour>
      <point x="229" y="566" type="curve" smooth="yes"/>
      <point x="107" y="566"/>
      <point x="43" y="481"/>
      <point x="43" y="383" type="curve" smooth="yes"/>
      <point x="43" y="280"/>
      <point x="105" y="205"/>
      <point x="175" y="145" type="curve"/>
      <point x="233" y="174" type="line"/>
      <point x="182" y="219"/>
      <point x="122" y="292"/>
      <point x="122" y="383" type="curve" smooth="yes"/>
      <point x="122" y="446"/>
      <point x="153" y="498"/>
      <point x="232" y="498" type="curve" smooth="yes"/>
      <point x="317" y="498"/>
      <point x="369" y="430"/>
      <point x="369" y="349" type="curve" smooth="yes"/>
      <point x="369" y="281"/>
      <point x="348" y="224"/>
      <point x="221" y="203" type="curve"/>
      <point x="163" y="194" type="line" smooth="yes"/>
      <point x="81" y="181"/>
      <point x="38" y="152"/>
      <point x="38" y="96" type="curve" smooth="yes"/>
      <point x="38" y="38"/>
      <point x="73" y="0"/>
      <point x="169" y="0" type="curve" smooth="yes"/>
      <point x="754" y="0" type="line"/>
      <point x="754" y="67" type="line"/>
      <point x="158" y="67" type="line" smooth="yes"/>
      <point x="126" y="67"/>
      <point x="115" y="76"/>
      <point x="115" y="92" type="curve" smooth="yes"/>
      <point x="115" y="111"/>
      <point x="130" y="119"/>
      <point x="171" y="126" type="curve"/>
      <point x="235" y="136" type="line" smooth="yes"/>
      <point x="351" y="154"/>
      <point x="448" y="208"/>
      <point x="448" y="349" type="curve" smooth="yes"/>
      <point x="448" y="458"/>
      <point x="377" y="566"/>
    </contour>
  </outline>
</glyph>
<glyph name="fivetamil" format="2">
  <advance width="806"/>
  <unicode hex="0BEB"/>
  <outline>
    <contour>
      <point x="420" y="-321" type="curve" smooth="yes"/>
      <point x="431" y="-321" type="line"/>
      <point x="608" y="-321"/>
      <point x="767" y="-218"/>
      <point x="767" y="73" type="curve" smooth="yes"/>
      <point x="767" y="247"/>
      <point x="702" y="319"/>
      <point x="617" y="319" type="curve" smooth="yes"/>
      <point x="580" y="319"/>
      <point x="549" y="305"/>
      <point x="527" y="289" type="curve"/>
      <point x="531" y="221" type="line"/>
      <point x="548" y="238"/>
      <point x="572" y="251"/>
      <point x="599" y="251" type="curve" smooth="yes"/>
      <point x="649" y="251"/>
      <point x="687" y="210"/>
      <point x="687" y="73" type="curve" smooth="yes"/>
      <point x="687" y="-166"/>
      <point x="572" y="-249"/>
      <point x="428" y="-249" type="curve" smooth="yes"/>
      <point x="419" y="-249" type="line" smooth="yes"/>
      <point x="219" y="-249"/>
      <point x="135" y="-104"/>
      <point x="135" y="225" type="curve" smooth="yes"/>
      <point x="135" y="247" type="line" smooth="yes"/>
      <point x="135" y="631"/>
      <point x="274" y="773"/>
      <point x="469" y="773" type="curve" smooth="yes"/>
      <point x="562" y="773"/>
      <point x="632" y="745"/>
      <point x="714" y="695" type="curve"/>
      <point x="749" y="763" type="line"/>
      <point x="657" y="812"/>
      <point x="579" y="843"/>
      <point x="471" y="843" type="curve" smooth="yes"/>
      <point x="218" y="843"/>
      <point x="56" y="651"/>
      <point x="56" y="256" type="curve" smooth="yes"/>
      <point x="56" y="213" type="line" smooth="yes"/>
      <point x="56" y="-130"/>
      <point x="169" y="-321"/>
    </contour>
    <contour>
      <point x="275" y="0" type="line"/>
      <point x="354" y="0" type="line"/>
      <point x="354" y="487" type="line"/>
      <point x="472" y="487" type="line"/>
      <point x="472" y="0" type="line"/>
      <point x="551" y="0" type="line"/>
      <point x="551" y="487" type="line"/>
      <point x="666" y="487" type="line"/>
      <point x="666" y="554" type="line"/>
      <point x="275" y="554" type="line"/>
    </contour>
  </outline>
</glyph>
<glyph name="sixtamil" format="2">
  <advance width="774"/>
  <unicode hex="0BEC"/>
  <outline>
    <contour>
      <point x="203" y="-12" type="curve" smooth="yes"/>
      <point x="269" y="-12"/>
      <point x="320" y="6"/>
      <point x="351" y="57" type="curve" smooth="yes"/>
      <point x="373" y="92"/>
      <point x="384" y="137"/>
      <point x="384" y="227" type="curve" smooth="yes"/>
      <point x="384" y="487" type="line"/>
      <point x="519" y="487" type="line"/>
      <point x="519" y="554" type="line"/>
      <point x="117" y="554" type="line"/>
      <point x="117" y="286" type="line"/>
      <point x="189" y="302" type="line"/>
      <point x="189" y="487" type="line"/>
      <point x="307" y="487" type="line"/>
      <point x="307" y="204" type="line" smooth="yes"/>
      <point x="307" y="88"/>
      <point x="269" y="55"/>
      <point x="210" y="55" type="curve" smooth="yes"/>
      <point x="152" y="55"/>
      <point x="118" y="87"/>
      <point x="118" y="153" type="curve" smooth="yes"/>
      <point x="118" y="193"/>
      <point x="129" y="220"/>
      <point x="149" y="237" type="curve" smooth="yes"/>
      <point x="172" y="256"/>
      <point x="206" y="262"/>
      <point x="257" y="262" type="curve" smooth="yes"/>
      <point x="751" y="262" type="line"/>
      <point x="751" y="328" type="line"/>
      <point x="265" y="328" type="line" smooth="yes"/>
      <point x="113" y="328"/>
      <point x="39" y="265"/>
      <point x="39" y="152" type="curve" smooth="yes"/>
      <point x="39" y="47"/>
      <point x="108" y="-12"/>
    </contour>
    <contour>
      <point x="460" y="0" type="line"/>
      <point x="535" y="0" type="line"/>
      <point x="535" y="267" type="line"/>
      <point x="460" y="275" type="line"/>
    </contour>
    <contour>
      <point x="613" y="0" type="line"/>
      <point x="688" y="0" type="line"/>
      <point x="688" y="267" type="line"/>
      <point x="613" y="275" type="line"/>
    </contour>
  </outline>
</glyph>
<glyph name="eighttamil" format="2">
  <advance width="843"/>
  <unicode hex="0BEE"/>
  <outline>
    <contour>
      <point x="258" y="-120" type="curve" smooth="yes"/>
      <point x="269" y="-120" type="line" smooth="yes"/>
      <point x="439" y="-120"/>
      <point x="560" y="-24"/>
      <point x="595" y="130" type="curve"/>
      <point x="599" y="152" type="line"/>
      <point x="604" y="184"/>
      <point x="607" y="218"/>
      <point x="607" y="258" type="curve" smooth="yes"/>
      <point x="607" y="432"/>
      <point x="531" y="566"/>
      <point x="390" y="566" type="curve" smooth="yes"/>
      <point x="272" y="566"/>
      <point x="211" y="485"/>
      <point x="211" y="381" type="curve" smooth="yes"/>
      <point x="211" y="269"/>
      <point x="275" y="193"/>
      <point x="344" y="126" type="curve"/>
      <point x="401" y="161" type="line"/>
      <point x="348" y="214"/>
      <point x="290" y="286"/>
      <point x="290" y="375" type="curve" smooth="yes"/>
      <point x="290" y="457"/>
      <point x="330" y="498"/>
      <point x="389" y="498" type="curve" smooth="yes"/>
      <point x="477" y="498"/>
      <point x="531" y="398"/>
      <point x="531" y="258" type="curve" smooth="yes"/>
      <point x="531" y="217"/>
      <point x="528" y="183"/>
      <point x="521" y="150" type="curve"/>
      <point x="520" y="131" type="line"/>
      <point x="491" y="29"/>
      <point x="413" y="-52"/>
      <point x="265" y="-52" type="curve" smooth="yes"/>
      <point x="258" y="-52" type="line" smooth="yes"/>
      <point x="157" y="-52"/>
      <point x="101" y="-8"/>
      <point x="101" y="56" type="curve" smooth="yes"/>
      <point x="101" y="74"/>
      <point x="106" y="87"/>
      <point x="117" y="96" type="curve" smooth="yes"/>
      <point x="127" y="104"/>
      <point x="137" y="108"/>
      <point x="184" y="108" type="curve" smooth="yes"/>
      <point x="700" y="108" type="line"/>
      <point x="708" y="175" type="line"/>
      <point x="187" y="175" type="line" smooth="yes"/>
      <point x="120" y="175"/>
      <point x="92" y="168"/>
      <point x="66" y="151" type="curve" smooth="yes"/>
      <point x="39" y="133"/>
      <point x="23" y="104"/>
      <point x="23" y="60" type="curve" smooth="yes"/>
      <point x="23" y="-46"/>
      <point x="104" y="-120"/>
    </contour>
    <contour>
      <point x="696" y="-154" type="line"/>
      <point x="775" y="-154" type="line"/>
      <point x="775" y="554" type="line"/>
      <point x="696" y="554" type="line"/>
    </contour>
  </outline>
</glyph>
<glyph name="ninetamil" format="2">
  <advance width="904"/>
  <unicode hex="0BEF"/>
  <outline>
    <contour>
      <point x="203" y="-12" type="curve" smooth="yes"/>
      <point x="269" y="-12"/>
      <point x="320" y="6"/>
      <point x="351" y="57" type="curve" smooth="yes"/>
      <point x="373" y="92"/>
      <point x="384" y="137"/>
      <point x="384" y="227" type="curve" smooth="yes"/>
      <point x="384" y="487" type="line"/>
      <point x="519" y="487" type="line"/>
      <point x="519" y="554" type="line"/>
      <point x="117" y="554" type="line"/>
      <point x="117" y="286" type="line"/>
      <point x="189" y="302" type="line"/>
      <point x="189" y="487" type="line"/>
      <point x="307" y="487" type="line"/>
      <point x="307" y="204" type="line" smooth="yes"/>
      <point x="307" y="88"/>
      <point x="269" y="55"/>
      <point x="210" y="55" type="curve" smooth="yes"/>
      <point x="152" y="55"/>
      <point x="118" y="87"/>
      <point x="118" y="153" type="curve" smooth="yes"/>
      <point x="118" y="193"/>
      <point x="129" y="220"/>
      <point x="149" y="237" type="curve" smooth="yes"/>
      <point x="172" y="256"/>
      <point x="206" y="262"/>
      <point x="257" y="262" type="curve" smooth="yes"/>
      <point x="447" y="262" type="line"/>
      <point x="449" y="328" type="line"/>
      <point x="265" y="328" type="line" smooth="yes"/>
      <point x="113" y="328"/>
      <point x="39" y="265"/>
      <point x="39" y="152" type="curve" smooth="yes"/>
      <point x="39" y="47"/>
      <point x="108" y="-12"/>
    </contour>
    <contour>
      <point x="581" y="-12" type="curve" smooth="yes"/>
      <point x="666" y="-12"/>
      <point x="704" y="52"/>
      <point x="704" y="141" type="curve" smooth="yes"/>
      <point x="704" y="241"/>
      <point x="654" y="303"/>
      <point x="558" y="321" type="curve"/>
      <point x="539" y="325" type="line"/>
      <point x="529" y="327"/>
      <point x="511" y="328"/>
      <point x="483" y="328" type="curve" smooth="yes"/>
      <point x="421" y="328" type="line"/>
      <point x="420" y="262" type="line"/>
      <point x="511" y="262" type="line" smooth="yes"/>
      <point x="597" y="262"/>
      <point x="630" y="206"/>
      <point x="630" y="137" type="curve" smooth="yes"/>
      <point x="630" y="84"/>
      <point x="615" y="52"/>
      <point x="582" y="52" type="curve" smooth="yes"/>
      <point x="552" y="52"/>
      <point x="527" y="75"/>
      <point x="527" y="146" type="curve" smooth="yes"/>
      <point x="527" y="199"/>
      <point x="542" y="244"/>
      <point x="570" y="276" type="curve"/>
      <point x="587" y="295" type="line"/>
      <point x="608" y="311"/>
      <point x="630" y="320"/>
      <point x="670" y="320" type="curve" smooth="yes"/>
      <point x="736" y="320"/>
      <point x="785" y="268"/>
      <point x="785" y="177" type="curve" smooth="yes"/>
      <point x="785" y="121"/>
      <point x="770" y="68"/>
      <point x="747" y="21" type="curve"/>
      <point x="817" y="-11" type="line"/>
      <point x="847" y="51"/>
      <point x="864" y="104"/>
      <point x="864" y="185" type="curve" smooth="yes"/>
      <point x="864" y="303"/>
      <point x="789" y="386"/>
      <point x="675" y="386" type="curve" smooth="yes"/>
      <point x="601" y="386"/>
      <point x="543" y="352"/>
      <point x="506" y="309" type="curve"/>
      <point x="496" y="290" type="line"/>
      <point x="469" y="250"/>
      <point x="456" y="203"/>
      <point x="456" y="147" type="curve" smooth="yes"/>
      <point x="456" y="52"/>
      <point x="500" y="-12"/>
    </contour>
  </outline>
</glyph>
<glyph name="tentamil" format="2">
  <advance width="666"/>
  <unicode hex="0BF0"/>
  <outline>
    <contour>
      <point x="199" y="-12" type="curve" smooth="yes"/>
      <point x="265" y="-12"/>
      <point x="302" y="32"/>
      <point x="329" y="108" type="curve"/>
      <point x="293" y="103" type="line"/>
      <point x="316" y="39"/>
      <point x="354" y="-12"/>
      <point x="436" y="-12" type="curve" smooth="yes"/>
      <point x="553" y="-12"/>
      <point x="612" y="86"/>
      <point x="612" y="341" type="curve" smooth="yes"/>
      <point x="612" y="415" type="line" smooth="yes"/>
      <point x="612" y="559"/>
      <point x="597" y="719"/>
      <point x="500" y="798" type="curve" smooth="yes"/>
      <point x="465" y="827"/>
      <point x="417" y="843"/>
      <point x="359" y="843" type="curve" smooth="yes"/>
      <point x="314" y="843"/>
      <point x="263" y="832"/>
      <point x="222" y="814" type="curve"/>
      <point x="245" y="749" type="line"/>
      <point x="280" y="765"/>
      <point x="318" y="774"/>
      <point x="357" y="774" type="curve" smooth="yes"/>
      <point x="469" y="774"/>
      <point x="533" y="682"/>
      <point x="533" y="387" type="curve" smooth="yes"/>
      <point x="533" y="106"/>
      <point x="496" y="56"/>
      <point x="431" y="56" type="curve" smooth="yes"/>
      <point x="407" y="56"/>
      <point x="389" y="65"/>
      <point x="375" y="81" type="curve" smooth="yes"/>
      <point x="355" y="104"/>
      <point x="346" y="142"/>
      <point x="346" y="206" type="curve" smooth="yes"/>
      <point x="346" y="554" type="line"/>
      <point x="267" y="554" type="line"/>
      <point x="267" y="197" type="line" smooth="yes"/>
      <point x="267" y="150"/>
      <point x="265" y="112"/>
      <point x="253" y="87" type="curve" smooth="yes"/>
      <point x="244" y="68"/>
      <point x="230" y="56"/>
      <point x="206" y="56" type="curve" smooth="yes"/>
      <point x="187" y="56"/>
      <point x="173" y="64"/>
      <point x="164" y="76" type="curve" smooth="yes"/>
      <point x="146" y="99"/>
      <point x="144" y="140"/>
      <point x="144" y="194" type="curve" smooth="yes"/>
      <point x="144" y="554" type="line"/>
      <point x="65" y="554" type="line"/>
      <point x="65" y="184" type="line" smooth="yes"/>
      <point x="65" y="105"/>
      <point x="75" y="62"/>
      <point x="103" y="28" type="curve" smooth="yes"/>
      <point x="121" y="6"/>
      <point x="150" y="-12"/>
    </contour>
  </outline>
</glyph>
<glyph name="hundredtamil" format="2">
  <advance width="671"/>
  <unicode hex="0BF1"/>
  <outline>
    <contour>
      <point x="264" y="0" type="line"/>
      <point x="343" y="0" type="line"/>
      <point x="343" y="487" type="line"/>
      <point x="461" y="487" type="line"/>
      <point x="461" y="0" type="line"/>
      <point x="540" y="0" type="line"/>
      <point x="540" y="487" type="line"/>
      <point x="655" y="487" type="line"/>
      <point x="655" y="554" type="line"/>
      <point x="264" y="554" type="line"/>
    </contour>
    <contour>
      <point x="182" y="563" type="curve" smooth="yes"/>
      <point x="139" y="563"/>
      <point x="113" y="546"/>
      <point x="95" y="520" type="curve" smooth="yes"/>
      <point x="72" y="486"/>
      <point x="67" y="448"/>
      <point x="67" y="379" type="curve" smooth="yes"/>
      <point x="67" y="0" type="line"/>
      <point x="146" y="0" type="line"/>
      <point x="146" y="368" type="line" smooth="yes"/>
      <point x="146" y="432"/>
      <point x="151" y="461"/>
      <point x="166" y="480" type="curve" smooth="yes"/>
      <point x="174" y="490"/>
      <point x="186" y="496"/>
      <point x="205" y="496" type="curve" smooth="yes"/>
      <point x="230" y="496"/>
      <point x="251" y="487"/>
      <point x="278" y="452" type="curve"/>
      <point x="278" y="520" type="line"/>
      <point x="258" y="547"/>
      <point x="222" y="563"/>
    </contour>
  </outline>
</glyph>
<glyph name="thousandtamil" format="2">
  <advance width="738"/>
  <unicode hex="0BF2"/>
  <outline>
    <contour>
      <point x="605" y="175" type="curve" smooth="yes"/>
      <point x="579" y="175"/>
      <point x="550" y="166"/>
      <point x="530" y="151" type="curve"/>
      <point x="533" y="87" type="line"/>
      <point x="550" y="101"/>
      <point x="568" y="109"/>
      <point x="588" y="109" type="curve" smooth="yes"/>
      <point x="631" y="109"/>
      <point x="647" y="75"/>
      <point x="647" y="29" type="curve" smooth="yes"/>
      <point x="647" y="-7"/>
      <point x="640" y="-31"/>
      <point x="625" y="-49" type="curve" smooth="yes"/>
      <point x="605" y="-73"/>
      <point x="576" y="-85"/>
      <point x="505" y="-85" type="curve" smooth="yes"/>
      <point x="238" y="-85" type="line" smooth="yes"/>
      <point x="167" y="-85"/>
      <point x="125" y="-95"/>
      <point x="91" y="-121" type="curve" smooth="yes"/>
      <point x="58" y="-146"/>
      <point x="37" y="-185"/>
      <point x="37" y="-243" type="curve" smooth="yes"/>
      <point x="37" y="-266"/>
      <point x="40" y="-297"/>
      <point x="44" y="-321" type="curve"/>
      <point x="120" y="-317" type="line"/>
      <point x="118" y="-301"/>
      <point x="117" y="-277"/>
      <point x="117" y="-261" type="curve" smooth="yes"/>
      <point x="117" y="-224"/>
      <point x="126" y="-197"/>
      <point x="146" y="-179" type="curve" smooth="yes"/>
      <point x="167" y="-160"/>
      <point x="191" y="-152"/>
      <point x="250" y="-152" type="curve" smooth="yes"/>
      <point x="502" y="-152" type="line" smooth="yes"/>
      <point x="592" y="-152"/>
      <point x="650" y="-137"/>
      <point x="685" y="-96" type="curve" smooth="yes"/>
      <point x="710" y="-67"/>
      <point x="725" y="-30"/>
      <point x="725" y="33" type="curve" smooth="yes"/>
      <point x="725" y="117"/>
      <point x="680" y="175"/>
    </contour>
    <contour>
      <point x="203" y="-12" type="curve" smooth="yes"/>
      <point x="269" y="-12"/>
      <point x="320" y="6"/>
      <point x="351" y="57" type="curve" smooth="yes"/>
      <point x="373" y="92"/>
      <point x="384" y="137"/>
      <point x="384" y="227" type="curve" smooth="yes"/>
      <point x="384" y="487" type="line"/>
      <point x="519" y="487" type="line"/>
      <point x="519" y="554" type="line"/>
      <point x="117" y="554" type="line"/>
      <point x="117" y="286" type="line"/>
      <point x="189" y="302" type="line"/>
      <point x="189" y="487" type="line"/>
      <point x="307" y="487" type="line"/>
      <point x="307" y="204" type="line" smooth="yes"/>
      <point x="307" y="88"/>
      <point x="269" y="55"/>
      <point x="210" y="55" type="curve" smooth="yes"/>
      <point x="152" y="55"/>
      <point x="118" y="87"/>
      <point x="118" y="153" type="curve" smooth="yes"/>
      <point x="118" y="193"/>
      <point x="129" y="220"/>
      <point x="149" y="237" type="curve" smooth="yes"/>
      <point x="172" y="256"/>
      <point x="206" y="262"/>
      <point x="257" y="262" type="curve" smooth="yes"/>
      <point x="633" y="262" type="line"/>
      <point x="633" y="328" type="line"/>
      <point x="265" y="328" type="line" smooth="yes"/>
      <point x="113" y="328"/>
      <point x="39" y="265"/>
      <point x="39" y="152" type="curve" smooth="yes"/>
      <point x="39" y="47"/>
      <point x="108" y="-12"/>
    </contour>
    <contour>
      <point x="474" y="0" type="line"/>
      <point x="549" y="0" type="line"/>
      <point x="549" y="267" type="line"/>
      <point x="474" y="275" type="line"/>
    </contour>
  </outline>
</glyph>
<glyph name="monthsigntamil" format="2">
  <advance width="952"/>
  <unicode hex="0BF4"/>
  <outline>
    <contour>
      <point x="434" y="566" type="curve" smooth="yes"/>
      <point x="392" y="566"/>
      <point x="362" y="553"/>
      <point x="341" y="532" type="curve" smooth="yes"/>
      <point x="309" y="499"/>
      <point x="297" y="454"/>
      <point x="297" y="387" type="curve" smooth="yes"/>
      <point x="297" y="67" type="line"/>
      <point x="146" y="67" type="line"/>
      <point x="146" y="554" type="line"/>
      <point x="67" y="554" type="line"/>
      <point x="67" y="0" type="line"/>
      <point x="383" y="0" type="line" smooth="yes"/>
      <point x="473" y="0"/>
      <point x="512" y="17"/>
      <point x="546" y="52" type="curve" smooth="yes"/>
      <point x="588" y="95"/>
      <point x="603" y="166"/>
      <point x="603" y="268" type="curve" smooth="yes"/>
      <point x="603" y="446"/>
      <point x="551" y="566"/>
    </contour>
    <contour>
      <point x="436" y="499" type="curve" smooth="yes"/>
      <point x="500" y="499"/>
      <point x="523" y="396"/>
      <point x="523" y="267" type="curve" smooth="yes"/>
      <point x="523" y="120"/>
      <point x="495" y="67"/>
      <point x="398" y="67" type="curve" smooth="yes"/>
      <point x="376" y="67" type="line"/>
      <point x="376" y="373" type="line" smooth="yes"/>
      <point x="376" y="435"/>
      <point x="383" y="465"/>
      <point x="399" y="483" type="curve" smooth="yes"/>
      <point x="408" y="493"/>
      <point x="420" y="499"/>
    </contour>
    <contour>
      <point x="647" y="494" type="curve" smooth="yes"/>
      <point x="703" y="494"/>
      <point x="735" y="532"/>
      <point x="735" y="599" type="curve" smooth="yes"/>
      <point x="735" y="638"/>
      <point x="724" y="667"/>
      <point x="701" y="685" type="curve" smooth="yes"/>
      <point x="682" y="701"/>
      <point x="656" y="709"/>
      <point x="613" y="709" type="curve" smooth="yes"/>
      <point x="593" y="709" type="line" smooth="yes"/>
      <point x="509" y="709"/>
      <point x="445" y="658"/>
      <point x="445" y="554" type="curve"/>
      <point x="502" y="519" type="line"/>
      <point x="502" y="554" type="line" smooth="yes"/>
      <point x="502" y="597"/>
      <point x="520" y="656"/>
      <point x="582" y="656" type="curve" smooth="yes"/>
      <point x="613" y="656" type="line" smooth="yes"/>
      <point x="641" y="656"/>
      <point x="655" y="651"/>
      <point x="665" y="641" type="curve" smooth="yes"/>
      <point x="675" y="631"/>
      <point x="679" y="615"/>
      <point x="679" y="597" type="curve" smooth="yes"/>
      <point x="679" y="563"/>
      <point x="664" y="550"/>
      <point x="646" y="550" type="curve" smooth="yes"/>
      <point x="618" y="550"/>
      <point x="606" y="578"/>
      <point x="606" y="635" type="curve" smooth="yes"/>
      <point x="606" y="660"/>
      <point x="607" y="677"/>
      <point x="610" y="692" type="curve" smooth="yes"/>
      <point x="623" y="757"/>
      <point x="661" y="786"/>
      <point x="706" y="786" type="curve" smooth="yes"/>
      <point x="763" y="786"/>
      <point x="796" y="737"/>
      <point x="796" y="658" type="curve" smooth="yes"/>
      <point x="796" y="605"/>
      <point x="785" y="574"/>
      <point x="768" y="534" type="curve"/>
      <point x="768" y="496" type="line"/>
      <point x="938" y="496" type="line"/>
      <point x="938" y="552" type="line"/>
      <point x="821" y="552" type="line"/>
      <point x="835" y="546" type="line"/>
      <point x="854" y="589"/>
      <point x="861" y="630"/>
      <point x="861" y="673" type="curve" smooth="yes"/>
      <point x="861" y="773"/>
      <point x="806" y="843"/>
      <point x="709" y="843" type="curve" smooth="yes"/>
      <point x="638" y="843"/>
      <point x="573" y="797"/>
      <point x="554" y="697" type="curve" smooth="yes"/>
      <point x="551" y="681"/>
      <point x="549" y="662"/>
      <point x="549" y="639" type="curve" smooth="yes"/>
      <point x="549" y="541"/>
      <point x="588" y="494"/>
    </contour>
  </outline>
</glyph>
<glyph name="yearsigntamil" format="2">
  <advance width="1695"/>
  <unicode hex="0BF5"/>
  <outline>
    <contour>
      <point x="730" y="771" type="curve" smooth="yes"/>
      <point x="956" y="771"/>
      <point x="1097" y="737"/>
      <point x="1192" y="647" type="curve" smooth="yes"/>
      <point x="1281" y="562"/>
      <point x="1312" y="440"/>
      <point x="1322" y="262" type="curve" smooth="yes"/>
      <point x="1327" y="170"/>
      <point x="1331" y="90"/>
      <point x="1371" y="39" type="curve" smooth="yes"/>
      <point x="1400" y="2"/>
      <point x="1435" y="-12"/>
      <point x="1480" y="-12" type="curve" smooth="yes"/>
      <point x="1592" y="-12"/>
      <point x="1646" y="67"/>
      <point x="1646" y="245" type="curve" smooth="yes"/>
      <point x="1646" y="376"/>
      <point x="1608" y="498"/>
      <point x="1547" y="596" type="curve"/>
      <point x="1472" y="556" type="line"/>
      <point x="1527" y="477"/>
      <point x="1567" y="359"/>
      <point x="1567" y="235" type="curve" smooth="yes"/>
      <point x="1567" y="94"/>
      <point x="1531" y="57"/>
      <point x="1485" y="57" type="curve" smooth="yes"/>
      <point x="1461" y="57"/>
      <point x="1446" y="66"/>
      <point x="1434" y="81" type="curve" smooth="yes"/>
      <point x="1409" y="113"/>
      <point x="1401" y="187"/>
      <point x="1399" y="253" type="curve" smooth="yes"/>
      <point x="1392" y="476"/>
      <point x="1345" y="614"/>
      <point x="1237" y="708" type="curve" smooth="yes"/>
      <point x="1129" y="802"/>
      <point x="981" y="843"/>
      <point x="740" y="843" type="curve" smooth="yes"/>
      <point x="724" y="843" type="line" smooth="yes"/>
      <point x="284" y="843"/>
      <point x="49" y="630"/>
      <point x="49" y="284" type="curve" smooth="yes"/>
      <point x="49" y="268" type="line" smooth="yes"/>
      <point x="49" y="-93"/>
      <point x="263" y="-321"/>
      <point x="679" y="-321" type="curve" smooth="yes"/>
      <point x="726" y="-321" type="line" smooth="yes"/>
      <point x="995" y="-321"/>
      <point x="1259" y="-206"/>
      <point x="1259" y="100" type="curve" smooth="yes"/>
      <point x="1259" y="228"/>
      <point x="1216" y="319"/>
      <point x="1119" y="319" type="curve" smooth="yes"/>
      <point x="1098" y="319"/>
      <point x="1076" y="313"/>
      <point x="1060" y="306" type="curve"/>
      <point x="1060" y="487" type="line"/>
      <point x="1168" y="487" type="line"/>
      <point x="1168" y="554" type="line"/>
      <point x="788" y="554" type="line"/>
      <point x="788" y="0" type="line"/>
      <point x="867" y="0" type="line"/>
      <point x="867" y="487" type="line"/>
      <point x="981" y="487" type="line"/>
      <point x="981" y="0" type="line"/>
      <point x="1060" y="0" type="line"/>
      <point x="1060" y="237" type="line"/>
      <point x="1074" y="247"/>
      <point x="1089" y="251"/>
      <point x="1105" y="251" type="curve" smooth="yes"/>
      <point x="1153" y="251"/>
      <point x="1180" y="200"/>
      <point x="1180" y="100" type="curve" smooth="yes"/>
      <point x="1180" y="-148"/>
      <point x="978" y="-249"/>
      <point x="713" y="-249" type="curve" smooth="yes"/>
      <point x="684" y="-249" type="line" smooth="yes"/>
      <point x="312" y="-249"/>
      <point x="128" y="-58"/>
      <point x="128" y="262" type="curve" smooth="yes"/>
      <point x="128" y="285" type="line" smooth="yes"/>
      <point x="128" y="605"/>
      <point x="339" y="771"/>
    </contour>
    <contour>
      <point x="384" y="-12" type="curve" smooth="yes"/>
      <point x="470" y="-12"/>
      <point x="518" y="46"/>
      <point x="518" y="160" type="curve" smooth="yes"/>
      <point x="518" y="265"/>
      <point x="469" y="328"/>
      <point x="391" y="328" type="curve" smooth="yes"/>
      <point x="337" y="328"/>
      <point x="294" y="295"/>
      <point x="263" y="257" type="curve"/>
      <point x="278" y="202" type="line"/>
      <point x="298" y="231"/>
      <point x="335" y="262"/>
      <point x="375" y="262" type="curve" smooth="yes"/>
      <point x="416" y="262"/>
      <point x="441" y="226"/>
      <point x="441" y="155" type="curve" smooth="yes"/>
      <point x="441" y="84"/>
      <point x="420" y="52"/>
      <point x="384" y="52" type="curve" smooth="yes"/>
      <point x="339" y="52"/>
      <point x="306" y="94"/>
      <point x="306" y="240" type="curve" smooth="yes"/>
      <point x="306" y="381"/>
      <point x="361" y="497"/>
      <point x="468" y="497" type="curve" smooth="yes"/>
      <point x="556" y="497"/>
      <point x="611" y="421"/>
      <point x="611" y="279" type="curve" smooth="yes"/>
      <point x="611" y="176"/>
      <point x="590" y="110"/>
      <point x="574" y="63" type="curve"/>
      <point x="582" y="0" type="line"/>
      <point x="836" y="0" type="line"/>
      <point x="838" y="67" type="line"/>
      <point x="653" y="67" type="line"/>
      <point x="672" y="124"/>
      <point x="692" y="199"/>
      <point x="692" y="289" type="curve" smooth="yes"/>
      <point x="692" y="442"/>
      <point x="623" y="566"/>
      <point x="470" y="566" type="curve" smooth="yes"/>
      <point x="337" y="566"/>
      <point x="234" y="458"/>
      <point x="234" y="243" type="curve" smooth="yes"/>
      <point x="234" y="54"/>
      <point x="298" y="-12"/>
    </contour>
  </outline>
</glyph>
<glyph name="debitsigntamil" format="2">
  <advance width="792"/>
  <unicode hex="0BF6"/>
  <outline>
    <contour>
      <point x="210" y="-321" type="curve" smooth="yes"/>
      <point x="333" y="-321"/>
      <point x="450" y="-272"/>
      <point x="499" y="-133" type="curve"/>
      <point x="503" y="-99" type="line"/>
      <point x="508" y="-73"/>
      <point x="511" y="-44"/>
      <point x="511" y="-12" type="curve" smooth="yes"/>
      <point x="511" y="108" type="line"/>
      <point x="432" y="74" type="line"/>
      <point x="432" y="-28" type="line" smooth="yes"/>
      <point x="432" y="-54"/>
      <point x="429" y="-78"/>
      <point x="424" y="-99" type="curve"/>
      <point x="412" y="-143" type="line"/>
      <point x="375" y="-226"/>
      <point x="295" y="-253"/>
      <point x="215" y="-253" type="curve" smooth="yes"/>
      <point x="144" y="-253"/>
      <point x="108" y="-226"/>
      <point x="108" y="-184" type="curve" smooth="yes"/>
      <point x="108" y="-161"/>
      <point x="117" y="-152"/>
      <point x="148" y="-152" type="curve" smooth="yes"/>
      <point x="423" y="-152" type="line"/>
      <point x="461" y="-152" type="line"/>
      <point x="724" y="-152" type="line"/>
      <point x="724" y="554" type="line"/>
      <point x="645" y="554" type="line"/>
      <point x="645" y="-85" type="line"/>
      <point x="151" y="-85" type="line" smooth="yes"/>
      <point x="102" y="-85"/>
      <point x="79" y="-93"/>
      <point x="63" y="-105" type="curve" smooth="yes"/>
      <point x="44" y="-119"/>
      <point x="32" y="-140"/>
      <point x="32" y="-175" type="curve" smooth="yes"/>
      <point x="32" y="-263"/>
      <point x="102" y="-321"/>
    </contour>
    <contour>
      <point x="468" y="0" type="line"/>
      <point x="468" y="67" type="line"/>
      <point x="146" y="67" type="line"/>
      <point x="146" y="554" type="line"/>
      <point x="67" y="554" type="line"/>
      <point x="67" y="0" type="line"/>
    </contour>
    <contour>
      <point x="511" y="554" type="line"/>
      <point x="432" y="554" type="line"/>
      <point x="432" y="62" type="line"/>
      <point x="511" y="82" type="line"/>
    </contour>
  </outline>
</glyph>
<glyph name="creditsigntamil" format="2">
  <advance width="1059"/>
  <unicode hex="0BF7"/>
  <outline>
    <contour>
      <point x="196" y="-12" type="curve" smooth="yes"/>
      <point x="282" y="-12"/>
      <point x="330" y="46"/>
      <point x="330" y="160" type="curve" smooth="yes"/>
      <point x="330" y="265"/>
      <point x="281" y="328"/>
      <point x="203" y="328" type="curve" smooth="yes"/>
      <point x="149" y="328"/>
      <point x="106" y="295"/>
      <point x="75" y="257" type="curve"/>
      <point x="90" y="202" type="line"/>
      <point x="110" y="231"/>
      <point x="147" y="262"/>
      <point x="187" y="262" type="curve" smooth="yes"/>
      <point x="228" y="262"/>
      <point x="253" y="226"/>
      <point x="253" y="154" type="curve" smooth="yes"/>
      <point x="253" y="84"/>
      <point x="231" y="52"/>
      <point x="196" y="52" type="curve" smooth="yes"/>
      <point x="151" y="52"/>
      <point x="118" y="94"/>
      <point x="118" y="228" type="curve" smooth="yes"/>
      <point x="118" y="319"/>
      <point x="140" y="383"/>
      <point x="188" y="430" type="curve" smooth="yes"/>
      <point x="224" y="466"/>
      <point x="281" y="487"/>
      <point x="363" y="487" type="curve" smooth="yes"/>
      <point x="386" y="487" type="line"/>
      <point x="401" y="554" type="line"/>
      <point x="383" y="554" type="line" smooth="yes"/>
      <point x="255" y="554"/>
      <point x="183" y="524"/>
      <point x="130" y="472" type="curve" smooth="yes"/>
      <point x="74" y="416"/>
      <point x="46" y="335"/>
      <point x="46" y="235" type="curve" smooth="yes"/>
      <point x="46" y="54"/>
      <point x="110" y="-12"/>
    </contour>
    <contour>
      <point x="400" y="0" type="line"/>
      <point x="479" y="0" type="line"/>
      <point x="479" y="487" type="line"/>
      <point x="593" y="487" type="line"/>
      <point x="593" y="554" type="line"/>
      <point x="393" y="554" type="line"/>
      <point x="380" y="487" type="line"/>
      <point x="400" y="487" type="line"/>
    </contour>
    <contour>
      <point x="638" y="-2" type="curve" smooth="yes"/>
      <point x="694" y="-2"/>
      <point x="726" y="36"/>
      <point x="726" y="103" type="curve" smooth="yes"/>
      <point x="726" y="142"/>
      <point x="715" y="171"/>
      <point x="692" y="189" type="curve" smooth="yes"/>
      <point x="673" y="205"/>
      <point x="647" y="213"/>
      <point x="604" y="213" type="curve" smooth="yes"/>
      <point x="469" y="213" type="line"/>
      <point x="476" y="160" type="line"/>
      <point x="602" y="160" type="line" smooth="yes"/>
      <point x="632" y="160"/>
      <point x="646" y="155"/>
      <point x="656" y="145" type="curve" smooth="yes"/>
      <point x="666" y="135"/>
      <point x="670" y="119"/>
      <point x="670" y="101" type="curve" smooth="yes"/>
      <point x="670" y="67"/>
      <point x="655" y="54"/>
      <point x="637" y="54" type="curve" smooth="yes"/>
      <point x="609" y="54"/>
      <point x="597" y="82"/>
      <point x="597" y="139" type="curve" smooth="yes"/>
      <point x="597" y="164"/>
      <point x="598" y="181"/>
      <point x="601" y="196" type="curve" smooth="yes"/>
      <point x="614" y="261"/>
      <point x="652" y="290"/>
      <point x="697" y="290" type="curve" smooth="yes"/>
      <point x="754" y="290"/>
      <point x="787" y="241"/>
      <point x="787" y="162" type="curve" smooth="yes"/>
      <point x="787" y="109"/>
      <point x="776" y="78"/>
      <point x="759" y="38" type="curve"/>
      <point x="759" y="0" type="line"/>
      <point x="955" y="0" type="line"/>
      <point x="954" y="56" type="line"/>
      <point x="812" y="56" type="line"/>
      <point x="826" y="50" type="line"/>
      <point x="845" y="93"/>
      <point x="852" y="134"/>
      <point x="852" y="177" type="curve" smooth="yes"/>
      <point x="852" y="277"/>
      <point x="797" y="347"/>
      <point x="700" y="347" type="curve" smooth="yes"/>
      <point x="629" y="347"/>
      <point x="564" y="301"/>
      <point x="545" y="201" type="curve" smooth="yes"/>
      <point x="542" y="185"/>
      <point x="540" y="166"/>
      <point x="540" y="143" type="curve" smooth="yes"/>
      <point x="540" y="45"/>
      <point x="579" y="-2"/>
    </contour>
    <contour>
      <point x="937" y="0" type="line"/>
      <point x="1001" y="0" type="line"/>
      <point x="1001" y="337" type="line"/>
      <point x="937" y="337" type="line"/>
    </contour>
  </outline>
</glyph>
<glyph name="asabovesigntamil" format="2">
  <advance width="1505"/>
  <unicode hex="0BF8"/>
  <outline>
    <contour>
      <point x="292" y="-12" type="curve" smooth="yes"/>
      <point x="394" y="-12"/>
      <point x="457" y="45"/>
      <point x="457" y="173" type="curve" smooth="yes"/>
      <point x="457" y="288"/>
      <point x="409" y="348"/>
      <point x="323" y="348" type="curve" smooth="yes"/>
      <point x="230" y="348"/>
      <point x="188" y="279"/>
      <point x="188" y="192" type="curve" smooth="yes"/>
      <point x="188" y="112"/>
      <point x="214" y="64"/>
      <point x="240" y="25" type="curve"/>
      <point x="295" y="43" type="line"/>
      <point x="272" y="74"/>
      <point x="257" y="117"/>
      <point x="257" y="173" type="curve" smooth="yes"/>
      <point x="257" y="247"/>
      <point x="283" y="281"/>
      <point x="321" y="281" type="curve" smooth="yes"/>
      <point x="362" y="281"/>
      <point x="384" y="244"/>
      <point x="384" y="173" type="curve" smooth="yes"/>
      <point x="384" y="93"/>
      <point x="358" y="54"/>
      <point x="299" y="54" type="curve" smooth="yes"/>
      <point x="287" y="54"/>
      <point x="269" y="58"/>
      <point x="252" y="67" type="curve"/>
      <point x="231" y="67" type="line"/>
      <point x="168" y="106"/>
      <point x="125" y="205"/>
      <point x="125" y="375" type="curve" smooth="yes"/>
      <point x="125" y="646"/>
      <point x="256" y="774"/>
      <point x="415" y="774" type="curve" smooth="yes"/>
      <point x="556" y="774"/>
      <point x="635" y="674"/>
      <point x="679" y="536" type="curve"/>
      <point x="686" y="512" type="line"/>
      <point x="705" y="447"/>
      <point x="714" y="377"/>
      <point x="714" y="311" type="curve" smooth="yes"/>
      <point x="714" y="207"/>
      <point x="691" y="157"/>
      <point x="648" y="157" type="curve" smooth="yes"/>
      <point x="610" y="157"/>
      <point x="587" y="192"/>
      <point x="587" y="282" type="curve" smooth="yes"/>
      <point x="587" y="382"/>
      <point x="628" y="474"/>
      <point x="711" y="498" type="curve"/>
      <point x="745" y="502" type="line"/>
      <point x="833" y="502"/>
      <point x="888" y="424"/>
      <point x="888" y="279" type="curve" smooth="yes"/>
      <point x="888" y="176"/>
      <point x="867" y="110"/>
      <point x="851" y="63" type="curve"/>
      <point x="859" y="0" type="line"/>
      <point x="1093" y="0" type="line"/>
      <point x="1108" y="67" type="line"/>
      <point x="930" y="67" type="line"/>
      <point x="949" y="124"/>
      <point x="969" y="199"/>
      <point x="969" y="289" type="curve" smooth="yes"/>
      <point x="969" y="442"/>
      <point x="900" y="566"/>
      <point x="747" y="566" type="curve" smooth="yes"/>
      <point x="727" y="566"/>
      <point x="708" y="564"/>
      <point x="690" y="559" type="curve" smooth="yes"/>
      <point x="573" y="528"/>
      <point x="509" y="404"/>
      <point x="509" y="285" type="curve" smooth="yes"/>
      <point x="509" y="144"/>
      <point x="574" y="91"/>
      <point x="649" y="91" type="curve" smooth="yes"/>
      <point x="746" y="91"/>
      <point x="792" y="170"/>
      <point x="792" y="306" type="curve" smooth="yes"/>
      <point x="792" y="386"/>
      <point x="782" y="458"/>
      <point x="762" y="524" type="curve"/>
      <point x="755" y="546" type="line"/>
      <point x="701" y="726"/>
      <point x="589" y="843"/>
      <point x="413" y="843" type="curve" smooth="yes"/>
      <point x="194" y="843"/>
      <point x="46" y="667"/>
      <point x="46" y="383" type="curve" smooth="yes"/>
      <point x="46" y="149"/>
      <point x="140" y="-12"/>
    </contour>
    <contour>
      <point x="1172" y="566" type="curve" smooth="yes"/>
      <point x="1081" y="566"/>
      <point x="1027" y="487"/>
      <point x="1027" y="386" type="curve" smooth="yes"/>
      <point x="1027" y="246"/>
      <point x="1108" y="185"/>
      <point x="1215" y="185" type="curve" smooth="yes"/>
      <point x="1237" y="185" type="line" smooth="yes"/>
      <point x="1295" y="185"/>
      <point x="1343" y="215"/>
      <point x="1372" y="244" type="curve"/>
      <point x="1370" y="216"/>
      <point x="1370" y="187"/>
      <point x="1370" y="156" type="curve" smooth="yes"/>
      <point x="1370" y="67" type="line"/>
      <point x="1051" y="67" type="line"/>
      <point x="1044" y="0" type="line"/>
      <point x="1445" y="0" type="line"/>
      <point x="1445" y="328" type="line"/>
      <point x="1370" y="328" type="line"/>
      <point x="1342" y="288"/>
      <point x="1299" y="250"/>
      <point x="1240" y="250" type="curve" smooth="yes"/>
      <point x="1213" y="250" type="line" smooth="yes"/>
      <point x="1145" y="250"/>
      <point x="1104" y="291"/>
      <point x="1104" y="382" type="curve" smooth="yes"/>
      <point x="1104" y="450"/>
      <point x="1125" y="499"/>
      <point x="1170" y="499" type="curve" smooth="yes"/>
      <point x="1204" y="499"/>
      <point x="1219" y="468"/>
      <point x="1219" y="422" type="curve" smooth="yes"/>
      <point x="1219" y="382"/>
      <point x="1212" y="335"/>
      <point x="1205" y="300" type="curve" smooth="yes"/>
      <point x="1154" y="49" type="line"/>
      <point x="1152" y="28" type="line"/>
      <point x="1087" y="-271" type="line"/>
      <point x="1162" y="-284" type="line"/>
      <point x="1266" y="210" type="line"/>
      <point x="1281" y="286" type="line" smooth="yes"/>
      <point x="1288" y="321"/>
      <point x="1298" y="377"/>
      <point x="1298" y="427" type="curve" smooth="yes"/>
      <point x="1298" y="497"/>
      <point x="1265" y="566"/>
    </contour>
  </outline>
</glyph>
<glyph name="rupeesigntamil" format="2">
  <advance width="806"/>
  <unicode hex="0BF9"/>
  <outline>
    <contour>
      <point x="617" y="298" type="curve" smooth="yes"/>
      <point x="580" y="298"/>
      <point x="549" y="284"/>
      <point x="527" y="268" type="curve"/>
      <point x="531" y="200" type="line"/>
      <point x="548" y="217"/>
      <point x="572" y="230"/>
      <point x="599" y="230" type="curve" smooth="yes"/>
      <point x="649" y="230"/>
      <point x="687" y="189"/>
      <point x="687" y="61" type="curve" smooth="yes"/>
      <point x="687" y="-152"/>
      <point x="585" y="-249"/>
      <point x="428" y="-249" type="curve" smooth="yes"/>
      <point x="419" y="-249" type="line" smooth="yes"/>
      <point x="219" y="-249"/>
      <point x="135" y="-102"/>
      <point x="135" y="176" type="curve" smooth="yes"/>
      <point x="135" y="197" type="line" smooth="yes"/>
      <point x="135" y="422"/>
      <point x="209" y="600"/>
      <point x="310" y="669" type="curve"/>
      <point x="307" y="730" type="line"/>
      <point x="156" y="666"/>
      <point x="56" y="451"/>
      <point x="56" y="199" type="curve" smooth="yes"/>
      <point x="56" y="174" type="line" smooth="yes"/>
      <point x="56" y="-130"/>
      <point x="169" y="-321"/>
      <point x="420" y="-321" type="curve" smooth="yes"/>
      <point x="424" y="-321" type="line" smooth="yes"/>
      <point x="612" y="-321"/>
      <point x="767" y="-211"/>
      <point x="767" y="61" type="curve" smooth="yes"/>
      <point x="767" y="226"/>
      <point x="702" y="298"/>
    </contour>
    <contour>
      <point x="275" y="0" type="line"/>
      <point x="354" y="0" type="line"/>
      <point x="354" y="448" type="line"/>
      <point x="472" y="448" type="line"/>
      <point x="472" y="0" type="line"/>
      <point x="551" y="0" type="line"/>
      <point x="551" y="448" type="line"/>
      <point x="667" y="448" type="line"/>
      <point x="667" y="515" type="line"/>
      <point x="275" y="515" type="line"/>
    </contour>
    <contour>
      <point x="378" y="551" type="curve" smooth="yes"/>
      <point x="425" y="551"/>
      <point x="462" y="581"/>
      <point x="462" y="652" type="curve" smooth="yes"/>
      <point x="462" y="704"/>
      <point x="439" y="746"/>
      <point x="377" y="746" type="curve" smooth="yes"/>
      <point x="362" y="746"/>
      <point x="346" y="742"/>
      <point x="332" y="737" type="curve"/>
      <point x="330" y="677" type="line"/>
      <point x="342" y="689"/>
      <point x="359" y="695"/>
      <point x="373" y="695" type="curve" smooth="yes"/>
      <point x="395" y="695"/>
      <point x="409" y="679"/>
      <point x="409" y="648" type="curve" smooth="yes"/>
      <point x="409" y="616"/>
      <point x="395" y="602"/>
      <point x="377" y="602" type="curve" smooth="yes"/>
      <point x="351" y="602"/>
      <point x="337" y="624"/>
      <point x="337" y="678" type="curve" smooth="yes"/>
      <point x="337" y="689"/>
      <point x="338" y="700"/>
      <point x="339" y="705" type="curve"/>
      <point x="347" y="734" type="line"/>
      <point x="363" y="762"/>
      <point x="391" y="788"/>
      <point x="438" y="788" type="curve" smooth="yes"/>
      <point x="497" y="788"/>
      <point x="525" y="745"/>
      <point x="525" y="691" type="curve" smooth="yes"/>
      <point x="525" y="644"/>
      <point x="513" y="617"/>
      <point x="499" y="588" type="curve"/>
      <point x="499" y="558" type="line"/>
      <point x="664" y="558" type="line"/>
      <point x="664" y="612" type="line"/>
      <point x="551" y="612" type="line"/>
      <point x="566" y="602" type="line"/>
      <point x="579" y="631"/>
      <point x="589" y="662"/>
      <point x="589" y="707" type="curve" smooth="yes"/>
      <point x="589" y="787"/>
      <point x="539" y="843"/>
      <point x="439" y="843" type="curve" smooth="yes"/>
      <point x="365" y="843"/>
      <point x="283" y="789"/>
      <point x="283" y="686" type="curve" smooth="yes"/>
      <point x="283" y="602"/>
      <point x="318" y="551"/>
    </contour>
  </outline>
</glyph>
<glyph name="numsigntamil" format="2">
  <advance width="910"/>
  <unicode hex="0BFA"/>
  <outline>
    <contour>
      <point x="422" y="362" type="curve" smooth="yes"/>
      <point x="386" y="362"/>
      <point x="357" y="350"/>
      <point x="322" y="327" type="curve"/>
      <point x="325" y="260" type="line"/>
      <point x="350" y="281"/>
      <point x="376" y="294"/>
      <point x="406" y="294" type="curve" smooth="yes"/>
      <point x="465" y="294"/>
      <point x="493" y="237"/>
      <point x="493" y="132" type="curve" smooth="yes"/>
      <point x="493" y="53"/>
      <point x="488" y="-11"/>
      <point x="446" y="-49" type="curve" smooth="yes"/>
      <point x="418" y="-74"/>
      <point x="381" y="-85"/>
      <point x="302" y="-85" type="curve" smooth="yes"/>
      <point x="238" y="-85" type="line" smooth="yes"/>
      <point x="167" y="-85"/>
      <point x="125" y="-95"/>
      <point x="91" y="-121" type="curve" smooth="yes"/>
      <point x="58" y="-146"/>
      <point x="37" y="-185"/>
      <point x="37" y="-243" type="curve" smooth="yes"/>
      <point x="37" y="-266"/>
      <point x="40" y="-297"/>
      <point x="44" y="-321" type="curve"/>
      <point x="120" y="-317" type="line"/>
      <point x="118" y="-301"/>
      <point x="117" y="-277"/>
      <point x="117" y="-261" type="curve" smooth="yes"/>
      <point x="117" y="-224"/>
      <point x="126" y="-197"/>
      <point x="146" y="-179" type="curve" smooth="yes"/>
      <point x="167" y="-160"/>
      <point x="191" y="-152"/>
      <point x="250" y="-152" type="curve" smooth="yes"/>
      <point x="309" y="-152" type="line" smooth="yes"/>
      <point x="403" y="-152"/>
      <point x="454" y="-139"/>
      <point x="497" y="-103" type="curve" smooth="yes"/>
      <point x="553" y="-56"/>
      <point x="572" y="18"/>
      <point x="572" y="135" type="curve" smooth="yes"/>
      <point x="572" y="284"/>
      <point x="518" y="362"/>
    </contour>
    <contour>
      <point x="67" y="0" type="line"/>
      <point x="146" y="0" type="line"/>
      <point x="146" y="487" type="line"/>
      <point x="264" y="487" type="line"/>
      <point x="264" y="0" type="line"/>
      <point x="343" y="0" type="line"/>
      <point x="343" y="487" type="line"/>
      <point x="458" y="487" type="line"/>
      <point x="458" y="554" type="line"/>
      <point x="67" y="554" type="line"/>
    </contour>
    <contour>
      <point x="603" y="494" type="curve" smooth="yes"/>
      <point x="659" y="494"/>
      <point x="691" y="532"/>
      <point x="691" y="599" type="curve" smooth="yes"/>
      <point x="691" y="638"/>
      <point x="680" y="667"/>
      <point x="657" y="685" type="curve"/>
      <point x="638" y="701"/>
      <point x="612" y="709"/>
      <point x="569" y="709" type="curve" smooth="yes"/>
      <point x="549" y="709" type="line" smooth="yes"/>
      <point x="465" y="709"/>
      <point x="401" y="658"/>
      <point x="401" y="554" type="curve"/>
      <point x="458" y="519" type="line"/>
      <point x="458" y="554" type="line" smooth="yes"/>
      <point x="458" y="597"/>
      <point x="476" y="656"/>
      <point x="538" y="656" type="curve" smooth="yes"/>
      <point x="569" y="656" type="line" smooth="yes"/>
      <point x="597" y="656"/>
      <point x="611" y="651"/>
      <point x="621" y="641" type="curve" smooth="yes"/>
      <point x="631" y="631"/>
      <point x="635" y="615"/>
      <point x="635" y="597" type="curve" smooth="yes"/>
      <point x="635" y="563"/>
      <point x="620" y="550"/>
      <point x="602" y="550" type="curve" smooth="yes"/>
      <point x="574" y="550"/>
      <point x="562" y="578"/>
      <point x="562" y="635" type="curve" smooth="yes"/>
      <point x="562" y="660"/>
      <point x="563" y="677"/>
      <point x="566" y="692" type="curve" smooth="yes"/>
      <point x="579" y="757"/>
      <point x="617" y="786"/>
      <point x="662" y="786" type="curve" smooth="yes"/>
      <point x="719" y="786"/>
      <point x="752" y="737"/>
      <point x="752" y="658" type="curve" smooth="yes"/>
      <point x="752" y="605"/>
      <point x="741" y="574"/>
      <point x="724" y="534" type="curve"/>
      <point x="724" y="496" type="line"/>
      <point x="894" y="496" type="line"/>
      <point x="894" y="552" type="line"/>
      <point x="777" y="552" type="line"/>
      <point x="791" y="546" type="line"/>
      <point x="810" y="589"/>
      <point x="817" y="630"/>
      <point x="817" y="673" type="curve" smooth="yes"/>
      <point x="817" y="773"/>
      <point x="762" y="843"/>
      <point x="665" y="843" type="curve" smooth="yes"/>
      <point x="594" y="843"/>
      <point x="529" y="797"/>
      <point x="510" y="697" type="curve" smooth="yes"/>
      <point x="507" y="681"/>
      <point x="505" y="662"/>
      <point x="505" y="639" type="curve" smooth="yes"/>
      <point x="505" y="541"/>
      <point x="544" y="494"/>
    </contour>
  </outline>
</glyph>
<glyph name="uni1CDA" format="2">
  <unicode hex="1CDA"/>
  <outline>
    <contour>
      <point x="-372" y="870" type="line"/>
      <point x="-372" y="659" type="line"/>
      <point x="-308" y="659" type="line"/>
      <point x="-308" y="870" type="line"/>
    </contour>
    <contour>
      <point x="-248" y="870" type="line"/>
      <point x="-248" y="659" type="line"/>
      <point x="-184" y="659" type="line"/>
      <point x="-184" y="870" type="line"/>
    </contour>
  </outline>
</glyph>
<glyph name="endash.tamil" format="2">
  <advance width="500"/>
  <unicode hex="2013"/>
  <outline>
    <contour>
      <point x="38" y="268" type="line"/>
      <point x="462" y="268" type="line"/>
      <point x="462" y="338" type="line"/>
      <point x="38" y="338" type="line"/>
    </contour>
  </outline>
</glyph>
<glyph name="emdash.tamil" format="2">
  <advance width="1000"/>
  <unicode hex="2014"/>
  <outline>
    <contour>
      <point x="38" y="268" type="line"/>
      <point x="962" y="268" type="line"/>
      <point x="962" y="338" type="line"/>
      <point x="38" y="338" type="line"/>
    </contour>
  </outline>
</glyph>
<glyph name="quoteleft.tamil" format="2">
  <advance width="218"/>
  <unicode hex="2018"/>
  <outline>
    <contour>
      <point x="46" y="554" type="line"/>
      <point x="133" y="554" type="line"/>
      <point x="140" y="625"/>
      <point x="156" y="717"/>
      <point x="178" y="800" type="curve"/>
      <point x="117" y="800" type="line"/>
      <point x="85" y="728"/>
      <point x="59" y="649"/>
      <point x="40" y="565" type="curve"/>
    </contour>
  </outline>
</glyph>
